<svg width="693" height="391" viewBox="0 0 693 391" fill="none" xmlns="http://www.w3.org/2000/svg">
<path d="M479.324 267.329H456.021V290.632H479.324V267.329Z" fill="#6595FC"/>
<path d="M492.509 293.895H442.835C441.933 293.895 441.202 293.164 441.202 292.262C441.202 291.36 441.933 290.629 442.835 290.629H492.509C493.411 290.629 494.143 291.36 494.143 292.262C494.143 293.167 493.411 293.895 492.509 293.895Z" fill="#6595FC"/>
<path d="M568.104 293.895H169.898V299.638H568.104V293.895Z" fill="#805251"/>
<path d="M181.006 299.638H177.872V463.338H181.006V299.638Z" fill="#4D4D4D"/>
<path d="M209.154 390.269H206.021V463.335H209.154V390.269Z" fill="#4D4D4D"/>
<path d="M250.207 390.269H247.073V463.335H250.207V390.269Z" fill="#4D4D4D"/>
<path d="M291.259 390.269H288.125V463.335H291.259V390.269Z" fill="#4D4D4D"/>
<path d="M441.726 299.638H438.593V463.338H441.726V299.638Z" fill="#4D4D4D"/>
<path d="M558.3 299.638H555.166V463.338H558.3V299.638Z" fill="#4D4D4D"/>
<path d="M555.166 299.638H441.727V328.189H555.166V299.638Z" fill="#543737"/>
<path d="M498.448 318.259C500.848 318.259 502.794 316.314 502.794 313.913C502.794 311.513 500.848 309.568 498.448 309.568C496.048 309.568 494.103 311.513 494.103 313.913C494.103 316.314 496.048 318.259 498.448 318.259Z" fill="#805251"/>
<path d="M530.85 272.17H404.495C402.448 272.17 400.785 270.511 400.785 268.46V194.898C400.785 192.851 402.444 191.188 404.495 191.188H530.85C532.897 191.188 534.56 192.847 534.56 194.898V268.46C534.56 270.507 532.897 272.17 530.85 272.17Z" fill="#B2CAFE"/>
<path d="M526.529 261.035H408.811C407.052 261.035 405.622 259.609 405.622 257.846V198.804C405.622 197.045 407.049 195.615 408.811 195.615H526.529C528.288 195.615 529.719 197.042 529.719 198.804V257.85C529.719 259.609 528.292 261.035 526.529 261.035Z" fill="#D8E5FE"/>
<path d="M291.981 390.269H217.813C216.35 390.269 215.164 389.082 215.164 387.619C215.164 379.241 221.956 372.449 230.333 372.449H279.457C287.834 372.449 294.627 379.241 294.627 387.619C294.63 389.086 293.444 390.269 291.981 390.269Z" fill="#10858E"/>
<path d="M395.896 288.419H269.782V293.899H395.896V288.419Z" fill="#6595FC"/>
<path d="M312.072 398.72L291.26 374.131C291.26 374.131 329.193 357.945 329.818 357.738C330.443 357.531 339.478 377.97 339.005 378.229C338.532 378.488 312.072 398.72 312.072 398.72Z" fill="#1E3E72"/>
<path d="M328.277 421.277L344.991 443.213L356.218 437.496L341.13 397.09L333.972 390.793L328.277 421.277Z" fill="#1E3E72"/>
<path d="M263.888 337.258L349.031 335.343C356.17 335.184 361.458 341.925 359.603 348.821C356.499 360.376 351.939 376.097 348.336 383.303C342.283 395.413 316.947 441.62 315.831 446.24L302.764 444.488L316.149 378.683C316.149 378.683 260.063 378.366 240.621 378.366C221.183 378.366 214.491 349.209 214.491 338.211L263.888 337.258Z" fill="#4C6AA6"/>
<path d="M261.648 243.501H220.703C211.9 243.501 205.042 251.139 205.991 259.894L214.491 338.215L272.047 337.077L276.423 259.125C276.896 250.64 270.144 243.501 261.648 243.501Z" fill="#7ACAB5"/>
<path d="M275.015 289.816L305.258 309.291C307.664 310.839 310.62 311.256 313.359 310.432C319.933 308.455 332.505 304.575 340.476 301.497C351.662 297.181 358.624 293.57 359.237 293.57C359.855 293.57 367.43 292.602 369.367 290.045C371.303 287.491 371.92 286.608 371.92 286.608C371.92 286.608 375.708 291.364 376.765 291.541C377.027 291.586 377.264 291.608 377.478 291.615C377.973 291.634 378.298 291.109 378.066 290.673L376.939 288.548C376.939 288.548 379.599 289.756 379.758 288.644C379.876 287.809 375.505 284.132 373.324 282.358C372.559 281.734 371.599 281.394 370.612 281.394H366.447C365.017 281.394 363.646 281.959 362.637 282.972C360.534 285.074 357.046 288.552 356.802 288.707C356.451 288.929 348.122 291.567 347.198 291.634C346.329 291.693 315.653 295.987 311.962 296.504C311.733 296.538 311.507 296.453 311.348 296.286L276.434 258.619L275.015 289.816Z" fill="#FFD3CA"/>
<path d="M236.431 222.625C236.431 222.625 245.307 239.454 265.166 237.37C265.166 237.37 271.582 225.012 269.291 205.157C266.999 185.301 257.835 191.133 257.835 191.133L239.505 195.992L236.431 222.625Z" fill="#FFD3CA"/>
<path d="M235.241 225.356H242.676C245.437 225.356 248.123 224.539 250.326 223.028L255.163 219.713C255.163 219.713 265.754 210.109 267.879 197.212C267.879 197.212 269.161 202.319 269.402 205.146C269.402 205.146 275.008 197.467 273.659 189.869C271.013 174.928 232.953 168.461 227.942 191.018C227.942 191.018 223.489 191.077 222.229 192.77C220.969 194.462 218.907 206.783 222.229 215.057C222.965 216.893 223.752 218.42 224.532 219.687C226.693 223.202 230.806 225.356 235.241 225.356Z" fill="black"/>
<path d="M256.446 221.851C258.911 221.226 260.216 217.985 259.361 214.612C258.506 211.238 255.815 209.01 253.349 209.635C250.884 210.26 249.579 213.501 250.434 216.874C251.289 220.248 253.98 222.476 256.446 221.851Z" fill="#FFD3CA"/>
<path d="M251.165 225.156H232.954V243.497H251.165V225.156Z" fill="#FFD3CA"/>
<path d="M273.935 250.056L296.77 280.547L282.258 298.618L266.345 292.447L261.958 262.244L273.935 250.056Z" fill="#7ACAB5"/>
<path d="M253.581 390.269H202.125L176.269 293.152C175.127 288.858 178.364 284.646 182.806 284.646H211.904C219.897 284.646 226.889 290.019 228.947 297.742L253.581 390.269Z" fill="#0DCEDA"/>
<path d="M282.257 298.618C282.257 298.618 271.88 294.594 270.081 293.895C268.281 293.197 266.112 290.854 266.112 290.854" stroke="#1B4237" stroke-width="0.369544" stroke-miterlimit="10"/>
<path d="M251.164 235.515C251.164 235.515 247.18 234.328 241.545 230.714C241.545 230.714 246.386 237.998 251.164 240.456V235.515Z" fill="#E2765A"/>
<path d="M108.069 129.5V145.002L100.153 147.922L109.817 169.289L126.336 170.043L131.128 151.876L128.782 148.58L126.923 147.356L127.215 136.248L127.803 129.5L115.641 119.304L108.069 129.5Z" fill="#FFD3CA"/>
<path d="M127.216 136.248L127.083 141.359C127.083 141.359 121.702 140.087 116.632 131.51C111.562 122.933 125.545 129.071 125.545 129.071L127.216 136.248Z" fill="#E2765A"/>
<path d="M626.894 134.999L626.381 151.913L639.378 158.35L622.209 173.361L601.739 171.314L597.815 159.429L609.326 153.04L609.925 144.134L616.237 140.328L626.894 134.999Z" fill="#FFD3CA"/>
<path d="M609.874 144.947C609.874 144.947 612.439 149.389 626.637 143.576L626.895 134.995L617.302 137.77L609.874 144.947Z" fill="#B55445"/>
<path d="M613.717 145.619C622.178 145.619 629.038 136.167 629.038 124.507C629.038 112.848 622.178 103.395 613.717 103.395C605.255 103.395 598.396 112.848 598.396 124.507C598.396 136.167 605.255 145.619 613.717 145.619Z" fill="#FFD3CA"/>
<path d="M624.788 112.782C624.788 112.782 620.55 114.412 618.429 111.965C616.307 109.519 612.438 110.343 609.785 110.498C601.33 110.99 597.679 106.418 597.435 103.891C597.191 101.363 600.077 95.2248 603.551 93.2921C608.85 90.3431 619.674 90.9381 620.79 96.7178C620.79 96.7178 624.452 96.23 626.207 96.8804C627.963 97.5345 630.003 99.5706 630.982 99.6519C631.961 99.7332 639.134 99.4893 638.728 104.053C638.728 104.053 644.271 104.46 645.413 108.129C646.555 111.799 634.977 135.605 632.53 137.401C630.084 139.193 626.743 139.603 626.743 139.603L626.891 134.995L627.845 132.46C627.848 132.464 624.545 126.969 624.788 112.782Z" fill="#2A2C6A"/>
<path d="M628.838 132.903C631.418 132.903 633.509 130.812 633.509 128.232C633.509 125.653 631.418 123.561 628.838 123.561C626.258 123.561 624.167 125.653 624.167 128.232C624.167 130.812 626.258 132.903 628.838 132.903Z" fill="#FFD3CA"/>
<path d="M593.983 257.251C593.983 257.251 597.734 420.412 605.147 442.644H624.116C624.116 442.644 624.396 380.128 624.116 372.072C623.835 364.016 627.896 303.112 627.896 303.112L651.547 442.644L672.493 440.39C672.493 440.39 657.955 298.681 646.532 262.392L627.892 243.501L593.983 257.251Z" fill="black"/>
<path d="M583.174 168.406C583.174 168.406 578.052 210.079 585.425 210.888C592.797 211.698 601.33 210.888 601.33 210.888V181.768L583.174 168.406Z" fill="#6D2011"/>
<path d="M613.716 124.193C614.587 124.193 615.294 123.219 615.294 122.017C615.294 120.815 614.587 119.84 613.716 119.84C612.844 119.84 612.138 120.815 612.138 122.017C612.138 123.219 612.844 124.193 613.716 124.193Z" fill="#B55445"/>
<path d="M602.907 123.177C603.779 123.177 604.485 122.203 604.485 121C604.485 119.798 603.779 118.824 602.907 118.824C602.036 118.824 601.329 119.798 601.329 121C601.329 122.203 602.036 123.177 602.907 123.177Z" fill="#B55445"/>
<path d="M618.043 119.219C618.095 119.219 618.146 119.208 618.198 119.186C618.409 119.094 618.509 118.842 618.424 118.621C618.398 118.55 617.74 116.887 616.147 116.355C615.013 115.975 613.723 116.267 612.319 117.224C612.127 117.353 612.071 117.623 612.193 117.826C612.315 118.029 612.57 118.088 612.762 117.959C613.948 117.15 615.002 116.891 615.892 117.187C617.115 117.593 617.659 118.942 617.662 118.957C617.729 119.12 617.88 119.219 618.043 119.219Z" fill="#B55445"/>
<path d="M605.087 117.039C605.139 117.039 605.194 117.028 605.242 117.006C605.453 116.913 605.552 116.658 605.464 116.437C605.438 116.366 604.78 114.715 603.361 114.26C602.518 113.99 601.613 114.197 600.667 114.87C600.479 115.003 600.431 115.273 600.556 115.472C600.682 115.672 600.94 115.723 601.125 115.59C601.857 115.069 602.529 114.903 603.121 115.088C604.167 115.42 604.702 116.751 604.706 116.766C604.773 116.936 604.928 117.039 605.087 117.039Z" fill="#B55445"/>
<path d="M607.663 129.685C607.948 129.685 608.203 129.478 608.269 129.171C608.343 128.816 608.136 128.465 607.8 128.384C607.053 128.207 606.732 127.767 606.632 127.508C607.068 127.283 607.73 126.315 608.831 122.198C608.923 121.847 608.731 121.485 608.402 121.385C608.07 121.285 607.73 121.488 607.634 121.839C607.15 123.654 606.433 125.786 606.085 126.285C605.701 126.377 605.413 126.721 605.365 127.19C605.28 127.985 605.893 129.282 607.526 129.674C607.571 129.681 607.615 129.685 607.663 129.685Z" fill="#E2765A"/>
<path d="M607.164 137.464C607.168 137.467 607.171 137.467 607.179 137.471C611.927 139.437 614.252 137.719 614.348 137.645C614.633 137.427 614.703 137.017 614.507 136.728C614.311 136.444 613.923 136.385 613.638 136.599C613.594 136.632 611.695 137.911 607.685 136.252C607.367 136.119 606.998 136.285 606.857 136.621C606.717 136.954 606.857 137.327 607.164 137.464Z" fill="#E2765A"/>
<path d="M617.766 131.314C619.764 131.314 621.384 130.409 621.384 129.293C621.384 128.177 619.764 127.272 617.766 127.272C615.768 127.272 614.148 128.177 614.148 129.293C614.148 130.409 615.768 131.314 617.766 131.314Z" fill="#FF8483"/>
<path d="M600.139 130.694C601.988 130.694 603.487 129.703 603.487 128.48C603.487 127.258 601.988 126.266 600.139 126.266C598.29 126.266 596.791 127.258 596.791 128.48C596.791 129.703 598.29 130.694 600.139 130.694Z" fill="#FF8483"/>
<path d="M631.884 154.636C631.884 154.636 660.498 167.777 661.019 168.997C661.54 170.216 648.48 265.485 648.48 265.485H591.704C591.704 265.485 580.314 176.295 583.178 168.406C586.364 159.633 605.358 154.636 605.358 154.636C605.358 154.636 614.767 165.357 631.884 154.636Z" fill="#E2765A"/>
<path d="M661.018 168.997C661.018 168.997 674.222 220.755 674.417 227.592C674.613 234.425 661.724 235.792 659.185 236.184C656.646 236.575 631.89 233.449 626.89 233.061C621.89 232.669 607.101 232.473 607.101 232.473L606.702 222.318C606.702 222.318 647.666 221.147 655.475 221.343C655.475 221.343 647.422 199.081 645.493 188.734L661.018 168.997Z" fill="#FFD3CA"/>
<path d="M606.707 222.318L588.695 220.083L568.104 219.085C568.104 219.085 568.547 221.897 570.428 222.097C572.309 222.296 584.046 223.179 584.046 223.179C584.046 223.179 584.478 234.635 586.26 235.245C588.045 235.855 607.106 232.47 607.106 232.47L606.707 222.318Z" fill="#FFD3CA"/>
<path d="M661.019 168.997L671.244 203.874C671.244 203.874 656.751 211.613 648.562 210.833L642.006 186.613L661.019 168.997Z" fill="#E2765A"/>
<path d="M651.82 210.763C651.82 210.763 649.662 210.959 648.561 210.829L643.025 195.246" stroke="#6D2011" stroke-width="0.369544" stroke-miterlimit="10"/>
<path d="M631.842 129.382C631.835 129.382 631.828 129.382 631.82 129.382C631.617 129.371 631.462 129.197 631.473 128.994C631.558 127.479 631.24 126.455 630.534 125.949C629.403 125.139 627.589 125.856 627.57 125.864C627.382 125.941 627.164 125.849 627.09 125.66C627.012 125.472 627.105 125.254 627.293 125.18C627.382 125.143 629.507 124.304 630.963 125.35C631.89 126.011 632.308 127.253 632.208 129.034C632.197 129.23 632.035 129.382 631.842 129.382Z" fill="#B55445"/>
<path d="M137.035 110.335C137.035 110.335 136.022 136.351 133.491 138.121C130.959 139.892 115.679 134.16 113.916 129.603C112.153 125.047 109.995 116.433 109.995 116.433L111.44 102.73L125.627 97.3423L136.251 103.732L137.035 110.335Z" fill="#FFD3CA"/>
<path d="M137.034 110.335C137.034 110.335 142.932 109.766 143.287 107.904C143.641 106.045 141.82 105.535 141.82 105.535C141.82 105.535 144.151 99.9402 134.07 98.9498C134.07 98.9498 136.742 97.176 135.877 95.1657C135.009 93.1517 124.743 90.151 115.512 96.581C115.512 96.581 116.325 93.1886 112.108 94.7592C107.892 96.3297 96.7241 107.209 102.179 118.85C101.395 120.369 101.739 122.22 103.032 123.403L108.073 129.493C108.073 129.493 119.211 118.403 120.841 115.502C122.47 112.601 122.714 109.995 122.714 109.995L125.382 106.891C125.382 106.891 129.691 108.839 135.759 107.183C135.752 107.191 136.469 107.427 137.034 110.335Z" fill="#B55445"/>
<path d="M141.421 261.453L142.489 321.386C142.763 336.803 142.053 352.224 140.361 367.553L131.126 451.177H109.164L108.454 306.744L94.7514 451.177H68.4731L69.264 372.242C69.6298 335.676 73.7355 299.239 81.5107 263.508L81.9578 261.449L113.809 254.103L141.421 261.453Z" fill="#5771AB"/>
<path d="M114.163 127.56C116.273 126.867 117.208 123.945 116.253 121.032C115.297 118.12 112.812 116.32 110.702 117.012C108.592 117.705 107.657 120.627 108.612 123.54C109.568 126.452 112.053 128.252 114.163 127.56Z" fill="#FFD3CA"/>
<path d="M128.783 148.58L154.451 161.421L141.421 261.453C141.421 261.453 104.71 269.613 81.9614 261.453L75.6348 158.188L100.154 147.922C100.154 147.922 111.828 156.418 128.783 148.58Z" fill="#97B2D3"/>
<path d="M70.9858 186.617L71.6104 192.962L83.6427 195.911L84.2968 190.959L70.9858 186.617Z" fill="#EAA69B"/>
<path d="M83.6421 194.174L111.502 204.292C111.502 204.292 137.599 226.993 150.422 224.454L160.869 210.419L147.259 194.518L143.309 202.47L140.415 201.683L108.183 192.958C98.7084 193.102 87.5297 193.353 83.6421 194.174Z" fill="#FFD3CA"/>
<path d="M111.502 204.292C111.502 204.292 132.452 200.427 138.036 201.14L129.943 195.911L111.502 199.218V204.292Z" fill="#EAA69B"/>
<path d="M59.1191 206.565C59.1191 209.355 78.2135 215.109 97.5 209.355C103.69 207.507 108.087 205.778 111.506 204.296C118.738 201.158 121.557 199.115 127.585 199.355C136.269 199.691 140.507 202.182 140.681 202.285C140.67 202.245 140.574 202.03 140.419 201.69C139.584 199.857 136.93 194.396 134.713 193.461C132.049 192.33 126.077 192.226 122.88 192.637C121.509 192.814 115.327 192.858 108.187 192.965C100.641 193.076 92.0233 193.257 86.8571 193.742C85.5341 193.863 84.4403 194.011 83.6458 194.178L84.2999 190.963C84.2999 190.963 77.1861 191.565 74.555 191.565C71.9201 191.565 72.4449 188.524 72.4449 188.524C71.34 188.424 71.0406 187.444 70.9852 186.62L68.3725 186.886C68.3762 186.883 59.1191 203.782 59.1191 206.565Z" fill="#FFD3CA"/>
<path d="M74.5512 191.561C74.5512 191.561 71.3251 195.116 83.6419 194.174L89.5805 191.561L84.296 188.354L74.5512 191.561Z" fill="#FFD3CA"/>
<path d="M132.949 117.824C133.611 116.82 133.558 115.618 132.83 115.138C132.103 114.658 130.977 115.083 130.315 116.087C129.653 117.09 129.706 118.293 130.434 118.772C131.161 119.252 132.288 118.827 132.949 117.824Z" fill="#B55445"/>
<path d="M134.809 126.562C134.528 126.51 134.318 126.255 134.31 125.945C134.303 125.583 134.576 125.276 134.92 125.258C135.689 125.221 136.084 124.851 136.232 124.615C135.848 124.312 135.378 123.236 135.068 118.986C135.042 118.624 135.297 118.303 135.641 118.27C135.984 118.233 136.284 118.499 136.309 118.861C136.446 120.734 136.749 122.963 137 123.517C137.363 123.68 137.577 124.071 137.54 124.541C137.477 125.339 136.631 126.496 134.95 126.573C134.898 126.573 134.853 126.57 134.809 126.562Z" fill="#E2765A"/>
<path d="M134.998 132.889C134.994 132.889 134.99 132.889 134.99 132.892C131.812 133.55 130.574 132.209 130.523 132.153C130.371 131.983 130.375 131.721 130.534 131.566C130.689 131.414 130.936 131.422 131.088 131.588C131.114 131.614 132.137 132.634 134.82 132.079C135.031 132.035 135.242 132.183 135.29 132.408C135.334 132.626 135.205 132.841 134.998 132.889Z" fill="#E2765A"/>
<path d="M135.116 114.016C135.168 114.02 135.223 114.012 135.275 113.99C135.489 113.913 135.604 113.665 135.53 113.436C135.508 113.366 134.943 111.669 133.383 111.049C132.271 110.605 130.97 110.827 129.514 111.706C129.314 111.825 129.244 112.091 129.359 112.301C129.47 112.512 129.721 112.582 129.917 112.464C131.147 111.721 132.212 111.518 133.084 111.865C134.285 112.338 134.75 113.717 134.754 113.728C134.806 113.898 134.954 114.009 135.116 114.016Z" fill="#B55445"/>
<path d="M84.2962 192.932C84.2962 192.932 77.8699 199.495 61.4252 200.704C60.2537 200.789 59.3151 199.739 59.5405 198.586C61.1702 190.286 67.3415 161.661 75.6304 158.188C85.3383 154.123 89.577 170.043 89.577 170.043L84.2962 192.932Z" fill="#97B2D3"/>
<path d="M70.9856 186.617C71.0411 187.441 71.3404 188.42 72.4453 188.52C72.4453 188.52 71.9169 191.561 74.5554 191.561C77.1866 191.561 84.3003 190.959 84.3003 190.959L83.6462 194.174C87.5338 193.353 98.7125 193.098 108.188 192.962C108.188 192.962 95.6305 181.583 93.258 180.656C90.8893 179.725 83.4245 179.555 82.3676 179.47C81.3144 179.385 72.7114 179.555 71.8319 179.47C71.8319 179.47 71.0411 182.43 76.2221 183.106C81.4031 183.786 86.0556 183.867 86.0556 183.867L85.7785 185.105L71.0374 185.475C71.0411 185.475 70.945 186 70.9856 186.617Z" fill="#FFD3CA"/>
<path d="M86.8574 193.738C92.0236 193.254 100.641 193.073 108.187 192.962C108.187 192.962 93.7864 190.15 86.8574 193.738Z" fill="#EAA69B"/>
<path d="M140.681 195.911C140.681 195.911 149.502 203.279 160.873 210.423L167.27 194.385C170.19 187.06 168.867 178.727 163.819 172.67L154.447 161.421L140.678 172.286V195.911H140.681Z" fill="#97B2D3"/>
<path d="M550.55 251.18H448.8C445.67 251.18 443.131 248.641 443.131 245.511V223.142C443.131 220.012 445.67 217.474 448.8 217.474H550.55C553.68 217.474 556.219 220.012 556.219 223.142V245.511C556.223 248.645 553.684 251.18 550.55 251.18Z" fill="#9EEBF0"/>
<path d="M459.882 244.317C465.375 244.317 469.827 239.865 469.827 234.373C469.827 228.881 465.375 224.428 459.882 224.428C454.39 224.428 449.938 228.881 449.938 234.373C449.938 239.865 454.39 244.317 459.882 244.317Z" fill="#0A9BA3"/>
<path d="M537.394 228.597H480.714C479.945 228.597 479.324 227.976 479.324 227.207C479.324 226.439 479.945 225.818 480.714 225.818H537.394C538.163 225.818 538.784 226.439 538.784 227.207C538.784 227.972 538.163 228.597 537.394 228.597Z" fill="#07676D"/>
<path d="M537.394 234.458H480.714C479.945 234.458 479.324 233.837 479.324 233.068C479.324 232.3 479.945 231.679 480.714 231.679H537.394C538.163 231.679 538.784 232.3 538.784 233.068C538.784 233.837 538.163 234.458 537.394 234.458Z" fill="#3DD8E1"/>
<path d="M508.781 240.323H480.718C479.949 240.323 479.328 239.702 479.328 238.933C479.328 238.164 479.949 237.544 480.718 237.544H508.781C509.549 237.544 510.17 238.164 510.17 238.933C510.17 239.702 509.549 240.323 508.781 240.323Z" fill="#3DD8E1"/>
<path d="M550.55 210.016H448.8C445.67 210.016 443.131 207.477 443.131 204.347V181.979C443.131 178.849 445.67 176.31 448.8 176.31H550.55C553.68 176.31 556.219 178.849 556.219 181.979V204.347C556.223 207.477 553.684 210.016 550.55 210.016Z" fill="#9EEBF0"/>
<path d="M459.882 203.15C465.375 203.15 469.827 198.698 469.827 193.206C469.827 187.714 465.375 183.261 459.882 183.261C454.39 183.261 449.938 187.714 449.938 193.206C449.938 198.698 454.39 203.15 459.882 203.15Z" fill="#0A9BA3"/>
<path d="M537.394 187.43H480.714C479.945 187.43 479.324 186.809 479.324 186.04C479.324 185.272 479.945 184.651 480.714 184.651H537.394C538.163 184.651 538.784 185.272 538.784 186.04C538.784 186.805 538.163 187.43 537.394 187.43Z" fill="#07676D"/>
<path d="M537.394 193.294H480.714C479.945 193.294 479.324 192.674 479.324 191.905C479.324 191.136 479.945 190.515 480.714 190.515H537.394C538.163 190.515 538.784 191.136 538.784 191.905C538.784 192.67 538.163 193.294 537.394 193.294Z" fill="#3DD8E1"/>
<path d="M508.781 199.159H480.718C479.949 199.159 479.328 198.538 479.328 197.77C479.328 197.001 479.949 196.38 480.718 196.38H508.781C509.549 196.38 510.17 197.001 510.17 197.77C510.17 198.534 509.549 199.159 508.781 199.159Z" fill="#3DD8E1"/>
<path d="M550.55 168.849H448.8C445.67 168.849 443.131 166.31 443.131 163.18V140.812C443.131 137.682 445.67 135.143 448.8 135.143H550.55C553.68 135.143 556.219 137.682 556.219 140.812V163.18C556.223 166.31 553.684 168.849 550.55 168.849Z" fill="#9EEBF0"/>
<path d="M459.882 161.983C465.375 161.983 469.827 157.531 469.827 152.038C469.827 146.546 465.375 142.094 459.882 142.094C454.39 142.094 449.938 146.546 449.938 152.038C449.938 157.531 454.39 161.983 459.882 161.983Z" fill="#0A9BA3"/>
<path d="M537.394 146.262H480.714C479.945 146.262 479.324 145.642 479.324 144.873C479.324 144.104 479.945 143.484 480.714 143.484H537.394C538.163 143.484 538.784 144.104 538.784 144.873C538.784 145.638 538.163 146.262 537.394 146.262Z" fill="#07676D"/>
<path d="M537.394 152.127H480.714C479.945 152.127 479.324 151.506 479.324 150.738C479.324 149.969 479.945 149.348 480.714 149.348H537.394C538.163 149.348 538.784 149.969 538.784 150.738C538.784 151.503 538.163 152.127 537.394 152.127Z" fill="#3DD8E1"/>
<path d="M508.781 157.992H480.718C479.949 157.992 479.328 157.371 479.328 156.602C479.328 155.834 479.949 155.213 480.718 155.213H508.781C509.549 155.213 510.17 155.834 510.17 156.602C510.17 157.367 509.549 157.992 508.781 157.992Z" fill="#3DD8E1"/>
<path d="M352.984 62.2984H281.891C278.883 62.2984 276.444 59.8595 276.444 56.8514V45.414C276.444 42.4059 278.883 39.9669 281.891 39.9669H352.984C355.992 39.9669 358.431 42.4059 358.431 45.414V56.8551C358.428 59.8595 355.992 62.2984 352.984 62.2984Z" stroke="#CCF8FB" stroke-width="2.21726" stroke-miterlimit="10"/>
<path d="M450.574 62.2984H379.481C376.473 62.2984 374.034 59.8595 374.034 56.8514V45.414C374.034 42.4059 376.473 39.9669 379.481 39.9669H450.574C453.582 39.9669 456.021 42.4059 456.021 45.414V56.8551C456.021 59.8595 453.582 62.2984 450.574 62.2984Z" stroke="#CCF8FB" stroke-width="2.21726" stroke-miterlimit="10"/>
<path d="M548.166 62.2984H477.074C474.065 62.2984 471.626 59.8595 471.626 56.8514V45.414C471.626 42.4059 474.065 39.9669 477.074 39.9669H548.166C551.174 39.9669 553.613 42.4059 553.613 45.414V56.8551C553.613 59.8595 551.174 62.2984 548.166 62.2984Z" stroke="#CCF8FB" stroke-width="2.21726" stroke-miterlimit="10"/>
<path d="M312.475 86.7327H279.364V119.844H312.475V86.7327Z" fill="#FFE8C5"/>
<path d="M355.579 86.7327H322.468V119.844H355.579V86.7327Z" fill="#FFE8C5"/>
<path d="M398.682 86.7327H365.571V119.844H398.682V86.7327Z" fill="#FFE8C5"/>
<path d="M150.855 87.7305C150.519 87.7305 150.201 87.579 149.991 87.3129L142.193 77.5643H128.49C127.877 77.5643 127.382 77.0691 127.382 76.4557V45.9609C127.382 45.3475 127.877 44.8523 128.49 44.8523H173.213C173.826 44.8523 174.321 45.3475 174.321 45.9609V76.4557C174.321 77.0691 173.826 77.5643 173.213 77.5643H159.514L151.716 87.3129C151.509 87.579 151.192 87.7305 150.855 87.7305ZM129.599 75.3471H142.722C143.058 75.3471 143.376 75.4986 143.586 75.7646L150.852 84.848L158.117 75.7646C158.327 75.5023 158.645 75.3471 158.982 75.3471H172.104V47.0696H129.599V75.3471Z" fill="#0DCEDA"/>
<path d="M161.018 57.2357H140.689C140.076 57.2357 139.581 56.7405 139.581 56.1271C139.581 55.5136 140.076 55.0184 140.689 55.0184H161.018C161.631 55.0184 162.126 55.5136 162.126 56.1271C162.126 56.7405 161.631 57.2357 161.018 57.2357Z" fill="#0DCEDA"/>
<path d="M152.888 67.4018H140.689C140.076 67.4018 139.581 66.9067 139.581 66.2932C139.581 65.6798 140.076 65.1846 140.689 65.1846H152.888C153.501 65.1846 153.996 65.6798 153.996 66.2932C153.996 66.9067 153.498 67.4018 152.888 67.4018Z" fill="#0DCEDA"/>
<path d="M651.819 96.788C651.483 96.788 651.165 96.6365 650.955 96.3704L643.157 86.6218H629.458C628.845 86.6218 628.35 86.1266 628.35 85.5132V55.0185C628.35 54.405 628.845 53.9098 629.458 53.9098H674.18C674.794 53.9098 675.289 54.405 675.289 55.0185V85.5132C675.289 86.1266 674.794 86.6218 674.18 86.6218H660.481L652.684 96.3704C652.477 96.6328 652.156 96.788 651.819 96.788ZM630.567 84.4046H643.689C644.026 84.4046 644.343 84.5561 644.554 84.8222L651.819 93.9055L659.085 84.8222C659.295 84.5598 659.613 84.4046 659.949 84.4046H673.072V56.1271H630.567V84.4046Z" fill="#0DCEDA"/>
<path d="M661.986 66.2932H641.657C641.044 66.2932 640.549 65.798 640.549 65.1846C640.549 64.5711 641.044 64.076 641.657 64.076H661.986C662.6 64.076 663.095 64.5711 663.095 65.1846C663.095 65.798 662.6 66.2932 661.986 66.2932Z" fill="#45E5C2"/>
<path d="M653.852 76.4557H641.654C641.04 76.4557 640.545 75.9605 640.545 75.347C640.545 74.7336 641.04 74.2384 641.654 74.2384H653.852C654.466 74.2384 654.961 74.7336 654.961 75.347C654.961 75.9605 654.466 76.4557 653.852 76.4557Z" fill="#45E5C2"/>
<path d="M86.8569 97.8966C86.5206 97.8966 86.2028 97.7451 85.9922 97.479L78.1948 87.7305H64.4958C63.8824 87.7305 63.3872 87.2353 63.3872 86.6218V56.1271C63.3872 55.5136 63.8824 55.0185 64.4958 55.0185H109.218C109.831 55.0185 110.327 55.5136 110.327 56.1271V86.6218C110.327 87.2353 109.831 87.7305 109.218 87.7305H95.519L87.7217 97.479C87.511 97.7414 87.1932 97.8966 86.8569 97.8966ZM65.6045 85.5132H78.727C79.0633 85.5132 79.3811 85.6647 79.5917 85.9308L86.8569 95.0142L94.1222 85.9308C94.3328 85.6684 94.6506 85.5132 94.9869 85.5132H108.109V57.2357H65.6045V85.5132Z" fill="#0DCEDA"/>
<path d="M86.7279 72.8489L86.6872 72.3205C86.5653 71.2229 86.9311 70.0256 87.9474 68.8061C88.8602 67.7308 89.3701 66.9362 89.3701 66.0235C89.3701 64.9887 88.7197 64.2977 87.4411 64.2755C86.7094 64.2755 85.8964 64.5194 85.3901 64.9074L84.9023 63.6288C85.5712 63.141 86.7316 62.8158 87.807 62.8158C90.1425 62.8158 91.1994 64.257 91.1994 65.8017C91.1994 67.1838 90.427 68.1779 89.4514 69.3383C88.5571 70.3952 88.2319 71.2895 88.2948 72.3242L88.3169 72.8526H86.7279V72.8489ZM86.2807 75.6907C86.2807 74.9405 86.787 74.4121 87.5002 74.4121C88.2135 74.4121 88.6976 74.9405 88.6976 75.6907C88.6976 76.4002 88.2319 76.9509 87.4781 76.9509C86.7685 76.9509 86.2807 76.4039 86.2807 75.6907Z" fill="#0DCEDA"/>
</svg>
