<svg width="660" height="357" viewBox="0 0 660 357" fill="none" xmlns="http://www.w3.org/2000/svg">
<path d="M638.135 131.706L659.289 125.103L652.699 103.909L631.546 110.511L638.135 131.706Z" fill="#64A7F4"/>
<path d="M3.28027 155.228L16.0293 175.548L33.6321 165.563L20.8831 145.243L3.28027 155.228Z" fill="#EAE6FA"/>
<path d="M249.056 33.4152L262.643 37.9562L268.427 23.1334L254.84 18.5924L249.056 33.4152Z" fill="#FF7D7D"/>
<path d="M494.272 357L503.707 339.077L483.471 339.847L494.272 357Z" fill="#FFBFBE"/>
<path d="M440.564 45.7265L439.582 44.9137C441.589 42.5183 444.321 42.7322 446.669 42.9033C448.932 43.0744 451.066 43.2455 452.689 41.3634C454.311 39.4813 453.799 37.3853 453.244 35.161C452.689 32.8512 452.048 30.1991 454.098 27.8037C456.104 25.4083 458.837 25.6222 461.185 25.7933C463.447 25.9644 465.582 26.1355 467.204 24.2534C468.827 22.3713 468.314 20.2753 467.759 18.0511C467.204 15.7412 466.564 13.0892 468.613 10.6938C470.62 8.29836 473.352 8.51223 475.7 8.68333C477.963 8.85443 480.098 9.02553 481.72 7.14343L482.702 7.95616C480.695 10.3516 477.963 10.1377 475.615 9.96658C473.352 9.79548 471.218 9.62438 469.595 11.5065C467.973 13.3886 468.485 15.4846 469.04 17.7089C469.595 20.0187 470.236 22.6707 468.186 25.0661C466.18 27.4615 463.447 27.2477 461.099 27.0766C458.837 26.9055 456.702 26.7344 455.08 28.6165C453.457 30.4986 453.97 32.5945 454.525 34.8188C455.08 37.1287 455.72 39.7807 453.671 42.1761C451.664 44.5715 448.932 44.3577 446.584 44.1866C444.321 43.9727 442.186 43.8016 440.564 45.7265Z" fill="#FFB5A9"/>
<path d="M183.68 39.7807C181.119 37.9842 181.076 35.2466 181.076 32.894C181.033 30.6269 181.033 28.4454 178.984 27.0338C176.978 25.5794 174.928 26.2638 172.751 26.991C170.488 27.761 167.927 28.6165 165.365 26.7771C162.803 24.9806 162.761 22.243 162.761 19.8904C162.718 17.6233 162.718 15.4418 160.669 14.0302C158.662 12.5758 156.613 13.2602 154.436 13.9874C152.173 14.7574 149.611 15.6129 147.05 13.7735C144.488 11.977 144.445 9.2394 144.445 6.88677C144.403 4.6197 144.403 2.43817 142.354 1.0266L143.079 0C145.641 1.79655 145.684 4.53415 145.684 6.88677C145.726 9.15384 145.726 11.3354 147.776 12.7469C149.782 14.2013 151.831 13.5169 154.009 12.7897C156.271 12.0198 158.833 11.1643 161.395 13.0036C163.956 14.8001 163.999 17.5377 163.999 19.8904C164.042 22.1574 164.042 24.339 166.091 25.7505C168.14 27.1621 170.147 26.5205 172.324 25.7933C174.587 25.0234 177.148 24.1679 179.71 26.0072C182.272 27.8037 182.314 30.5413 182.314 32.894C182.357 35.161 182.357 37.3426 184.406 38.7541L183.68 39.7807Z" fill="#64A7F4"/>
<path d="M659.11 298.655C656.249 297.372 655.737 294.72 655.225 292.367C654.755 290.143 654.328 288.004 652.065 286.977C649.803 285.951 647.924 287.02 645.96 288.132C643.868 289.287 641.52 290.613 638.703 289.33C635.842 288.047 635.33 285.395 634.817 283.042C634.348 280.818 633.921 278.679 631.658 277.652C629.395 276.626 627.517 277.695 625.553 278.807C623.461 279.962 621.113 281.288 618.295 280.005C615.435 278.722 614.923 276.07 614.41 273.717C613.941 271.493 613.514 269.354 611.251 268.328L611.763 267.173C614.624 268.456 615.136 271.108 615.648 273.461C616.118 275.685 616.545 277.824 618.808 278.85C621.07 279.877 622.949 278.807 624.913 277.695C627.005 276.54 629.353 275.214 632.17 276.498C635.031 277.781 635.543 280.433 636.056 282.785C636.525 285.01 636.952 287.149 639.215 288.175C641.478 289.202 643.356 288.132 645.32 287.02C647.412 285.865 649.76 284.539 652.578 285.822C655.438 287.106 655.95 289.758 656.463 292.11C656.932 294.335 657.359 296.473 659.622 297.5L659.11 298.655Z" fill="#64A7F4"/>
<path d="M355.861 30.8835H328.409V3.37921H355.861V30.8835ZM330.544 28.7448H353.726V5.51796H330.544V28.7448Z" fill="#0DCEDA"/>
<path d="M343.48 19.8904L354.666 47.7796L359.576 35.9737L371.316 31.0974L343.48 19.8904Z" fill="#FAD5B1"/>
<path d="M64.8226 225.253L44.458 214.474L45.3119 237.53L64.8226 225.253Z" fill="#FAD5B1"/>
</svg>
