<svg width="718" height="584" viewBox="0 0 718 584" fill="none" xmlns="http://www.w3.org/2000/svg">
<g clip-path="url(#clip0)">
<path d="M670.474 361.988H81.541C74.6146 361.988 69 356.374 69 349.447V85.541C69 78.6146 74.6146 73 81.541 73H670.474C677.4 73 683.015 78.6146 683.015 85.541V349.447C683.015 356.374 677.4 361.988 670.474 361.988Z" fill="#C6FDE5" fill-opacity="0.22"/>
<path d="M489.943 315.683H268.351C263.691 315.683 259.913 311.905 259.913 307.245V124.776C259.913 120.117 263.691 116.339 268.351 116.339H489.943C494.603 116.339 498.381 120.117 498.381 124.776V307.249C498.381 311.905 494.603 315.683 489.943 315.683Z" fill="white"/>
<path d="M489.943 316.557H268.351C263.216 316.557 259.039 312.381 259.039 307.245V124.777C259.039 119.641 263.216 115.464 268.351 115.464H489.943C495.079 115.464 499.256 119.641 499.256 124.777V307.249C499.256 312.381 495.079 316.557 489.943 316.557ZM268.351 117.214C264.181 117.214 260.788 120.607 260.788 124.777V307.249C260.788 311.419 264.181 314.812 268.351 314.812H489.943C494.113 314.812 497.507 311.419 497.507 307.249V124.777C497.507 120.607 494.113 117.214 489.943 117.214H268.351Z" fill="#0DCEDA"/>
<path d="M278.16 143.436C283.241 143.436 287.36 139.317 287.36 134.235C287.36 129.154 283.241 125.035 278.16 125.035C273.079 125.035 268.959 129.154 268.959 134.235C268.959 139.317 273.079 143.436 278.16 143.436Z" fill="#0DCEDA"/>
<path d="M272.892 302.054C275.065 302.054 276.827 300.292 276.827 298.118C276.827 295.945 275.065 294.183 272.892 294.183C270.718 294.183 268.956 295.945 268.956 298.118C268.956 300.292 270.718 302.054 272.892 302.054Z" fill="#0DCEDA"/>
<path d="M285.733 302.054C287.907 302.054 289.669 300.292 289.669 298.118C289.669 295.945 287.907 294.183 285.733 294.183C283.56 294.183 281.798 295.945 281.798 298.118C281.798 300.292 283.56 302.054 285.733 302.054Z" fill="#0DCEDA"/>
<path d="M298.576 302.054C300.749 302.054 302.511 300.292 302.511 298.118C302.511 295.945 300.749 294.183 298.576 294.183C296.402 294.183 294.64 295.945 294.64 298.118C294.64 300.292 296.402 302.054 298.576 302.054Z" fill="#0DCEDA"/>
<path d="M484.437 302.054C486.61 302.054 488.372 300.292 488.372 298.118C488.372 295.945 486.61 294.183 484.437 294.183C482.263 294.183 480.501 295.945 480.501 298.118C480.501 300.292 482.263 302.054 484.437 302.054Z" fill="#0DCEDA"/>
<path d="M358.104 137.181H298.278C297.55 137.181 296.962 136.593 296.962 135.866V132.602C296.962 131.874 297.55 131.287 298.278 131.287H358.1C358.828 131.287 359.415 131.874 359.415 132.602V135.866C359.419 136.593 358.828 137.181 358.104 137.181Z" fill="#0DCEDA"/>
<path d="M497.506 177.284H260.788V281.226H497.506V177.284Z" fill="#9EEBF0"/>
<path d="M488.373 149.907H268.956V154.193H488.373V149.907Z" fill="#9EEBF0"/>
<path d="M358.527 158.866H268.956V163.151H358.527V158.866Z" fill="#9EEBF0"/>
<path d="M132.688 278.483C132.688 278.483 132.974 281.124 135.234 282.443C137.494 283.762 140.461 283.062 140.461 283.062L166.469 271.627C166.469 271.627 167.942 269.402 168.313 267.041C168.687 264.679 156.517 247.122 156.517 247.122L143.217 248.651L133.643 258.96L129.917 265.806L132.688 278.483Z" fill="#443777"/>
<path d="M166.466 271.291C166.466 282.412 159.645 291.426 151.224 291.426C144.648 291.426 139.044 285.924 136.906 278.217C136.536 276.867 136.266 275.447 136.123 273.977C136.175 273.925 136.581 273.467 137.186 272.715C139.754 269.507 145.83 260.926 142.112 255.553C142.783 256.357 145.571 258.974 153.88 259.341C158.896 259.561 162.73 261.601 165.382 263.836C166.085 266.142 166.466 268.657 166.466 271.291Z" fill="#FFD3CA"/>
<path d="M169.608 269.367C169.24 268.31 167.859 265.977 165.445 263.833C162.947 261.597 159.337 259.558 154.611 259.337C146.782 258.97 144.158 256.354 143.525 255.549C147.027 260.926 141.304 269.503 138.887 272.711C138.316 273.463 137.935 273.921 137.883 273.974C137.879 273.977 137.879 273.977 137.879 273.977C137.879 273.977 137.005 271.368 134.091 271.637C133.108 271.732 132.499 272.235 132.121 272.872C132.086 272.942 132.051 273.005 132.02 273.068C131.897 273.313 131.803 273.568 131.74 273.823C131.715 273.911 131.694 274.002 131.677 274.089C131.663 274.149 131.649 274.201 131.642 274.261C131.621 274.369 131.607 274.478 131.593 274.586C131.572 274.74 131.558 274.89 131.554 275.048C131.554 275.083 131.551 275.111 131.551 275.142C131.551 275.181 131.547 275.219 131.547 275.261V275.335C131.544 275.639 131.561 275.831 131.561 275.831C115.627 259.428 133.059 248.091 133.059 248.091C134.185 241.812 148.619 232.157 163.143 242.091C177.671 252.03 169.608 269.367 169.608 269.367Z" fill="#443777"/>
<path d="M153.82 277.168H138.621V301.753H153.82V277.168Z" fill="#FFD3CA"/>
<path d="M150.431 273.092C151.358 273.092 152.11 272.113 152.11 270.906C152.11 269.698 151.358 268.72 150.431 268.72C149.503 268.72 148.751 269.698 148.751 270.906C148.751 272.113 149.503 273.092 150.431 273.092Z" fill="#B55445"/>
<path d="M191.002 326.964L196.393 332.463C196.729 332.806 197.285 332.803 197.614 332.453C200.842 329.032 216.133 313.069 220.8 312.331C226.026 311.506 239.224 313.43 243.625 312.331C245.822 311.782 247.571 311.268 248.775 310.89C249.401 310.694 249.908 311.411 249.516 311.94C247.676 314.43 243.674 318.869 238.262 319.296C230.699 319.894 225.477 317.19 221.349 322.599C217.224 328.007 203.337 348.219 198.25 351.105C193.164 353.991 176.708 337.231 176.708 337.231L181.2 328.969L191.002 326.964Z" fill="#FFD3CA"/>
<path d="M162.835 273.316C163.762 273.316 164.514 272.337 164.514 271.13C164.514 269.922 163.762 268.943 162.835 268.943C161.908 268.943 161.156 269.922 161.156 271.13C161.156 272.337 161.908 273.316 162.835 273.316Z" fill="#B55445"/>
<path d="M146.925 266.131C146.883 266.131 146.841 266.124 146.799 266.106C146.632 266.037 146.551 265.844 146.618 265.676C146.639 265.624 147.17 264.357 148.454 263.952C149.367 263.661 150.406 263.885 151.539 264.613C151.693 264.711 151.739 264.917 151.641 265.071C151.543 265.225 151.337 265.27 151.183 265.172C150.224 264.557 149.374 264.357 148.66 264.585C147.674 264.893 147.237 265.921 147.233 265.932C147.181 266.054 147.055 266.131 146.925 266.131Z" fill="#B55445"/>
<path d="M160.173 265.309C160.131 265.309 160.089 265.302 160.047 265.284C159.879 265.215 159.799 265.022 159.869 264.854C159.89 264.802 160.421 263.542 161.565 263.196C162.244 262.99 162.975 263.147 163.738 263.661C163.888 263.763 163.93 263.969 163.828 264.12C163.727 264.27 163.521 264.312 163.37 264.211C162.779 263.815 162.24 263.686 161.761 263.829C160.918 264.081 160.488 265.096 160.484 265.106C160.428 265.232 160.306 265.309 160.173 265.309Z" fill="#B55445"/>
<path d="M159.019 278.616C158.714 278.616 158.441 278.406 158.371 278.098C158.291 277.741 158.515 277.388 158.872 277.308C159.669 277.129 160.012 276.688 160.114 276.426C159.648 276.199 158.945 275.226 157.77 271.084C157.668 270.731 157.875 270.367 158.228 270.266C158.581 270.164 158.945 270.371 159.047 270.724C159.564 272.547 160.323 274.694 160.698 275.195C161.107 275.286 161.411 275.635 161.467 276.104C161.558 276.905 160.908 278.207 159.162 278.602C159.117 278.612 159.068 278.616 159.019 278.616Z" fill="#E2765A"/>
<path d="M155.982 284.937C155.975 284.937 155.972 284.937 155.965 284.937C150.49 284.808 148.968 282.282 148.905 282.177C148.723 281.859 148.832 281.457 149.147 281.271C149.462 281.089 149.864 281.194 150.046 281.505C150.077 281.554 151.372 283.506 155.996 283.615C156.364 283.622 156.65 283.926 156.643 284.294C156.636 284.65 156.339 284.937 155.982 284.937Z" fill="#E2765A"/>
<path d="M138.62 278.217C137.889 279.225 136.784 279.865 135.549 279.865C133.352 279.865 131.575 277.846 131.54 275.338V275.265C131.54 275.226 131.544 275.188 131.544 275.146C131.544 275.118 131.547 275.086 131.547 275.051C131.551 274.894 131.568 274.74 131.586 274.59C131.6 274.481 131.614 274.373 131.634 274.264C131.638 274.205 131.655 274.152 131.669 274.093C131.69 274.005 131.708 273.914 131.732 273.827C131.806 273.561 131.904 273.313 132.012 273.071C132.047 273.008 132.082 272.942 132.114 272.875C132.492 272.242 133.1 271.735 134.083 271.641C136.997 271.371 137.872 273.981 137.872 273.981C137.872 273.981 137.872 273.981 137.875 273.977C138.019 275.447 138.274 276.867 138.62 278.217Z" fill="#FFD3CA"/>
<path d="M136.833 497.529C136.833 497.529 157.742 497.658 167.355 495.549C176.968 493.439 181.893 490.274 191.741 490.039C201.588 489.805 221.227 471.32 222.721 467.609C224.214 463.897 167.355 460.371 167.355 460.371L139.803 475.473L136.833 497.529Z" fill="#CE4C24"/>
<path d="M176.506 484.792C176.506 484.792 175.561 502.507 175.022 507.173C174.484 511.843 164.108 562.336 166.602 567.342H155.093L150.962 516.51C150.962 516.51 157.857 477.736 158.27 476.743C158.682 475.749 176.506 484.792 176.506 484.792Z" fill="#E2B2AA"/>
<path d="M138.921 495.272C138.921 495.272 140.747 520.61 142.364 528.893C143.98 537.174 145.928 567.342 145.928 567.342H157.01C157.01 567.342 155.254 563.791 157.01 545.457C158.767 527.12 162.622 489.56 160.991 481.573C159.361 473.587 149.493 473.587 149.493 473.587L138.921 495.272Z" fill="#FFD3CA"/>
<path d="M132.75 382.606C132.75 382.606 116.271 412.957 117.47 427.051C118.67 441.145 132.695 467.836 134.08 476.533C135.465 485.229 136.836 497.525 136.836 497.525C136.836 497.525 162.268 487.031 175.407 485.53C188.546 484.029 222.133 473.836 223.032 466.636C223.931 459.437 205.639 436.048 196.34 429.451C187.042 422.853 167.55 389.256 167.599 383.477C167.648 377.698 157.098 376.373 157.098 376.373H131.998L132.75 382.606Z" fill="url(#paint0_linear)"/>
<path d="M155.618 567.342H166.7C166.7 567.342 177.328 575.395 183.296 575.395C189.264 575.395 195.795 580.618 195.795 582.297C195.795 583.976 155.618 582.297 155.618 582.297V567.342Z" fill="#3A1318"/>
<path d="M145.928 567.342H157.01C157.01 567.342 167.638 575.395 173.606 575.395C179.574 575.395 186.105 580.618 186.105 582.297C186.105 583.976 145.928 582.297 145.928 582.297V567.342Z" fill="#593235"/>
<path d="M131.586 284.475C131.586 284.475 108.491 286.595 103.688 310.481C98.8847 334.366 105.223 331.232 105.244 343.455C105.244 343.455 109.138 342.265 110.74 332.537C111.667 326.915 117.862 316.998 123.795 310.621C129.728 304.244 135.315 293.574 135.08 286.252C134.846 278.927 131.586 284.475 131.586 284.475Z" fill="#443777"/>
<path d="M157.469 387.973L143.665 388.05C132.037 388.05 130.179 382.11 130.005 374.715C130.001 374.498 129.987 374.281 129.963 374.064C132.149 360.799 126.923 335.419 122.546 311.422C122.546 301.942 130.232 294.26 139.708 294.26H150.976C164.469 294.26 175.404 305.195 175.404 318.688C171.713 341.146 168.373 362.996 171.133 374.309C171.133 381.858 169.205 387.973 157.469 387.973Z" fill="#F0657D"/>
<path d="M130.197 323.882L125.289 336.409C125.037 336.416 124.782 336.409 124.53 336.392C118.656 336.14 113.56 331.897 111.611 330.046C111.062 329.525 110.761 329.196 110.761 329.196C110.761 329.196 120.934 308.791 125.66 301.571L130.197 323.882Z" fill="#F0657D"/>
<path d="M169.877 303.212C175.715 309.809 191.006 326.964 191.006 326.964C191.006 326.964 186.43 334.804 175.407 337.599C164.384 340.394 166.245 319.482 167.099 318.995C167.953 318.502 169.877 303.212 169.877 303.212Z" fill="#F0657D"/>
<path d="M141.611 307.416L163.58 308.232L171.58 341.118H150.021L141.611 307.416Z" fill="#4D4D4D"/>
<path d="M182.568 297.363L163.482 308.27L171.58 341.118L190.751 331.117L182.568 297.363Z" fill="#4D4D4D"/>
<path d="M167.642 341.118C165.05 342.356 149.549 341.566 147.741 341.489C145.925 341.412 126.678 353.19 117.467 357.57C108.26 361.95 106.217 359.078 104.71 355.307C103.202 351.529 111.611 330.043 111.611 330.043C113.563 331.897 118.66 336.137 124.53 336.388V336.395L122.746 341.202C122.669 341.408 122.876 341.611 123.078 341.531L145.981 332.701C145.981 332.701 160.012 323.396 164.892 323.704C169.776 324.008 170.241 339.876 167.642 341.118Z" fill="#FFD3CA"/>
<path d="M137.794 286.224C138.517 284.973 137.749 283.177 136.079 282.212C134.409 281.248 132.47 281.481 131.748 282.733C131.025 283.984 131.793 285.78 133.463 286.745C135.132 287.709 137.072 287.476 137.794 286.224Z" fill="#4D4D4D"/>
<path d="M145.404 289.096C145.404 289.096 148.958 292.395 153.82 291.283V293.948C153.82 293.948 147.964 293.777 145.404 289.096Z" fill="#E2765A"/>
<path d="M147.506 277.867C149.635 277.867 151.361 276.957 151.361 275.835C151.361 274.712 149.635 273.803 147.506 273.803C145.377 273.803 143.651 274.712 143.651 275.835C143.651 276.957 145.377 277.867 147.506 277.867Z" fill="#FF8483"/>
<path d="M164.538 279.067C166.177 279.067 167.505 278.237 167.505 277.213C167.505 276.189 166.177 275.359 164.538 275.359C162.9 275.359 161.572 276.189 161.572 277.213C161.572 278.237 162.9 279.067 164.538 279.067Z" fill="#FF8483"/>
<path d="M140.667 270.161C139.789 271.906 138.533 275.517 139.278 277.087C139.278 277.087 138.246 276.412 137.879 273.981C137.512 271.55 139.082 269.549 139.082 269.549L140.667 270.161Z" fill="#443777"/>
<path d="M133.692 278.049C133.594 278.049 133.499 278.007 133.433 277.927C133.374 277.85 131.95 276.059 132.866 274.009C133.153 273.365 133.58 272.935 134.133 272.736C135.049 272.403 135.966 272.841 136.004 272.858C136.169 272.938 136.239 273.138 136.158 273.302C136.078 273.467 135.882 273.533 135.717 273.456C135.7 273.446 135 273.124 134.357 273.362C133.982 273.498 133.685 273.81 133.471 274.282C132.719 275.964 133.937 277.5 133.947 277.514C134.063 277.658 134.042 277.864 133.898 277.979C133.839 278.025 133.765 278.049 133.692 278.049Z" fill="#B55445"/>
<path d="M138.621 294.326C138.621 294.326 145.946 301.33 153.82 294.428L147.506 293.154C147.506 293.154 141.982 293.273 141.748 293.154C141.514 293.035 138.621 294.326 138.621 294.326Z" fill="#FFD3CA"/>
<path d="M143.109 307.417V306.122C143.109 305.825 143.354 305.59 143.647 305.597L162.835 306.066L180.165 296.415C180.364 296.303 180.616 296.373 180.732 296.569L181.54 297.947L163.486 308.267L143.109 307.417Z" fill="white"/>
<path d="M169.237 302.649L169.17 302.575C167.127 300.315 164.784 298.475 162.202 297.104C162.143 297.072 162.118 296.996 162.15 296.936C162.181 296.877 162.258 296.852 162.317 296.884C164.896 298.255 167.239 300.088 169.286 302.334L180.102 296.31C180.358 296.166 180.686 296.257 180.833 296.509L181.641 297.888C181.676 297.947 181.655 298.024 181.596 298.059C181.536 298.094 181.459 298.073 181.425 298.013L180.616 296.635C180.536 296.499 180.358 296.45 180.218 296.527L169.237 302.649Z" fill="#B55445"/>
<path d="M584.166 362.919C584.166 362.919 580.147 537.761 572.202 561.587H551.874C551.874 561.587 551.574 494.597 551.874 485.964C552.175 477.33 547.824 412.065 547.824 412.065L522.479 561.587L500.035 559.17C500.035 559.17 515.616 407.318 527.852 368.425L547.824 348.181L584.166 362.919Z" fill="#003343"/>
<path d="M532.999 228.623C532.999 238.422 539.282 246.366 547.03 246.366C554.779 246.366 561.061 238.422 561.061 228.623C561.061 218.825 549.517 206.358 541.765 206.358C534.02 206.354 532.999 218.825 532.999 228.623Z" fill="#FDD8D0"/>
<path d="M561.064 231.905L561.981 250.809C561.981 250.809 556.751 256.441 541.772 254.43L545.893 229.795L561.064 231.905Z" fill="#FDD8D0"/>
<path d="M517.348 270.497C517.348 270.497 504.523 318.485 508.665 329.882C512.807 341.279 531.109 356.419 531.109 356.419L547.82 329.193L542.097 286.375L517.348 270.497Z" fill="#0A9BA3"/>
<path d="M561.981 212.291C561.981 212.291 566.592 212.913 567.799 214.41C567.799 214.41 564.724 213.246 563.104 213.35L566.007 216.118C566.592 216.674 566.837 217.496 566.651 218.283L561.981 238.216L560.337 239.209C558.581 240.269 556.363 240.178 554.712 238.964C551.375 236.505 546.19 232.311 545.893 229.792C545.452 226.063 544.833 222.225 538.991 221.169C533.149 220.112 525.834 210.545 528.367 203.507C528.367 203.507 533.502 205.273 536.812 205.476C539.953 205.668 547.033 197.171 557.99 201.887C564.139 204.539 561.981 212.291 561.981 212.291Z" fill="#003343"/>
<path d="M573.942 389.11H618.96C623.997 389.11 628.562 385.02 629.125 379.983L633.022 345.855C633.6 340.817 629.972 336.728 624.935 336.728H602.85C606.545 352.284 611.155 371.759 611.155 371.759C607.846 374.561 604.061 375.928 599.87 376.107C599.87 376.107 588.809 358.959 580.665 336.728H579.92C579.808 336.728 579.707 336.728 579.591 336.738C574.676 336.906 570.303 340.929 569.74 345.855L567.414 366.312L565.854 379.983C565.277 385.02 568.894 389.11 573.942 389.11Z" fill="#F15A24"/>
<path d="M577.919 389.11H622.937C627.974 389.11 632.539 385.02 633.102 379.983L636.999 345.855C637.577 340.817 633.949 336.728 628.912 336.728H595.109C598.803 352.284 608.052 371.759 608.052 371.759C604.743 374.561 608.038 375.928 603.847 376.107C603.847 376.107 592.786 358.959 584.642 336.728H583.897C583.785 336.728 583.684 336.728 583.568 336.738C578.653 336.906 574.28 340.929 573.717 345.855L571.391 366.312L569.831 379.983C569.254 385.02 572.871 389.11 577.919 389.11Z" fill="#FFBE5C"/>
<path d="M580.664 336.728C588.808 358.959 599.869 376.107 599.869 376.107C604.06 375.925 607.845 374.561 611.154 371.759C611.154 371.759 606.544 352.284 602.85 336.728H580.664Z" fill="#291716"/>
<path d="M611.148 371.755C611.148 371.755 614.776 388.812 613.496 392.758C612.215 396.704 603.365 395.959 599.524 394.679C595.683 393.398 599.895 382.613 599.87 376.114C599.846 369.614 604.537 368.547 604.537 368.547L611.148 371.755Z" fill="#FFD3CA"/>
<path d="M517.243 281.383C517.649 284.094 527.073 317.929 527.849 322.798C528.619 327.668 527.849 368.425 527.849 368.425C542.468 369.926 557.017 368.222 567.41 366.312L569.736 345.855C570.3 340.929 574.672 336.906 579.587 336.738L579.101 332.289C579.608 333.789 580.13 335.273 580.661 336.728C588.805 358.959 599.866 376.107 599.866 376.107C604.057 375.925 607.842 374.561 611.151 371.759C611.151 371.759 606.541 352.284 602.847 336.728C600.566 327.115 598.621 319.003 598.327 317.929C597.558 315.106 596.032 287.271 590.544 272.561C585.041 257.84 561.974 250.816 561.974 250.816C551.399 257.844 541.765 254.43 541.765 254.43C532.197 256.431 520.062 265.897 518.243 268.212C516.442 270.528 516.847 278.672 517.243 281.383Z" fill="#0DCEDA"/>
<path d="M578.555 332.411L579.657 332.159C579.601 331.918 574.144 307.959 573.542 302.904L572.423 303.037C573.028 308.155 578.328 331.425 578.555 332.411Z" fill="#07676D"/>
<path d="M571.762 561.587C571.762 561.587 575.431 567.818 584.117 569.577C592.803 571.337 605.743 576.944 603.858 583.762L559.417 582.423L559.494 561.587H571.762Z" fill="#002123"/>
<path d="M518.005 561.105L519.366 572.673L521.626 578.543C522.291 580.268 521.017 582.122 519.17 582.122H500.196C498.132 582.122 496.869 579.851 497.964 578.099L501.347 572.673L502.522 559.436L518.005 561.105Z" fill="#002123"/>
<path d="M244.011 118.557H218.463C218.282 118.557 218.131 118.704 218.131 118.889V136.097C218.131 136.279 218.278 136.429 218.463 136.429H226.471L231.235 142.387L236 136.429H244.007C244.189 136.429 244.339 136.282 244.339 136.097V118.889C244.343 118.704 244.196 118.557 244.011 118.557Z" fill="url(#paint1_linear)"/>
<path d="M233.778 126.026H211.166V141.442H218.362L222.472 146.581L226.583 141.442H233.778V126.026Z" stroke="#0DCEDA" stroke-width="1.39927" stroke-miterlimit="10" stroke-linecap="round" stroke-linejoin="round"/>
<path d="M217.334 131.164H227.611" stroke="#45E5C2" stroke-width="1.39927" stroke-miterlimit="10" stroke-linecap="round" stroke-linejoin="round"/>
<path d="M217.334 136.303H223.501" stroke="#45E5C2" stroke-width="1.39927" stroke-miterlimit="10" stroke-linecap="round" stroke-linejoin="round"/>
<g style="mix-blend-mode:multiply">
<path d="M536.934 137.611C542.483 137.611 546.981 133.113 546.981 127.565C546.981 122.016 542.483 117.518 536.934 117.518C531.386 117.518 526.888 122.016 526.888 127.565C526.888 133.113 531.386 137.611 536.934 137.611Z" fill="url(#paint2_linear)"/>
</g>
<path d="M529.536 145.01C535.084 145.01 539.583 140.512 539.583 134.963C539.583 129.414 535.084 124.916 529.536 124.916C523.987 124.916 519.489 129.414 519.489 134.963C519.489 140.512 523.987 145.01 529.536 145.01Z" stroke="#0DCEDA" stroke-width="1.39927" stroke-miterlimit="10" stroke-linecap="round" stroke-linejoin="round"/>
<path d="M541.765 140.55C542.983 142.946 543.305 144.811 542.462 145.654C540.611 147.504 533.779 143.67 527.304 137.195C520.829 130.72 516.995 123.888 518.845 122.038C519.692 121.191 521.56 121.516 523.956 122.734" stroke="#45E5C2" stroke-width="1.39927" stroke-miterlimit="10" stroke-linecap="round" stroke-linejoin="round"/>
<path d="M236.807 159.737L226.953 162.644L217.099 159.737C216.77 159.639 216.441 159.888 216.441 160.227V180.562H237.461V160.227C237.465 159.888 237.136 159.639 236.807 159.737Z" fill="url(#paint3_linear)"/>
<path d="M221.962 170.054V184.386" stroke="#0DCEDA" stroke-width="1.39927" stroke-miterlimit="10" stroke-linecap="round" stroke-linejoin="round"/>
<path d="M211.453 167.189L221.961 170.054L232.473 167.189V181.521L221.961 184.386L211.453 181.521V167.189Z" stroke="#0DCEDA" stroke-width="1.39927" stroke-miterlimit="10" stroke-linecap="round" stroke-linejoin="round"/>
<path d="M211.453 185.341V187.251H232.473V185.341" stroke="#45E5C2" stroke-width="1.39927" stroke-miterlimit="10" stroke-linecap="round" stroke-linejoin="round"/>
<path d="M237.172 226.78H220.437C219.66 226.78 219.031 226.15 219.031 225.374V211.566C219.031 210.79 219.66 210.16 220.437 210.16H237.172C237.949 210.16 238.578 210.79 238.578 211.566V225.374C238.578 226.15 237.949 226.78 237.172 226.78Z" fill="url(#paint4_linear)"/>
<path d="M216.858 223.827H221.203" stroke="#45E5C2" stroke-width="1.39927" stroke-miterlimit="10" stroke-linecap="round" stroke-linejoin="round"/>
<path d="M216.858 229.256H227.717" stroke="#45E5C2" stroke-width="1.39927" stroke-miterlimit="10" stroke-linecap="round" stroke-linejoin="round"/>
<path d="M222.288 234.686V237.946" stroke="#0DCEDA" stroke-width="1.39927" stroke-miterlimit="10" stroke-linecap="round" stroke-linejoin="round"/>
<path d="M220.115 234.686L215.771 239.03" stroke="#0DCEDA" stroke-width="1.39927" stroke-miterlimit="10" stroke-linecap="round" stroke-linejoin="round"/>
<path d="M224.46 234.686L228.805 239.03" stroke="#0DCEDA" stroke-width="1.39927" stroke-miterlimit="10" stroke-linecap="round" stroke-linejoin="round"/>
<path d="M210.341 234.686H234.234" stroke="#0DCEDA" stroke-width="1.39927" stroke-miterlimit="10" stroke-linecap="round" stroke-linejoin="round"/>
<path d="M222.288 217.31V215.138" stroke="#0DCEDA" stroke-width="1.39927" stroke-miterlimit="10" stroke-linecap="round" stroke-linejoin="round"/>
<path d="M232.062 217.31H212.514V234.686" stroke="#0DCEDA" stroke-width="1.39927" stroke-miterlimit="10" stroke-linecap="round" stroke-linejoin="round"/>
<path d="M232.062 234.686V222.743" stroke="#0DCEDA" stroke-width="1.39927" stroke-miterlimit="10" stroke-linecap="round" stroke-linejoin="round"/>
<path d="M233.146 216.226L225.544 223.827" stroke="#45E5C2" stroke-width="1.39927" stroke-miterlimit="10" stroke-linecap="round" stroke-linejoin="round"/>
<path d="M443.571 424.35H429.421C428.578 424.35 427.872 423.825 427.781 423.129L425.185 403.451C425.077 402.64 425.843 401.93 426.826 401.93H446.164C447.147 401.93 447.909 402.64 447.804 403.451L445.209 423.129C445.118 423.821 444.411 424.35 443.571 424.35Z" fill="#9EEBF0"/>
<path d="M437.649 406.425C437.649 406.425 446.174 372.562 431.888 345.595" stroke="#9EEBF0" stroke-width="1.39927" stroke-miterlimit="10"/>
<path d="M436.001 339.011C436.001 339.011 436.351 341.481 435.403 344.007C434.455 346.533 432.566 348.163 432.566 348.163C432.566 348.163 432.216 345.693 433.164 343.167C434.112 340.642 436.001 339.011 436.001 339.011Z" fill="#9EEBF0"/>
<path d="M428.253 337C428.253 337 430.422 338.725 431.587 341.488C432.752 344.252 432.472 347.008 432.472 347.008C432.472 347.008 430.303 345.284 429.138 342.52C427.973 339.757 428.253 337 428.253 337Z" fill="#9EEBF0"/>
<path d="M423.884 342.468C423.884 342.468 426.378 342.464 428.75 343.751C431.121 345.042 432.472 347.138 432.472 347.138C432.472 347.138 429.977 347.141 427.606 345.854C425.237 344.563 423.884 342.468 423.884 342.468Z" fill="#9EEBF0"/>
<path d="M440.545 345.238C440.545 345.238 440.979 348.303 439.8 351.441C438.621 354.578 436.277 356.6 436.277 356.6C436.277 356.6 435.844 353.536 437.023 350.398C438.201 347.26 440.545 345.238 440.545 345.238Z" fill="#9EEBF0"/>
<path d="M425.507 349.527C425.507 349.527 428.603 349.52 431.545 351.122C434.49 352.724 436.166 355.324 436.166 355.324C436.166 355.324 433.07 355.331 430.128 353.728C427.186 352.13 425.507 349.527 425.507 349.527Z" fill="#9EEBF0"/>
<path d="M444.124 356.611C444.124 356.611 444.271 359.703 442.809 362.715C441.346 365.731 438.824 367.525 438.824 367.525C438.824 367.525 438.677 364.433 440.14 361.421C441.602 358.405 444.124 356.611 444.124 356.611Z" fill="#9EEBF0"/>
<path d="M428.753 359.486C428.753 359.486 431.835 359.766 434.62 361.634C437.401 363.502 438.831 366.248 438.831 366.248C438.831 366.248 435.75 365.968 432.965 364.1C430.18 362.232 428.753 359.486 428.753 359.486Z" fill="#9EEBF0"/>
<path d="M447.164 367.815C447.164 367.815 446.975 371.73 444.932 375.375C442.889 379.02 439.772 381.014 439.772 381.014C439.772 381.014 439.961 377.1 442.004 373.454C444.044 369.809 447.164 367.815 447.164 367.815Z" fill="#9EEBF0"/>
<path d="M429.093 369.799C429.093 369.799 432.615 370.485 435.61 373.136C438.604 375.788 439.93 379.405 439.93 379.405C439.93 379.405 436.407 378.719 433.413 376.068C430.418 373.416 429.093 369.799 429.093 369.799Z" fill="#9EEBF0"/>
<path d="M451.428 381.028C451.428 381.028 450.368 386.188 446.905 390.606C443.442 395.024 438.891 397.029 438.891 397.029C438.891 397.029 439.951 391.869 443.414 387.451C446.877 383.033 451.428 381.028 451.428 381.028Z" fill="#9EEBF0"/>
<path d="M427.028 379.937C427.028 379.937 431.565 381.57 434.99 385.709C438.415 389.847 439.433 394.919 439.433 394.919C439.433 394.919 434.896 393.286 431.471 389.147C428.046 385.009 427.028 379.937 427.028 379.937Z" fill="#9EEBF0"/>
<path d="M430.736 476.666H314.901V582.122H430.736V476.666Z" fill="#CAFEFF"/>
<path d="M376.011 476.666H371.348V582.122H376.011V476.666Z" fill="#9EEBF0"/>
<path d="M319.564 476.666H314.901V582.122H319.564V476.666Z" fill="#9EEBF0"/>
<path d="M430.737 476.666H426.073V582.122H430.737V476.666Z" fill="#9EEBF0"/>
<path d="M430.735 531.728V527.065H314.9V531.728H430.735Z" fill="#9EEBF0"/>
<path d="M430.737 481.33V476.667H314.901V481.33H430.737Z" fill="#9EEBF0"/>
<path d="M430.735 582.125V577.462H314.9V582.125H430.735Z" fill="#9EEBF0"/>
<path d="M395.527 500.478H391.137V527.067H395.527V500.478Z" fill="#9EEBF0"/>
<path d="M391.137 501.311L386.861 500.319L380.849 526.22L385.125 527.212L391.137 501.311Z" fill="#9EEBF0"/>
<path d="M401.419 500.478H397.029V527.067H401.419V500.478Z" fill="#9EEBF0"/>
<path d="M407.309 500.478H402.919V527.067H407.309V500.478Z" fill="#9EEBF0"/>
<path d="M413.2 500.478H408.81V527.067H413.2V500.478Z" fill="#9EEBF0"/>
<path d="M419.091 500.478H414.701V527.067H419.091V500.478Z" fill="#9EEBF0"/>
<path d="M424.982 500.478H420.592V527.067H424.982V500.478Z" fill="#9EEBF0"/>
<path d="M407.31 577.462C413.732 577.462 418.938 572.256 418.938 565.834C418.938 559.412 413.732 554.206 407.31 554.206C400.888 554.206 395.682 559.412 395.682 565.834C395.682 572.256 400.888 577.462 407.31 577.462Z" fill="#9EEBF0"/>
<path d="M337.262 527.064H327.712L338.668 505.97H348.218L337.262 527.064Z" fill="#0DCEDA"/>
<path d="M344.146 527.064H358.922L353.357 505.97H338.581L344.146 527.064Z" fill="#9EEBF0"/>
<path d="M280.647 439.053L269.32 582.381H262.072L273.427 438.675L280.647 439.053Z" fill="#9EEBF0"/>
<path d="M482.761 582.381H475.513L464.186 439.053L471.406 438.675L482.761 582.381Z" fill="#9EEBF0"/>
<path d="M490.664 448.61H254.166C249.975 448.61 246.575 445.213 246.575 441.019V431.273C246.575 427.082 249.971 423.682 254.166 423.682H490.664C494.855 423.682 498.255 427.079 498.255 431.273V441.019C498.255 445.213 494.858 448.61 490.664 448.61Z" fill="#9EEBF0"/>
</g>
<path d="M694.368 143.511L717.418 136.317L710.238 113.223L687.188 120.417L694.368 143.511Z" fill="#64A7F4"/>
<path d="M2.60798 169.666L15.7153 191.284L35.6805 179.88L22.5731 158.262L2.60798 169.666Z" fill="#EAE6FA"/>
<path d="M270.415 36.1033L285.453 41.3584L291.522 25.514L276.484 20.2589L270.415 36.1033Z" fill="#FF7D7D"/>
<path d="M537.61 389L547.891 369.471L525.841 370.31L537.61 389Z" fill="#FFBFBE"/>
<path d="M479.088 49.8252L478.018 48.9396C480.205 46.3295 483.182 46.5626 485.741 46.749C488.206 46.9354 490.532 47.1219 492.3 45.0711C494.068 43.0203 493.509 40.7364 492.905 38.3127C492.3 35.7959 491.602 32.9061 493.835 30.296C496.021 27.6859 498.999 27.9189 501.557 28.1053C504.023 28.2918 506.349 28.4782 508.117 26.4274C509.884 24.3766 509.326 22.0928 508.721 19.6691C508.117 17.1522 507.419 14.2624 509.652 11.6523C511.838 9.0422 514.815 9.27525 517.374 9.46168C519.84 9.64812 522.166 9.83455 523.933 7.78375L525.003 8.66933C522.817 11.2794 519.84 11.0464 517.281 10.86C514.815 10.6735 512.489 10.4871 510.722 12.5379C508.954 14.5887 509.512 16.8725 510.117 19.2962C510.722 21.8131 511.419 24.7029 509.187 27.313C507 29.9231 504.023 29.6901 501.464 29.5036C498.999 29.3172 496.673 29.1307 494.905 31.1815C493.137 33.2323 493.695 35.5162 494.3 37.9399C494.905 40.4568 495.603 43.3465 493.37 45.9566C491.183 48.5668 488.206 48.3337 485.648 48.1473C483.182 47.9142 480.856 47.7278 479.088 49.8252Z" fill="#FFB5A9"/>
<path d="M199.178 43.3465C196.387 41.3889 196.34 38.4059 196.34 35.8424C196.294 33.3722 196.294 30.9951 194.061 29.457C191.875 27.8723 189.642 28.618 187.269 29.4104C184.804 30.2493 182.012 31.1815 179.221 29.1773C176.43 27.2197 176.383 24.2368 176.383 21.6733C176.337 19.203 176.337 16.8259 174.104 15.2878C171.918 13.7031 169.685 14.4488 167.312 15.2412C164.847 16.0802 162.055 17.0123 159.264 15.0081C156.473 13.0506 156.426 10.0676 156.426 7.50407C156.38 5.03379 156.38 2.65672 154.147 1.11862L154.938 0C157.729 1.95758 157.776 4.94057 157.776 7.50407C157.822 9.97436 157.822 12.3514 160.055 13.8895C162.241 15.4742 164.474 14.7285 166.847 13.9361C169.312 13.0972 172.104 12.165 174.895 14.1692C177.686 16.1268 177.733 19.1097 177.733 21.6733C177.779 24.1435 177.779 26.5206 180.012 28.0587C182.245 29.5968 184.431 28.8977 186.804 28.1053C189.269 27.2664 192.061 26.3342 194.852 28.3384C197.643 30.2959 197.69 33.2789 197.69 35.8424C197.736 38.3127 197.736 40.6898 199.969 42.2279L199.178 43.3465Z" fill="#64A7F4"/>
<path d="M717.223 325.425C714.106 324.027 713.548 321.137 712.99 318.574C712.478 316.15 712.013 313.82 709.547 312.701C707.082 311.582 705.035 312.748 702.895 313.959C700.616 315.218 698.057 316.663 694.987 315.264C691.87 313.866 691.312 310.976 690.753 308.413C690.242 305.989 689.776 303.659 687.311 302.54C684.845 301.421 682.798 302.587 680.659 303.799C678.379 305.057 675.821 306.502 672.75 305.104C669.633 303.705 669.075 300.816 668.517 298.252C668.005 295.828 667.54 293.498 665.074 292.379L665.633 291.121C668.75 292.519 669.308 295.409 669.866 297.972C670.378 300.396 670.843 302.727 673.308 303.845C675.774 304.964 677.821 303.799 679.961 302.587C682.24 301.328 684.799 299.883 687.869 301.282C690.986 302.68 691.544 305.57 692.102 308.133C692.614 310.557 693.079 312.887 695.545 314.006C698.01 315.125 700.057 313.959 702.197 312.748C704.477 311.489 707.035 310.044 710.106 311.442C713.222 312.841 713.781 315.731 714.339 318.294C714.851 320.718 715.316 323.048 717.781 324.167L717.223 325.425Z" fill="#64A7F4"/>
<path d="M386.793 33.6518H356.881V3.68213H386.793V33.6518ZM359.207 31.3213H384.467V6.01259H359.207V31.3213Z" fill="#0DCEDA"/>
<path d="M373.302 21.6732L385.49 52.0624L390.84 39.1983L403.633 33.8848L373.302 21.6732Z" fill="#FAD5B1"/>
<path d="M69.6666 245.444L47.4766 233.698L48.407 258.821L69.6666 245.444Z" fill="#FAD5B1"/>
<defs>
<linearGradient id="paint0_linear" x1="191.688" y1="382.907" x2="146.822" y2="505.4" gradientUnits="userSpaceOnUse">
<stop stop-color="#F7931E"/>
<stop offset="1" stop-color="#F15A24"/>
</linearGradient>
<linearGradient id="paint1_linear" x1="231.097" y1="142.148" x2="231.478" y2="102.589" gradientUnits="userSpaceOnUse">
<stop stop-color="white" stop-opacity="0.4"/>
<stop offset="0.1304" stop-color="#CEF5F8" stop-opacity="0.4782"/>
<stop offset="0.3032" stop-color="#94E9EF" stop-opacity="0.5819"/>
<stop offset="0.4704" stop-color="#64E0E7" stop-opacity="0.6823"/>
<stop offset="0.6279" stop-color="#3ED8E2" stop-opacity="0.7767"/>
<stop offset="0.773" stop-color="#23D2DD" stop-opacity="0.8638"/>
<stop offset="0.9015" stop-color="#13CFDB" stop-opacity="0.9409"/>
<stop offset="1" stop-color="#0DCEDA"/>
</linearGradient>
<linearGradient id="paint2_linear" x1="536.933" y1="138.664" x2="536.933" y2="106.532" gradientUnits="userSpaceOnUse">
<stop stop-color="white"/>
<stop offset="0.1029" stop-color="#EEFCFC"/>
<stop offset="0.3054" stop-color="#C3F3F6"/>
<stop offset="0.5882" stop-color="#7EE5EB"/>
<stop offset="0.9372" stop-color="#1FD2DD"/>
<stop offset="1" stop-color="#0DCEDA"/>
</linearGradient>
<linearGradient id="paint3_linear" x1="226.955" y1="181.839" x2="226.955" y2="152.901" gradientUnits="userSpaceOnUse">
<stop stop-color="#EBFFFE" stop-opacity="0.4"/>
<stop offset="0.094" stop-color="#E2FDFD" stop-opacity="0.4564"/>
<stop offset="0.247" stop-color="#CAF8F9" stop-opacity="0.5482"/>
<stop offset="0.44" stop-color="#A2EFF2" stop-opacity="0.664"/>
<stop offset="0.6655" stop-color="#6BE3E9" stop-opacity="0.7993"/>
<stop offset="0.9154" stop-color="#26D4DE" stop-opacity="0.9492"/>
<stop offset="1" stop-color="#0DCEDA"/>
</linearGradient>
<linearGradient id="paint4_linear" x1="228.803" y1="228.076" x2="228.803" y2="209.82" gradientUnits="userSpaceOnUse">
<stop stop-color="#EBFFFE" stop-opacity="0.4"/>
<stop offset="0.094" stop-color="#E2FDFD" stop-opacity="0.4564"/>
<stop offset="0.247" stop-color="#CAF8F9" stop-opacity="0.5482"/>
<stop offset="0.44" stop-color="#A2EFF2" stop-opacity="0.664"/>
<stop offset="0.6655" stop-color="#6BE3E9" stop-opacity="0.7993"/>
<stop offset="0.9154" stop-color="#26D4DE" stop-opacity="0.9492"/>
<stop offset="1" stop-color="#0DCEDA"/>
</linearGradient>
<clipPath id="clip0">
<rect x="69" y="73" width="614.015" height="510.762" fill="white"/>
</clipPath>
</defs>
</svg>
