<svg width="717" height="584" viewBox="0 0 717 584" fill="none" xmlns="http://www.w3.org/2000/svg">
<g clip-path="url(#clip0)">
<path d="M669.474 361.988H80.541C73.6146 361.988 68 356.374 68 349.447V85.541C68 78.6146 73.6146 73 80.541 73H669.474C676.4 73 682.015 78.6146 682.015 85.541V349.447C682.015 356.374 676.4 361.988 669.474 361.988Z" fill="#D2FFFD"/>
<path d="M488.943 315.683H267.351C262.691 315.683 258.913 311.905 258.913 307.245V124.776C258.913 120.117 262.691 116.339 267.351 116.339H488.943C493.603 116.339 497.381 120.117 497.381 124.776V307.249C497.381 311.905 493.603 315.683 488.943 315.683Z" fill="white"/>
<path d="M488.943 316.557H267.351C262.216 316.557 258.039 312.381 258.039 307.245V124.777C258.039 119.641 262.216 115.464 267.351 115.464H488.943C494.079 115.464 498.256 119.641 498.256 124.777V307.249C498.256 312.381 494.079 316.557 488.943 316.557ZM267.351 117.214C263.181 117.214 259.788 120.607 259.788 124.777V307.249C259.788 311.419 263.181 314.812 267.351 314.812H488.943C493.113 314.812 496.507 311.419 496.507 307.249V124.777C496.507 120.607 493.113 117.214 488.943 117.214H267.351Z" fill="#0DCEDA"/>
<path d="M277.16 143.436C282.241 143.436 286.36 139.317 286.36 134.235C286.36 129.154 282.241 125.035 277.16 125.035C272.079 125.035 267.959 129.154 267.959 134.235C267.959 139.317 272.079 143.436 277.16 143.436Z" fill="#0DCEDA"/>
<path d="M271.892 302.054C274.065 302.054 275.827 300.292 275.827 298.118C275.827 295.945 274.065 294.183 271.892 294.183C269.718 294.183 267.956 295.945 267.956 298.118C267.956 300.292 269.718 302.054 271.892 302.054Z" fill="#0DCEDA"/>
<path d="M284.733 302.054C286.907 302.054 288.669 300.292 288.669 298.118C288.669 295.945 286.907 294.183 284.733 294.183C282.56 294.183 280.798 295.945 280.798 298.118C280.798 300.292 282.56 302.054 284.733 302.054Z" fill="#0DCEDA"/>
<path d="M297.576 302.054C299.749 302.054 301.511 300.292 301.511 298.118C301.511 295.945 299.749 294.183 297.576 294.183C295.402 294.183 293.64 295.945 293.64 298.118C293.64 300.292 295.402 302.054 297.576 302.054Z" fill="#0DCEDA"/>
<path d="M483.437 302.054C485.61 302.054 487.372 300.292 487.372 298.118C487.372 295.945 485.61 294.183 483.437 294.183C481.263 294.183 479.501 295.945 479.501 298.118C479.501 300.292 481.263 302.054 483.437 302.054Z" fill="#0DCEDA"/>
<path d="M357.104 137.181H297.278C296.55 137.181 295.962 136.593 295.962 135.866V132.602C295.962 131.874 296.55 131.287 297.278 131.287H357.1C357.828 131.287 358.415 131.874 358.415 132.602V135.866C358.419 136.593 357.828 137.181 357.104 137.181Z" fill="#0DCEDA"/>
<path d="M496.506 177.284H259.788V281.226H496.506V177.284Z" fill="#9EEBF0"/>
<path d="M487.373 149.907H267.956V154.193H487.373V149.907Z" fill="#9EEBF0"/>
<path d="M357.527 158.866H267.956V163.151H357.527V158.866Z" fill="#9EEBF0"/>
<path d="M131.688 278.483C131.688 278.483 131.974 281.124 134.234 282.443C136.494 283.762 139.461 283.062 139.461 283.062L165.469 271.627C165.469 271.627 166.942 269.402 167.313 267.041C167.687 264.679 155.517 247.122 155.517 247.122L142.217 248.651L132.643 258.96L128.917 265.806L131.688 278.483Z" fill="#443777"/>
<path d="M165.466 271.291C165.466 282.412 158.645 291.426 150.224 291.426C143.648 291.426 138.044 285.924 135.906 278.217C135.536 276.867 135.266 275.447 135.123 273.977C135.175 273.925 135.581 273.467 136.186 272.715C138.754 269.507 144.83 260.926 141.112 255.553C141.783 256.357 144.571 258.974 152.88 259.341C157.896 259.561 161.73 261.601 164.382 263.836C165.085 266.142 165.466 268.657 165.466 271.291Z" fill="#FFD3CA"/>
<path d="M168.608 269.367C168.24 268.31 166.859 265.977 164.445 263.833C161.947 261.597 158.337 259.558 153.611 259.337C145.782 258.97 143.158 256.354 142.525 255.549C146.027 260.926 140.304 269.503 137.887 272.711C137.316 273.463 136.935 273.921 136.883 273.974C136.879 273.977 136.879 273.977 136.879 273.977C136.879 273.977 136.005 271.368 133.091 271.637C132.108 271.732 131.499 272.235 131.121 272.872C131.086 272.942 131.051 273.005 131.02 273.068C130.897 273.313 130.803 273.568 130.74 273.823C130.715 273.911 130.694 274.002 130.677 274.089C130.663 274.149 130.649 274.201 130.642 274.261C130.621 274.369 130.607 274.478 130.593 274.586C130.572 274.74 130.558 274.89 130.554 275.048C130.554 275.083 130.551 275.111 130.551 275.142C130.551 275.181 130.547 275.219 130.547 275.261V275.335C130.544 275.639 130.561 275.831 130.561 275.831C114.627 259.428 132.059 248.091 132.059 248.091C133.185 241.812 147.619 232.157 162.143 242.091C176.671 252.03 168.608 269.367 168.608 269.367Z" fill="#443777"/>
<path d="M152.82 277.168H137.621V301.753H152.82V277.168Z" fill="#FFD3CA"/>
<path d="M149.431 273.092C150.358 273.092 151.11 272.113 151.11 270.906C151.11 269.698 150.358 268.72 149.431 268.72C148.503 268.72 147.751 269.698 147.751 270.906C147.751 272.113 148.503 273.092 149.431 273.092Z" fill="#B55445"/>
<path d="M190.002 326.964L195.393 332.463C195.729 332.806 196.285 332.803 196.614 332.453C199.842 329.032 215.133 313.069 219.8 312.331C225.026 311.506 238.224 313.43 242.625 312.331C244.822 311.782 246.571 311.268 247.775 310.89C248.401 310.694 248.908 311.411 248.516 311.94C246.676 314.43 242.674 318.869 237.262 319.296C229.699 319.894 224.477 317.19 220.349 322.599C216.224 328.007 202.337 348.219 197.25 351.105C192.164 353.991 175.708 337.231 175.708 337.231L180.2 328.969L190.002 326.964Z" fill="#FFD3CA"/>
<path d="M161.835 273.316C162.762 273.316 163.514 272.337 163.514 271.13C163.514 269.922 162.762 268.943 161.835 268.943C160.908 268.943 160.156 269.922 160.156 271.13C160.156 272.337 160.908 273.316 161.835 273.316Z" fill="#B55445"/>
<path d="M145.925 266.131C145.883 266.131 145.841 266.124 145.799 266.106C145.632 266.037 145.551 265.844 145.618 265.676C145.639 265.624 146.17 264.357 147.454 263.952C148.367 263.661 149.406 263.885 150.539 264.613C150.693 264.711 150.739 264.917 150.641 265.071C150.543 265.225 150.337 265.27 150.183 265.172C149.224 264.557 148.374 264.357 147.66 264.585C146.674 264.893 146.237 265.921 146.233 265.932C146.181 266.054 146.055 266.131 145.925 266.131Z" fill="#B55445"/>
<path d="M159.173 265.309C159.131 265.309 159.089 265.302 159.047 265.284C158.879 265.215 158.799 265.022 158.869 264.854C158.89 264.802 159.421 263.542 160.565 263.196C161.244 262.99 161.975 263.147 162.738 263.661C162.888 263.763 162.93 263.969 162.828 264.12C162.727 264.27 162.521 264.312 162.37 264.211C161.779 263.815 161.24 263.686 160.761 263.829C159.918 264.081 159.488 265.096 159.484 265.106C159.428 265.232 159.306 265.309 159.173 265.309Z" fill="#B55445"/>
<path d="M158.019 278.616C157.714 278.616 157.441 278.406 157.371 278.098C157.291 277.741 157.515 277.388 157.872 277.308C158.669 277.129 159.012 276.688 159.114 276.426C158.648 276.199 157.945 275.226 156.77 271.084C156.668 270.731 156.875 270.367 157.228 270.266C157.581 270.164 157.945 270.371 158.047 270.724C158.564 272.547 159.323 274.694 159.698 275.195C160.107 275.286 160.411 275.635 160.467 276.104C160.558 276.905 159.908 278.207 158.162 278.602C158.117 278.612 158.068 278.616 158.019 278.616Z" fill="#E2765A"/>
<path d="M154.982 284.937C154.975 284.937 154.972 284.937 154.965 284.937C149.49 284.808 147.968 282.282 147.905 282.177C147.723 281.859 147.832 281.457 148.147 281.271C148.462 281.089 148.864 281.194 149.046 281.505C149.077 281.554 150.372 283.506 154.996 283.615C155.364 283.622 155.65 283.926 155.643 284.294C155.636 284.65 155.339 284.937 154.982 284.937Z" fill="#E2765A"/>
<path d="M137.62 278.217C136.889 279.225 135.784 279.865 134.549 279.865C132.352 279.865 130.575 277.846 130.54 275.338V275.265C130.54 275.226 130.544 275.188 130.544 275.146C130.544 275.118 130.547 275.086 130.547 275.051C130.551 274.894 130.568 274.74 130.586 274.59C130.6 274.481 130.614 274.373 130.634 274.264C130.638 274.205 130.655 274.152 130.669 274.093C130.69 274.005 130.708 273.914 130.732 273.827C130.806 273.561 130.904 273.313 131.012 273.071C131.047 273.008 131.082 272.942 131.114 272.875C131.492 272.242 132.1 271.735 133.083 271.641C135.997 271.371 136.872 273.981 136.872 273.981C136.872 273.981 136.872 273.981 136.875 273.977C137.019 275.447 137.274 276.867 137.62 278.217Z" fill="#FFD3CA"/>
<path d="M135.833 497.529C135.833 497.529 156.742 497.658 166.355 495.549C175.968 493.439 180.893 490.274 190.741 490.039C200.588 489.805 220.227 471.32 221.721 467.609C223.214 463.897 166.355 460.371 166.355 460.371L138.803 475.473L135.833 497.529Z" fill="#CE4C24"/>
<path d="M175.506 484.792C175.506 484.792 174.561 502.507 174.022 507.173C173.484 511.843 163.108 562.336 165.602 567.342H154.093L149.962 516.51C149.962 516.51 156.857 477.736 157.27 476.743C157.682 475.749 175.506 484.792 175.506 484.792Z" fill="#E2B2AA"/>
<path d="M137.921 495.272C137.921 495.272 139.747 520.61 141.364 528.893C142.98 537.174 144.928 567.342 144.928 567.342H156.01C156.01 567.342 154.254 563.791 156.01 545.457C157.767 527.12 161.622 489.56 159.991 481.573C158.361 473.587 148.493 473.587 148.493 473.587L137.921 495.272Z" fill="#FFD3CA"/>
<path d="M131.75 382.606C131.75 382.606 115.271 412.957 116.47 427.051C117.67 441.145 131.695 467.836 133.08 476.533C134.465 485.229 135.836 497.525 135.836 497.525C135.836 497.525 161.268 487.031 174.407 485.53C187.546 484.029 221.133 473.836 222.032 466.636C222.931 459.437 204.639 436.048 195.34 429.451C186.042 422.853 166.55 389.256 166.599 383.477C166.648 377.698 156.098 376.373 156.098 376.373H130.998L131.75 382.606Z" fill="url(#paint0_linear)"/>
<path d="M154.618 567.342H165.7C165.7 567.342 176.328 575.395 182.296 575.395C188.264 575.395 194.795 580.618 194.795 582.297C194.795 583.976 154.618 582.297 154.618 582.297V567.342Z" fill="#3A1318"/>
<path d="M144.928 567.342H156.01C156.01 567.342 166.638 575.395 172.606 575.395C178.574 575.395 185.105 580.618 185.105 582.297C185.105 583.976 144.928 582.297 144.928 582.297V567.342Z" fill="#593235"/>
<path d="M130.586 284.475C130.586 284.475 107.491 286.595 102.688 310.481C97.8847 334.366 104.223 331.232 104.244 343.455C104.244 343.455 108.138 342.265 109.74 332.537C110.667 326.915 116.862 316.998 122.795 310.621C128.728 304.244 134.315 293.574 134.08 286.252C133.846 278.927 130.586 284.475 130.586 284.475Z" fill="#443777"/>
<path d="M156.469 387.973L142.665 388.05C131.037 388.05 129.179 382.11 129.005 374.715C129.001 374.498 128.987 374.281 128.963 374.064C131.149 360.799 125.923 335.419 121.546 311.422C121.546 301.942 129.232 294.26 138.708 294.26H149.976C163.469 294.26 174.404 305.195 174.404 318.688C170.713 341.146 167.373 362.996 170.133 374.309C170.133 381.858 168.205 387.973 156.469 387.973Z" fill="#F0657D"/>
<path d="M129.197 323.882L124.289 336.409C124.037 336.416 123.782 336.409 123.53 336.392C117.656 336.14 112.56 331.897 110.611 330.046C110.062 329.525 109.761 329.196 109.761 329.196C109.761 329.196 119.934 308.791 124.66 301.571L129.197 323.882Z" fill="#F0657D"/>
<path d="M168.877 303.212C174.715 309.809 190.006 326.964 190.006 326.964C190.006 326.964 185.43 334.804 174.407 337.599C163.384 340.394 165.245 319.482 166.099 318.995C166.953 318.502 168.877 303.212 168.877 303.212Z" fill="#F0657D"/>
<path d="M140.611 307.416L162.58 308.232L170.58 341.118H149.021L140.611 307.416Z" fill="#4D4D4D"/>
<path d="M181.568 297.363L162.482 308.27L170.58 341.118L189.751 331.117L181.568 297.363Z" fill="#4D4D4D"/>
<path d="M166.642 341.118C164.05 342.356 148.549 341.566 146.741 341.489C144.925 341.412 125.678 353.19 116.467 357.57C107.26 361.95 105.217 359.078 103.71 355.307C102.202 351.529 110.611 330.043 110.611 330.043C112.563 331.897 117.66 336.137 123.53 336.388V336.395L121.746 341.202C121.669 341.408 121.876 341.611 122.078 341.531L144.981 332.701C144.981 332.701 159.012 323.396 163.892 323.704C168.776 324.008 169.241 339.876 166.642 341.118Z" fill="#FFD3CA"/>
<path d="M136.794 286.224C137.517 284.973 136.749 283.177 135.079 282.212C133.409 281.248 131.47 281.481 130.748 282.733C130.025 283.984 130.793 285.78 132.463 286.745C134.132 287.709 136.072 287.476 136.794 286.224Z" fill="#4D4D4D"/>
<path d="M144.404 289.096C144.404 289.096 147.958 292.395 152.82 291.283V293.948C152.82 293.948 146.964 293.777 144.404 289.096Z" fill="#E2765A"/>
<path d="M146.506 277.867C148.635 277.867 150.361 276.957 150.361 275.835C150.361 274.712 148.635 273.803 146.506 273.803C144.377 273.803 142.651 274.712 142.651 275.835C142.651 276.957 144.377 277.867 146.506 277.867Z" fill="#FF8483"/>
<path d="M163.538 279.067C165.177 279.067 166.505 278.237 166.505 277.213C166.505 276.189 165.177 275.359 163.538 275.359C161.9 275.359 160.572 276.189 160.572 277.213C160.572 278.237 161.9 279.067 163.538 279.067Z" fill="#FF8483"/>
<path d="M139.667 270.161C138.789 271.906 137.533 275.517 138.278 277.087C138.278 277.087 137.246 276.412 136.879 273.981C136.512 271.55 138.082 269.549 138.082 269.549L139.667 270.161Z" fill="#443777"/>
<path d="M132.692 278.049C132.594 278.049 132.499 278.007 132.433 277.927C132.374 277.85 130.95 276.059 131.866 274.009C132.153 273.365 132.58 272.935 133.133 272.736C134.049 272.403 134.966 272.841 135.004 272.858C135.169 272.938 135.239 273.138 135.158 273.302C135.078 273.467 134.882 273.533 134.717 273.456C134.7 273.446 134 273.124 133.357 273.362C132.982 273.498 132.685 273.81 132.471 274.282C131.719 275.964 132.937 277.5 132.947 277.514C133.063 277.658 133.042 277.864 132.898 277.979C132.839 278.025 132.765 278.049 132.692 278.049Z" fill="#B55445"/>
<path d="M137.621 294.326C137.621 294.326 144.946 301.33 152.82 294.428L146.506 293.154C146.506 293.154 140.982 293.273 140.748 293.154C140.514 293.035 137.621 294.326 137.621 294.326Z" fill="#FFD3CA"/>
<path d="M142.109 307.417V306.122C142.109 305.825 142.354 305.59 142.647 305.597L161.835 306.066L179.165 296.415C179.364 296.303 179.616 296.373 179.732 296.569L180.54 297.947L162.486 308.267L142.109 307.417Z" fill="white"/>
<path d="M168.237 302.649L168.17 302.575C166.127 300.315 163.784 298.475 161.202 297.104C161.143 297.072 161.118 296.996 161.15 296.936C161.181 296.877 161.258 296.852 161.317 296.884C163.896 298.255 166.239 300.088 168.286 302.334L179.102 296.31C179.358 296.166 179.686 296.257 179.833 296.509L180.641 297.888C180.676 297.947 180.655 298.024 180.596 298.059C180.536 298.094 180.459 298.073 180.425 298.013L179.616 296.635C179.536 296.499 179.358 296.45 179.218 296.527L168.237 302.649Z" fill="#B55445"/>
<path d="M583.166 362.919C583.166 362.919 579.147 537.761 571.202 561.587H550.874C550.874 561.587 550.574 494.597 550.874 485.964C551.175 477.33 546.824 412.065 546.824 412.065L521.479 561.587L499.035 559.17C499.035 559.17 514.616 407.318 526.852 368.425L546.824 348.181L583.166 362.919Z" fill="black"/>
<path d="M531.999 228.623C531.999 238.422 538.282 246.366 546.03 246.366C553.779 246.366 560.061 238.422 560.061 228.623C560.061 218.825 548.517 206.358 540.765 206.358C533.02 206.354 531.999 218.825 531.999 228.623Z" fill="#FDD8D0"/>
<path d="M560.064 231.905L560.981 250.809C560.981 250.809 555.751 256.441 540.772 254.43L544.893 229.795L560.064 231.905Z" fill="#FDD8D0"/>
<path d="M516.348 270.497C516.348 270.497 503.523 318.485 507.665 329.882C511.807 341.279 530.109 356.419 530.109 356.419L546.82 329.193L541.097 286.375L516.348 270.497Z" fill="#0A9BA3"/>
<path d="M560.981 212.291C560.981 212.291 565.592 212.913 566.799 214.41C566.799 214.41 563.724 213.246 562.104 213.35L565.007 216.118C565.592 216.674 565.837 217.496 565.651 218.283L560.981 238.216L559.337 239.209C557.581 240.269 555.363 240.178 553.712 238.964C550.375 236.505 545.19 232.311 544.893 229.792C544.452 226.063 543.833 222.225 537.991 221.169C532.149 220.112 524.834 210.545 527.367 203.507C527.367 203.507 532.502 205.273 535.812 205.476C538.953 205.668 546.033 197.171 556.99 201.887C563.139 204.539 560.981 212.291 560.981 212.291Z" fill="black"/>
<path d="M572.942 389.11H617.96C622.997 389.11 627.562 385.02 628.125 379.983L632.022 345.855C632.6 340.817 628.972 336.728 623.935 336.728H601.85C605.545 352.284 610.155 371.759 610.155 371.759C606.846 374.561 603.061 375.928 598.87 376.107C598.87 376.107 587.809 358.959 579.665 336.728H578.92C578.808 336.728 578.707 336.728 578.591 336.738C573.676 336.906 569.303 340.929 568.74 345.855L566.414 366.312L564.854 379.983C564.277 385.02 567.894 389.11 572.942 389.11Z" fill="#F15A24"/>
<path d="M576.919 389.11H621.937C626.974 389.11 631.539 385.02 632.102 379.983L635.999 345.855C636.577 340.817 632.949 336.728 627.912 336.728H594.109C597.803 352.284 607.052 371.759 607.052 371.759C603.743 374.561 607.038 375.928 602.847 376.107C602.847 376.107 591.786 358.959 583.642 336.728H582.897C582.785 336.728 582.684 336.728 582.568 336.738C577.653 336.906 573.28 340.929 572.717 345.855L570.391 366.312L568.831 379.983C568.254 385.02 571.871 389.11 576.919 389.11Z" fill="#FFBE5C"/>
<path d="M579.664 336.728C587.808 358.959 598.869 376.107 598.869 376.107C603.06 375.925 606.845 374.561 610.154 371.759C610.154 371.759 605.544 352.284 601.85 336.728H579.664Z" fill="#291716"/>
<path d="M610.148 371.755C610.148 371.755 613.776 388.812 612.496 392.758C611.215 396.704 602.365 395.959 598.524 394.679C594.683 393.398 598.895 382.613 598.87 376.114C598.846 369.614 603.537 368.547 603.537 368.547L610.148 371.755Z" fill="#FFD3CA"/>
<path d="M516.243 281.383C516.649 284.094 526.073 317.929 526.849 322.798C527.619 327.668 526.849 368.425 526.849 368.425C541.468 369.926 556.017 368.222 566.41 366.312L568.736 345.855C569.3 340.929 573.672 336.906 578.587 336.738L578.101 332.289C578.608 333.789 579.13 335.273 579.661 336.728C587.805 358.959 598.866 376.107 598.866 376.107C603.057 375.925 606.842 374.561 610.151 371.759C610.151 371.759 605.541 352.284 601.847 336.728C599.566 327.115 597.621 319.003 597.327 317.929C596.558 315.106 595.032 287.271 589.544 272.561C584.041 257.84 560.974 250.816 560.974 250.816C550.399 257.844 540.765 254.43 540.765 254.43C531.197 256.431 519.062 265.897 517.243 268.212C515.442 270.528 515.847 278.672 516.243 281.383Z" fill="#0DCEDA"/>
<path d="M577.555 332.411L578.657 332.159C578.601 331.918 573.144 307.959 572.542 302.904L571.423 303.037C572.028 308.155 577.328 331.425 577.555 332.411Z" fill="#07676D"/>
<path d="M570.762 561.587C570.762 561.587 574.431 567.818 583.117 569.577C591.803 571.337 604.743 576.944 602.858 583.762L558.417 582.423L558.494 561.587H570.762Z" fill="#002123"/>
<path d="M517.005 561.105L518.366 572.673L520.626 578.543C521.291 580.268 520.017 582.122 518.17 582.122H499.196C497.132 582.122 495.869 579.851 496.964 578.099L500.347 572.673L501.522 559.436L517.005 561.105Z" fill="#002123"/>
<path d="M243.011 118.557H217.463C217.282 118.557 217.131 118.704 217.131 118.889V136.097C217.131 136.279 217.278 136.429 217.463 136.429H225.471L230.235 142.387L235 136.429H243.007C243.189 136.429 243.339 136.282 243.339 136.097V118.889C243.343 118.704 243.196 118.557 243.011 118.557Z" fill="url(#paint1_linear)"/>
<path d="M232.778 126.026H210.166V141.442H217.362L221.472 146.581L225.583 141.442H232.778V126.026Z" stroke="#0DCEDA" stroke-width="1.39927" stroke-miterlimit="10" stroke-linecap="round" stroke-linejoin="round"/>
<path d="M216.334 131.164H226.611" stroke="#45E5C2" stroke-width="1.39927" stroke-miterlimit="10" stroke-linecap="round" stroke-linejoin="round"/>
<path d="M216.334 136.303H222.501" stroke="#45E5C2" stroke-width="1.39927" stroke-miterlimit="10" stroke-linecap="round" stroke-linejoin="round"/>
<g style="mix-blend-mode:multiply">
<path d="M535.934 137.611C541.483 137.611 545.981 133.113 545.981 127.565C545.981 122.016 541.483 117.518 535.934 117.518C530.386 117.518 525.888 122.016 525.888 127.565C525.888 133.113 530.386 137.611 535.934 137.611Z" fill="url(#paint2_linear)"/>
</g>
<path d="M528.536 145.01C534.084 145.01 538.583 140.512 538.583 134.963C538.583 129.414 534.084 124.916 528.536 124.916C522.987 124.916 518.489 129.414 518.489 134.963C518.489 140.512 522.987 145.01 528.536 145.01Z" stroke="#0DCEDA" stroke-width="1.39927" stroke-miterlimit="10" stroke-linecap="round" stroke-linejoin="round"/>
<path d="M540.765 140.55C541.983 142.946 542.305 144.811 541.462 145.654C539.611 147.504 532.779 143.67 526.304 137.195C519.829 130.72 515.995 123.888 517.845 122.038C518.692 121.191 520.56 121.516 522.956 122.734" stroke="#45E5C2" stroke-width="1.39927" stroke-miterlimit="10" stroke-linecap="round" stroke-linejoin="round"/>
<path d="M235.807 159.737L225.953 162.644L216.099 159.737C215.77 159.639 215.441 159.888 215.441 160.227V180.562H236.461V160.227C236.465 159.888 236.136 159.639 235.807 159.737Z" fill="url(#paint3_linear)"/>
<path d="M220.962 170.054V184.386" stroke="#0DCEDA" stroke-width="1.39927" stroke-miterlimit="10" stroke-linecap="round" stroke-linejoin="round"/>
<path d="M210.453 167.189L220.961 170.054L231.473 167.189V181.521L220.961 184.386L210.453 181.521V167.189Z" stroke="#0DCEDA" stroke-width="1.39927" stroke-miterlimit="10" stroke-linecap="round" stroke-linejoin="round"/>
<path d="M210.453 185.341V187.251H231.473V185.341" stroke="#45E5C2" stroke-width="1.39927" stroke-miterlimit="10" stroke-linecap="round" stroke-linejoin="round"/>
<path d="M236.172 226.78H219.437C218.66 226.78 218.031 226.15 218.031 225.374V211.566C218.031 210.79 218.66 210.16 219.437 210.16H236.172C236.949 210.16 237.578 210.79 237.578 211.566V225.374C237.578 226.15 236.949 226.78 236.172 226.78Z" fill="url(#paint4_linear)"/>
<path d="M215.858 223.827H220.203" stroke="#45E5C2" stroke-width="1.39927" stroke-miterlimit="10" stroke-linecap="round" stroke-linejoin="round"/>
<path d="M215.858 229.256H226.717" stroke="#45E5C2" stroke-width="1.39927" stroke-miterlimit="10" stroke-linecap="round" stroke-linejoin="round"/>
<path d="M221.288 234.686V237.946" stroke="#0DCEDA" stroke-width="1.39927" stroke-miterlimit="10" stroke-linecap="round" stroke-linejoin="round"/>
<path d="M219.115 234.686L214.771 239.03" stroke="#0DCEDA" stroke-width="1.39927" stroke-miterlimit="10" stroke-linecap="round" stroke-linejoin="round"/>
<path d="M223.46 234.686L227.805 239.03" stroke="#0DCEDA" stroke-width="1.39927" stroke-miterlimit="10" stroke-linecap="round" stroke-linejoin="round"/>
<path d="M209.341 234.686H233.234" stroke="#0DCEDA" stroke-width="1.39927" stroke-miterlimit="10" stroke-linecap="round" stroke-linejoin="round"/>
<path d="M221.288 217.31V215.138" stroke="#0DCEDA" stroke-width="1.39927" stroke-miterlimit="10" stroke-linecap="round" stroke-linejoin="round"/>
<path d="M231.062 217.31H211.514V234.686" stroke="#0DCEDA" stroke-width="1.39927" stroke-miterlimit="10" stroke-linecap="round" stroke-linejoin="round"/>
<path d="M231.062 234.686V222.743" stroke="#0DCEDA" stroke-width="1.39927" stroke-miterlimit="10" stroke-linecap="round" stroke-linejoin="round"/>
<path d="M232.146 216.226L224.544 223.827" stroke="#45E5C2" stroke-width="1.39927" stroke-miterlimit="10" stroke-linecap="round" stroke-linejoin="round"/>
<path d="M442.571 424.018H428.421C427.578 424.018 426.872 423.493 426.781 422.797L424.185 403.12C424.077 402.308 424.843 401.598 425.826 401.598H445.164C446.147 401.598 446.909 402.308 446.804 403.12L444.209 422.797C444.118 423.49 443.411 424.018 442.571 424.018Z" fill="#9EEBF0"/>
<path d="M436.649 406.093C436.649 406.093 445.174 372.231 430.888 345.263" stroke="#9EEBF0" stroke-width="1.39927" stroke-miterlimit="10"/>
<path d="M435.001 338.68C435.001 338.68 435.351 341.15 434.403 343.675C433.455 346.201 431.566 347.831 431.566 347.831C431.566 347.831 431.216 345.362 432.164 342.836C433.112 340.31 435.001 338.68 435.001 338.68Z" fill="#9EEBF0"/>
<path d="M427.253 336.669C427.253 336.669 429.422 338.393 430.587 341.157C431.752 343.92 431.472 346.677 431.472 346.677C431.472 346.677 429.303 344.952 428.138 342.189C426.973 339.425 427.253 336.669 427.253 336.669Z" fill="#9EEBF0"/>
<path d="M422.884 342.136C422.884 342.136 425.378 342.133 427.75 343.42C430.121 344.711 431.472 346.806 431.472 346.806C431.472 346.806 428.977 346.81 426.606 345.522C424.237 344.232 422.884 342.136 422.884 342.136Z" fill="#9EEBF0"/>
<path d="M439.545 344.907C439.545 344.907 439.979 347.971 438.8 351.109C437.621 354.247 435.277 356.269 435.277 356.269C435.277 356.269 434.844 353.205 436.023 350.067C437.201 346.929 439.545 344.907 439.545 344.907Z" fill="#9EEBF0"/>
<path d="M424.507 349.196C424.507 349.196 427.603 349.189 430.545 350.791C433.49 352.393 435.166 354.992 435.166 354.992C435.166 354.992 432.07 354.999 429.128 353.397C426.186 351.798 424.507 349.196 424.507 349.196Z" fill="#9EEBF0"/>
<path d="M443.124 356.279C443.124 356.279 443.271 359.372 441.809 362.384C440.346 365.399 437.824 367.194 437.824 367.194C437.824 367.194 437.677 364.101 439.14 361.089C440.602 358.074 443.124 356.279 443.124 356.279Z" fill="#9EEBF0"/>
<path d="M427.753 359.155C427.753 359.155 430.835 359.435 433.62 361.303C436.401 363.171 437.831 365.917 437.831 365.917C437.831 365.917 434.75 365.637 431.965 363.769C429.18 361.901 427.753 359.155 427.753 359.155Z" fill="#9EEBF0"/>
<path d="M446.164 367.484C446.164 367.484 445.975 371.398 443.932 375.044C441.889 378.689 438.772 380.683 438.772 380.683C438.772 380.683 438.961 376.768 441.004 373.123C443.044 369.478 446.164 367.484 446.164 367.484Z" fill="#9EEBF0"/>
<path d="M428.093 369.468C428.093 369.468 431.615 370.153 434.61 372.805C437.604 375.456 438.93 379.074 438.93 379.074C438.93 379.074 435.407 378.388 432.413 375.736C429.418 373.085 428.093 369.468 428.093 369.468Z" fill="#9EEBF0"/>
<path d="M450.428 380.697C450.428 380.697 449.368 385.856 445.905 390.275C442.442 394.693 437.891 396.697 437.891 396.697C437.891 396.697 438.951 391.537 442.414 387.119C445.877 382.701 450.428 380.697 450.428 380.697Z" fill="#9EEBF0"/>
<path d="M426.028 379.605C426.028 379.605 430.565 381.239 433.99 385.377C437.415 389.515 438.433 394.588 438.433 394.588C438.433 394.588 433.896 392.954 430.471 388.816C427.046 384.677 426.028 379.605 426.028 379.605Z" fill="#9EEBF0"/>
<path d="M429.736 476.666H313.901V582.122H429.736V476.666Z" fill="#CAFEFF"/>
<path d="M375.011 476.666H370.348V582.122H375.011V476.666Z" fill="#9EEBF0"/>
<path d="M318.564 476.666H313.901V582.122H318.564V476.666Z" fill="#9EEBF0"/>
<path d="M429.737 476.666H425.073V582.122H429.737V476.666Z" fill="#9EEBF0"/>
<path d="M429.735 531.728V527.065H313.9V531.728H429.735Z" fill="#9EEBF0"/>
<path d="M429.737 481.33V476.667H313.901V481.33H429.737Z" fill="#9EEBF0"/>
<path d="M429.735 582.125V577.462H313.9V582.125H429.735Z" fill="#9EEBF0"/>
<path d="M394.527 500.478H390.137V527.067H394.527V500.478Z" fill="#9EEBF0"/>
<path d="M390.137 501.311L385.861 500.319L379.849 526.22L384.125 527.212L390.137 501.311Z" fill="#9EEBF0"/>
<path d="M400.419 500.478H396.029V527.067H400.419V500.478Z" fill="#9EEBF0"/>
<path d="M406.309 500.478H401.919V527.067H406.309V500.478Z" fill="#9EEBF0"/>
<path d="M412.2 500.478H407.81V527.067H412.2V500.478Z" fill="#9EEBF0"/>
<path d="M418.091 500.478H413.701V527.067H418.091V500.478Z" fill="#9EEBF0"/>
<path d="M423.982 500.478H419.592V527.067H423.982V500.478Z" fill="#9EEBF0"/>
<path d="M406.31 577.462C412.732 577.462 417.938 572.256 417.938 565.834C417.938 559.412 412.732 554.206 406.31 554.206C399.888 554.206 394.682 559.412 394.682 565.834C394.682 572.256 399.888 577.462 406.31 577.462Z" fill="#9EEBF0"/>
<path d="M336.262 527.064H326.712L337.668 505.97H347.218L336.262 527.064Z" fill="#0DCEDA"/>
<path d="M343.146 527.064H357.922L352.357 505.97H337.581L343.146 527.064Z" fill="#9EEBF0"/>
<path d="M279.647 439.053L268.32 582.381H261.072L272.427 438.675L279.647 439.053Z" fill="#9EEBF0"/>
<path d="M481.761 582.381H474.513L463.186 439.053L470.406 438.675L481.761 582.381Z" fill="#9EEBF0"/>
<path d="M489.664 448.61H253.166C248.975 448.61 245.575 445.213 245.575 441.019V431.273C245.575 427.082 248.971 423.682 253.166 423.682H489.664C493.855 423.682 497.255 427.079 497.255 431.273V441.019C497.255 445.213 493.858 448.61 489.664 448.61Z" fill="#9EEBF0"/>
</g>
<path d="M693.368 143.511L716.418 136.317L709.238 113.223L686.188 120.417L693.368 143.511Z" fill="#64A7F4"/>
<path d="M1.60741 170.662L13.5576 191.284L34.6798 178.884L22.7296 158.261L1.60741 170.662Z" fill="#EAE6FA"/>
<path d="M269.415 35.6231L284.974 41.3584L290.522 25.9942L274.963 20.2589L269.415 35.6231Z" fill="#FF7D7D"/>
<path d="M536.61 389L546.891 369.471L524.841 370.31L536.61 389Z" fill="#FFBFBE"/>
<path d="M478.088 49.8252L477.018 48.9396C479.205 46.3295 482.182 46.5626 484.741 46.749C487.206 46.9354 489.532 47.1219 491.3 45.0711C493.068 43.0203 492.509 40.7364 491.905 38.3127C491.3 35.7959 490.602 32.9061 492.835 30.296C495.021 27.6859 497.999 27.9189 500.557 28.1053C503.023 28.2918 505.349 28.4782 507.117 26.4274C508.884 24.3766 508.326 22.0928 507.721 19.6691C507.117 17.1522 506.419 14.2624 508.652 11.6523C510.838 9.0422 513.815 9.27525 516.374 9.46168C518.84 9.64812 521.166 9.83455 522.933 7.78375L524.003 8.66933C521.817 11.2794 518.84 11.0464 516.281 10.86C513.815 10.6735 511.489 10.4871 509.722 12.5379C507.954 14.5887 508.512 16.8725 509.117 19.2962C509.722 21.8131 510.419 24.7029 508.187 27.313C506 29.9231 503.023 29.6901 500.464 29.5036C497.999 29.3172 495.673 29.1307 493.905 31.1815C492.137 33.2323 492.695 35.5162 493.3 37.9399C493.905 40.4568 494.603 43.3465 492.37 45.9566C490.183 48.5668 487.206 48.3337 484.648 48.1473C482.182 47.9142 479.856 47.7278 478.088 49.8252Z" fill="#FFB5A9"/>
<path d="M198.178 43.3465C195.387 41.3889 195.34 38.4059 195.34 35.8424C195.294 33.3722 195.294 30.9951 193.061 29.457C190.875 27.8723 188.642 28.618 186.269 29.4104C183.804 30.2493 181.012 31.1815 178.221 29.1773C175.43 27.2197 175.383 24.2368 175.383 21.6733C175.337 19.203 175.337 16.8259 173.104 15.2878C170.918 13.7031 168.685 14.4488 166.312 15.2412C163.847 16.0802 161.055 17.0123 158.264 15.0081C155.473 13.0506 155.426 10.0676 155.426 7.50407C155.38 5.03379 155.38 2.65672 153.147 1.11862L153.938 0C156.729 1.95758 156.776 4.94057 156.776 7.50407C156.822 9.97436 156.822 12.3514 159.055 13.8895C161.241 15.4742 163.474 14.7285 165.847 13.9361C168.312 13.0972 171.104 12.165 173.895 14.1692C176.686 16.1268 176.733 19.1097 176.733 21.6733C176.779 24.1435 176.779 26.5206 179.012 28.0587C181.245 29.5968 183.431 28.8977 185.804 28.1053C188.269 27.2664 191.061 26.3342 193.852 28.3384C196.643 30.2959 196.69 33.2789 196.69 35.8424C196.736 38.3127 196.736 40.6898 198.969 42.2279L198.178 43.3465Z" fill="#64A7F4"/>
<path d="M716.223 325.425C713.106 324.027 712.548 321.137 711.99 318.574C711.478 316.15 711.013 313.82 708.548 312.701C706.082 311.582 704.035 312.748 701.895 313.959C699.616 315.218 697.057 316.663 693.987 315.264C690.87 313.866 690.312 310.976 689.754 308.413C689.242 305.989 688.777 303.659 686.311 302.54C683.846 301.421 681.799 302.587 679.659 303.799C677.379 305.057 674.821 306.502 671.75 305.104C668.634 303.705 668.075 300.816 667.517 298.252C667.005 295.828 666.54 293.498 664.075 292.379L664.633 291.121C667.75 292.519 668.308 295.409 668.866 297.972C669.378 300.396 669.843 302.727 672.309 303.845C674.774 304.964 676.821 303.799 678.961 302.587C681.24 301.328 683.799 299.883 686.869 301.282C689.986 302.68 690.544 305.57 691.103 308.133C691.614 310.557 692.08 312.887 694.545 314.006C697.011 315.125 699.058 313.959 701.197 312.748C703.477 311.489 706.035 310.044 709.106 311.442C712.223 312.841 712.781 315.731 713.339 318.294C713.851 320.718 714.316 323.048 716.782 324.167L716.223 325.425Z" fill="#64A7F4"/>
<path d="M385.793 33.6518H355.881V3.68213H385.793V33.6518ZM358.207 31.3213H383.467V6.01259H358.207V31.3213Z" fill="#0DCEDA"/>
<path d="M372.302 21.6732L384.49 52.0624L389.84 39.1983L402.633 33.8848L372.302 21.6732Z" fill="#FAD5B1"/>
<path d="M68.6668 245.444L46.4768 233.698L47.4072 258.821L68.6668 245.444Z" fill="#FAD5B1"/>
<defs>
<linearGradient id="paint0_linear" x1="190.688" y1="382.907" x2="145.822" y2="505.4" gradientUnits="userSpaceOnUse">
<stop stop-color="#F7931E"/>
<stop offset="1" stop-color="#F15A24"/>
</linearGradient>
<linearGradient id="paint1_linear" x1="230.097" y1="142.148" x2="230.478" y2="102.589" gradientUnits="userSpaceOnUse">
<stop stop-color="white" stop-opacity="0.4"/>
<stop offset="0.1304" stop-color="#CEF5F8" stop-opacity="0.4782"/>
<stop offset="0.3032" stop-color="#94E9EF" stop-opacity="0.5819"/>
<stop offset="0.4704" stop-color="#64E0E7" stop-opacity="0.6823"/>
<stop offset="0.6279" stop-color="#3ED8E2" stop-opacity="0.7767"/>
<stop offset="0.773" stop-color="#23D2DD" stop-opacity="0.8638"/>
<stop offset="0.9015" stop-color="#13CFDB" stop-opacity="0.9409"/>
<stop offset="1" stop-color="#0DCEDA"/>
</linearGradient>
<linearGradient id="paint2_linear" x1="535.933" y1="138.664" x2="535.933" y2="106.532" gradientUnits="userSpaceOnUse">
<stop stop-color="white"/>
<stop offset="0.1029" stop-color="#EEFCFC"/>
<stop offset="0.3054" stop-color="#C3F3F6"/>
<stop offset="0.5882" stop-color="#7EE5EB"/>
<stop offset="0.9372" stop-color="#1FD2DD"/>
<stop offset="1" stop-color="#0DCEDA"/>
</linearGradient>
<linearGradient id="paint3_linear" x1="225.955" y1="181.839" x2="225.955" y2="152.901" gradientUnits="userSpaceOnUse">
<stop stop-color="#EBFFFE" stop-opacity="0.4"/>
<stop offset="0.094" stop-color="#E2FDFD" stop-opacity="0.4564"/>
<stop offset="0.247" stop-color="#CAF8F9" stop-opacity="0.5482"/>
<stop offset="0.44" stop-color="#A2EFF2" stop-opacity="0.664"/>
<stop offset="0.6655" stop-color="#6BE3E9" stop-opacity="0.7993"/>
<stop offset="0.9154" stop-color="#26D4DE" stop-opacity="0.9492"/>
<stop offset="1" stop-color="#0DCEDA"/>
</linearGradient>
<linearGradient id="paint4_linear" x1="227.803" y1="228.076" x2="227.803" y2="209.82" gradientUnits="userSpaceOnUse">
<stop stop-color="#EBFFFE" stop-opacity="0.4"/>
<stop offset="0.094" stop-color="#E2FDFD" stop-opacity="0.4564"/>
<stop offset="0.247" stop-color="#CAF8F9" stop-opacity="0.5482"/>
<stop offset="0.44" stop-color="#A2EFF2" stop-opacity="0.664"/>
<stop offset="0.6655" stop-color="#6BE3E9" stop-opacity="0.7993"/>
<stop offset="0.9154" stop-color="#26D4DE" stop-opacity="0.9492"/>
<stop offset="1" stop-color="#0DCEDA"/>
</linearGradient>
<clipPath id="clip0">
<rect x="68" y="73" width="614.015" height="510.762" fill="white"/>
</clipPath>
</defs>
</svg>
