<svg width="718" height="581" viewBox="0 0 718 581" fill="none" xmlns="http://www.w3.org/2000/svg">
<path d="M608.163 499.859H206.598C200.037 499.859 194.719 494.541 194.719 487.98V181.174C194.719 174.612 200.037 169.294 206.598 169.294H608.163C614.724 169.294 620.043 174.612 620.043 181.174V487.98C620.046 494.541 614.724 499.859 608.163 499.859Z" fill="#D2FFFD"/>
<path d="M143.337 579.709H107.671C105.55 579.709 103.768 578.384 103.539 576.631L96.9977 527.031C96.7293 524.987 98.6545 523.198 101.13 523.198H149.874C152.35 523.198 154.278 524.984 154.007 527.031L147.465 576.631C147.237 578.381 145.457 579.709 143.337 579.709Z" fill="#9EEBF0"/>
<path d="M129.051 534.693L127.765 534.368C127.818 534.156 133.133 512.733 133.988 483.304C134.777 456.171 131.828 416.49 113.298 381.514L114.471 380.894C122.718 396.462 128.614 414.236 132 433.724C134.707 449.305 135.821 466.01 135.314 483.377C134.449 512.942 129.104 534.477 129.051 534.693Z" fill="#9EEBF0"/>
<path d="M124.26 364.607C124.26 364.607 125.141 370.83 122.748 377.202C120.356 383.575 115.594 387.677 115.594 387.677C115.594 387.677 114.713 381.454 117.105 375.082C119.498 368.713 124.26 364.607 124.26 364.607Z" fill="#9EEBF0"/>
<path d="M104.722 359.537C104.722 359.537 110.189 363.881 113.125 370.847C116.064 377.812 115.362 384.758 115.362 384.758C115.362 384.758 109.894 380.413 106.958 373.448C104.019 366.486 104.722 359.537 104.722 359.537Z" fill="#9EEBF0"/>
<path d="M93.717 373.319C93.717 373.319 100.003 373.306 105.981 376.556C111.959 379.807 115.365 385.089 115.365 385.089C115.365 385.089 109.079 385.102 103.101 381.852C97.1235 378.601 93.717 373.319 93.717 373.319Z" fill="#9EEBF0"/>
<path d="M135.711 380.304C135.711 380.304 136.805 388.029 133.836 395.935C130.867 403.842 124.958 408.938 124.958 408.938C124.958 408.938 123.865 401.214 126.834 393.307C129.803 385.397 135.711 380.304 135.711 380.304Z" fill="#9EEBF0"/>
<path d="M97.8096 391.114C97.8096 391.114 105.61 391.097 113.033 395.133C120.455 399.169 124.68 405.724 124.68 405.724C124.68 405.724 116.88 405.74 109.457 401.704C102.035 397.668 97.8096 391.114 97.8096 391.114Z" fill="#9EEBF0"/>
<path d="M144.728 408.971C144.728 408.971 145.103 416.765 141.411 424.36C137.72 431.958 131.364 436.481 131.364 436.481C131.364 436.481 130.99 428.688 134.681 421.093C138.373 413.494 144.728 408.971 144.728 408.971Z" fill="#9EEBF0"/>
<path d="M105.985 416.218C105.985 416.218 113.755 416.927 120.767 421.633C127.779 426.338 131.381 433.26 131.381 433.26C131.381 433.26 123.61 432.551 116.598 427.846C109.587 423.14 105.985 416.218 105.985 416.218Z" fill="#9EEBF0"/>
<path d="M152.393 437.21C152.393 437.21 151.912 447.078 146.766 456.267C141.62 465.456 133.757 470.483 133.757 470.483C133.757 470.483 134.237 460.615 139.383 451.426C144.529 442.237 152.393 437.21 152.393 437.21Z" fill="#9EEBF0"/>
<path d="M106.843 442.208C106.843 442.208 115.727 443.931 123.269 450.618C130.811 457.305 134.158 466.417 134.158 466.417C134.158 466.417 125.274 464.694 117.732 458.007C110.19 451.324 106.843 442.208 106.843 442.208Z" fill="#9EEBF0"/>
<path d="M163.143 470.513C163.143 470.513 160.472 483.516 151.747 494.653C143.022 505.791 131.546 510.844 131.546 510.844C131.546 510.844 134.217 497.841 142.942 486.704C151.667 475.566 163.143 470.513 163.143 470.513Z" fill="#9EEBF0"/>
<path d="M101.64 467.759C101.64 467.759 113.076 471.878 121.711 482.31C130.347 492.741 132.912 505.529 132.912 505.529C132.912 505.529 121.476 501.41 112.84 490.978C104.205 480.547 101.64 467.759 101.64 467.759Z" fill="#9EEBF0"/>
<path d="M63.3666 285.274C56.9115 285.274 51.6626 280.025 51.6626 273.57V45.8683C51.6626 39.4132 56.9115 34.1643 63.3666 34.1643H258.209C264.664 34.1643 269.913 39.4132 269.913 45.8683V273.57C269.913 280.025 264.664 285.274 258.209 285.274H63.3666Z" fill="white"/>
<path d="M258.209 34.8269C264.307 34.8269 269.251 39.771 269.251 45.8682V273.57C269.251 279.667 264.307 284.611 258.209 284.611H63.3668C57.2695 284.611 52.3255 279.667 52.3255 273.57V45.8682C52.3255 39.771 57.2695 34.8269 63.3668 34.8269H258.209ZM258.209 33.5015H63.3668C56.5471 33.5015 51 39.0486 51 45.8682V273.57C51 280.389 56.5471 285.936 63.3668 285.936H258.209C265.029 285.936 270.576 280.389 270.576 273.57V45.8682C270.576 39.0486 265.029 33.5015 258.209 33.5015Z" fill="#0DCEDA"/>
<path d="M269.231 67.4372H52.3257V45.865C52.3257 39.7678 57.2697 34.8237 63.367 34.8237H258.19C264.287 34.8237 269.231 39.7678 269.231 45.865V67.4372Z" fill="#0DCEDA"/>
<path d="M315.285 307.664C308.83 307.664 303.581 302.415 303.581 295.96V12.3666C303.581 5.91153 308.83 0.662598 315.285 0.662598H684.001C690.456 0.662598 695.705 5.91153 695.705 12.3666V295.96C695.705 302.415 690.456 307.664 684.001 307.664H315.285Z" fill="white"/>
<path d="M684.001 1.32548C690.098 1.32548 695.042 6.26956 695.042 12.3668V295.96C695.042 302.058 690.098 307.002 684.001 307.002H315.285C309.188 307.002 304.243 302.058 304.243 295.96V12.3668C304.243 6.26956 309.188 1.32548 315.285 1.32548H684.001ZM684.001 0H315.285C308.465 0 302.918 5.54717 302.918 12.3668V295.96C302.918 302.78 308.465 308.327 315.285 308.327H684.001C690.82 308.327 696.368 302.78 696.368 295.96V12.3668C696.368 5.54717 690.82 0 684.001 0Z" fill="#0DCEDA"/>
<path d="M695.042 33.9387H304.243V12.3665C304.243 6.26927 309.187 1.3252 315.285 1.3252H684.001C690.098 1.3252 695.042 6.26927 695.042 12.3665V33.9387Z" fill="#0DCEDA"/>
<path d="M79.213 126.816H78.8816V284.608H79.213V126.816Z" fill="#8A8A8E"/>
<path d="M78.4307 116.828C78.3943 116.828 78.3578 116.815 78.328 116.791L76.8932 115.645L75.4584 116.791C75.4086 116.831 75.3424 116.838 75.2827 116.811C75.2264 116.785 75.1899 116.725 75.1899 116.662V112.354C75.1899 112.262 75.2628 112.189 75.3556 112.189C75.4484 112.189 75.5213 112.262 75.5213 112.354V116.318L76.7905 115.3C76.8501 115.251 76.9363 115.251 76.9992 115.3L78.2684 116.318V112.354C78.2684 112.262 78.3413 112.189 78.4341 112.189C78.5268 112.189 78.5997 112.262 78.5997 112.354V116.662C78.5997 116.725 78.5633 116.785 78.507 116.811C78.4805 116.821 78.4573 116.828 78.4307 116.828Z" fill="#5C5C61"/>
<path d="M82.7386 120.828C82.6458 120.828 82.5729 120.755 82.5729 120.662V113.584C82.5729 113.302 82.4602 113.03 82.2614 112.832C82.0593 112.629 81.7909 112.52 81.5092 112.52H74.7393C74.4543 112.52 74.1859 112.629 73.9871 112.832C73.7883 113.03 73.6756 113.305 73.6756 113.584V120.662C73.6756 120.755 73.6027 120.828 73.5099 120.828C73.4171 120.828 73.3442 120.755 73.3442 120.662V113.584C73.3442 113.216 73.4934 112.855 73.7518 112.596C74.0169 112.331 74.3649 112.189 74.7393 112.189H81.5092C81.8837 112.189 82.2316 112.335 82.4967 112.596C82.7552 112.855 82.9043 113.216 82.9043 113.584V120.662C82.9043 120.755 82.8314 120.828 82.7386 120.828Z" fill="#5C5C61"/>
<path d="M81.8178 121.752H74.4315C73.8317 121.752 73.3413 121.265 73.3413 120.662C73.3413 120.059 73.8284 119.572 74.4315 119.572H81.8178C82.4176 119.572 82.908 120.059 82.908 120.662C82.908 121.265 82.4176 121.752 81.8178 121.752ZM74.4315 119.903C74.014 119.903 73.6727 120.245 73.6727 120.662C73.6727 121.08 74.014 121.421 74.4315 121.421H81.8178C82.2353 121.421 82.5766 121.08 82.5766 120.662C82.5766 120.245 82.2353 119.903 81.8178 119.903H74.4315Z" fill="#5C5C61"/>
<path d="M78.739 126.673C73.3874 126.673 69.0332 122.319 69.0332 116.967C69.0332 111.615 73.3874 107.261 78.739 107.261C84.0907 107.261 88.4449 111.615 88.4449 116.967C88.4449 122.322 84.0907 126.673 78.739 126.673ZM78.739 107.596C73.5697 107.596 69.3646 111.801 69.3646 116.97C69.3646 122.14 73.5697 126.345 78.739 126.345C83.9084 126.345 88.1135 122.136 88.1135 116.97C88.1135 111.801 83.9084 107.596 78.739 107.596Z" fill="#5C5C61"/>
<path d="M269.25 99.1228H52.0005V99.7391H269.25V99.1228Z" fill="#F2F2F2"/>
<path d="M69.4738 55.1667C71.7029 55.1667 73.5099 53.3597 73.5099 51.1306C73.5099 48.9015 71.7029 47.0945 69.4738 47.0945C67.2448 47.0945 65.4377 48.9015 65.4377 51.1306C65.4377 53.3597 67.2448 55.1667 69.4738 55.1667Z" fill="#45E5C2"/>
<path d="M82.3444 55.1667C84.5735 55.1667 86.3805 53.3597 86.3805 51.1306C86.3805 48.9015 84.5735 47.0945 82.3444 47.0945C80.1154 47.0945 78.3083 48.9015 78.3083 51.1306C78.3083 53.3597 80.1154 55.1667 82.3444 55.1667Z" fill="#EBFFFE"/>
<path d="M95.2114 55.1667C97.4405 55.1667 99.2475 53.3597 99.2475 51.1306C99.2475 48.9015 97.4405 47.0945 95.2114 47.0945C92.9823 47.0945 91.1753 48.9015 91.1753 51.1306C91.1753 53.3597 92.9823 55.1667 95.2114 55.1667Z" fill="#EBFFFE"/>
<path d="M319.629 21.6684C321.858 21.6684 323.665 19.8614 323.665 17.6323C323.665 15.4032 321.858 13.5962 319.629 13.5962C317.4 13.5962 315.593 15.4032 315.593 17.6323C315.593 19.8614 317.4 21.6684 319.629 21.6684Z" fill="#45E5C2"/>
<path d="M332.499 21.6684C334.728 21.6684 336.535 19.8614 336.535 17.6323C336.535 15.4032 334.728 13.5962 332.499 13.5962C330.27 13.5962 328.463 15.4032 328.463 17.6323C328.463 19.8614 330.27 21.6684 332.499 21.6684Z" fill="#EBFFFE"/>
<path d="M345.366 21.6684C347.595 21.6684 349.403 19.8614 349.403 17.6323C349.403 15.4032 347.595 13.5962 345.366 13.5962C343.137 13.5962 341.33 15.4032 341.33 17.6323C341.33 19.8614 343.137 21.6684 345.366 21.6684Z" fill="#EBFFFE"/>
<path d="M398.488 372.646H369.845V372.686H398.488V372.646Z" fill="#E8FEFE"/>
<path d="M398.488 372.467H369.845V372.646H398.488V372.467Z" fill="#E8FEFD"/>
<path d="M398.488 372.292H369.845V372.47H398.488V372.292Z" fill="#E7FEFD"/>
<path d="M398.488 372.113H369.845V372.292H398.488V372.113Z" fill="#E7FEFD"/>
<path d="M398.488 371.937H369.845V372.116H398.488V371.937Z" fill="#E6FEFD"/>
<path d="M398.488 371.758H369.845V371.937H398.488V371.758Z" fill="#E6FEFD"/>
<path d="M398.488 371.579H369.845V371.758H398.488V371.579Z" fill="#E5FEFD"/>
<path d="M398.488 371.404H369.845V371.583H398.488V371.404Z" fill="#E5FEFD"/>
<path d="M398.488 371.225H369.845V371.404H398.488V371.225Z" fill="#E4FEFD"/>
<path d="M398.488 371.049H369.845V371.228H398.488V371.049Z" fill="#E4FDFD"/>
<path d="M398.488 370.87H369.845V371.049H398.488V370.87Z" fill="#E3FDFD"/>
<path d="M398.488 370.691H369.845V370.87H398.488V370.691Z" fill="#E3FDFD"/>
<path d="M398.488 370.516H369.845V370.694H398.488V370.516Z" fill="#E2FDFD"/>
<path d="M398.488 370.336H369.845V370.515H398.488V370.336Z" fill="#E1FDFC"/>
<path d="M398.488 370.161H369.845V370.34H398.488V370.161Z" fill="#E1FDFC"/>
<path d="M398.488 369.982H369.845V370.161H398.488V369.982Z" fill="#E0FDFC"/>
<path d="M398.488 369.803H369.845V369.982H398.488V369.803Z" fill="#E0FCFC"/>
<path d="M398.488 369.627H369.845V369.806H398.488V369.627Z" fill="#DFFCFC"/>
<path d="M398.488 369.448H369.845V369.627H398.488V369.448Z" fill="#DEFCFC"/>
<path d="M398.488 369.27H369.845V369.448H398.488V369.27Z" fill="#DEFCFC"/>
<path d="M398.488 369.094H369.845V369.273H398.488V369.094Z" fill="#DDFCFC"/>
<path d="M398.488 368.915H369.845V369.094H398.488V368.915Z" fill="#DCFCFC"/>
<path d="M398.488 368.739H369.845V368.918H398.488V368.739Z" fill="#DCFCFC"/>
<path d="M398.488 368.56H369.845V368.739H398.488V368.56Z" fill="#DBFBFB"/>
<path d="M398.488 368.381H369.845V368.56H398.488V368.381Z" fill="#DAFBFB"/>
<path d="M398.488 368.206H369.845V368.385H398.488V368.206Z" fill="#DAFBFB"/>
<path d="M398.488 368.027H369.845V368.206H398.488V368.027Z" fill="#D9FBFB"/>
<path d="M398.488 367.851H369.845V368.03H398.488V367.851Z" fill="#D8FBFB"/>
<path d="M398.488 367.672H369.845V367.851H398.488V367.672Z" fill="#D7FBFB"/>
<path d="M398.488 367.493H369.845V367.672H398.488V367.493Z" fill="#D7FBFB"/>
<path d="M398.488 367.318H369.845V367.497H398.488V367.318Z" fill="#D6FAFB"/>
<path d="M398.488 367.139H369.845V367.318H398.488V367.139Z" fill="#D5FAFA"/>
<path d="M398.488 366.963H369.845V367.142H398.488V366.963Z" fill="#D5FAFA"/>
<path d="M398.488 366.784H369.845V366.963H398.488V366.784Z" fill="#D4FAFA"/>
<path d="M398.488 366.605H369.845V366.784H398.488V366.605Z" fill="#D3FAFA"/>
<path d="M398.488 366.43H369.845V366.609H398.488V366.43Z" fill="#D2FAFA"/>
<path d="M398.488 366.251H369.845V366.43H398.488V366.251Z" fill="#D1F9FA"/>
<path d="M398.488 366.075H369.845V366.254H398.488V366.075Z" fill="#D1F9FA"/>
<path d="M398.488 365.896H369.845V366.075H398.488V365.896Z" fill="#D0F9FA"/>
<path d="M398.488 365.717H369.845V365.896H398.488V365.717Z" fill="#CFF9F9"/>
<path d="M398.488 365.542H369.845V365.72H398.488V365.542Z" fill="#CEF9F9"/>
<path d="M398.488 365.362H369.845V365.541H398.488V365.362Z" fill="#CEF9F9"/>
<path d="M398.488 365.187H369.845V365.366H398.488V365.187Z" fill="#CDF8F9"/>
<path d="M398.488 365.008H369.845V365.187H398.488V365.008Z" fill="#CCF8F9"/>
<path d="M398.488 364.829H369.845V365.008H398.488V364.829Z" fill="#CBF8F9"/>
<path d="M398.488 364.653H369.845V364.832H398.488V364.653Z" fill="#CAF8F9"/>
<path d="M398.488 364.475H369.845V364.654H398.488V364.475Z" fill="#C9F8F9"/>
<path d="M398.488 364.299H369.845V364.478H398.488V364.299Z" fill="#C9F7F8"/>
<path d="M398.488 364.12H369.845V364.299H398.488V364.12Z" fill="#C8F7F8"/>
<path d="M398.488 363.941H369.845V364.12H398.488V363.941Z" fill="#C7F7F8"/>
<path d="M398.488 363.765H369.845V363.944H398.488V363.765Z" fill="#C6F7F8"/>
<path d="M398.488 363.586H369.845V363.765H398.488V363.586Z" fill="#C5F7F8"/>
<path d="M398.488 363.411H369.845V363.59H398.488V363.411Z" fill="#C4F6F8"/>
<path d="M398.488 363.232H369.845V363.411H398.488V363.232Z" fill="#C4F6F8"/>
<path d="M398.488 363.053H369.845V363.232H398.488V363.053Z" fill="#C3F6F7"/>
<path d="M398.488 362.877H369.845V363.056H398.488V362.877Z" fill="#C2F6F7"/>
<path d="M398.488 362.698H369.845V362.877H398.488V362.698Z" fill="#C1F6F7"/>
<path d="M398.488 362.523H369.845V362.702H398.488V362.523Z" fill="#C0F6F7"/>
<path d="M398.488 362.344H369.845V362.523H398.488V362.344Z" fill="#BFF5F7"/>
<path d="M398.488 362.165H369.845V362.344H398.488V362.165Z" fill="#BEF5F7"/>
<path d="M398.488 361.989H369.845V362.168H398.488V361.989Z" fill="#BDF5F7"/>
<path d="M398.488 361.81H369.845V361.989H398.488V361.81Z" fill="#BCF5F6"/>
<path d="M398.488 361.635H369.845V361.814H398.488V361.635Z" fill="#BCF5F6"/>
<path d="M398.488 361.456H369.845V361.635H398.488V361.456Z" fill="#BBF4F6"/>
<path d="M398.488 361.277H369.845V361.456H398.488V361.277Z" fill="#BAF4F6"/>
<path d="M398.488 361.101H369.845V361.28H398.488V361.101Z" fill="#B9F4F6"/>
<path d="M398.488 360.922H369.845V361.101H398.488V360.922Z" fill="#B8F4F6"/>
<path d="M398.488 360.747H369.845V360.925H398.488V360.747Z" fill="#B7F4F6"/>
<path d="M398.488 360.568H369.845V360.747H398.488V360.568Z" fill="#B6F3F5"/>
<path d="M398.488 360.389H369.845V360.568H398.488V360.389Z" fill="#B5F3F5"/>
<path d="M398.488 360.213H369.845V360.392H398.488V360.213Z" fill="#B4F3F5"/>
<path d="M398.488 360.034H369.845V360.213H398.488V360.034Z" fill="#B3F3F5"/>
<path d="M398.488 359.859H369.845V360.038H398.488V359.859Z" fill="#B2F2F5"/>
<path d="M398.488 359.68H369.845V359.859H398.488V359.68Z" fill="#B1F2F5"/>
<path d="M398.488 359.501H369.845V359.68H398.488V359.501Z" fill="#B0F2F4"/>
<path d="M398.488 359.325H369.845V359.504H398.488V359.325Z" fill="#AFF2F4"/>
<path d="M398.488 359.146H369.845V359.325H398.488V359.146Z" fill="#AEF2F4"/>
<path d="M398.488 358.97H369.845V359.149H398.488V358.97Z" fill="#ADF1F4"/>
<path d="M398.488 358.792H369.845V358.97H398.488V358.792Z" fill="#ACF1F4"/>
<path d="M398.488 358.612H369.845V358.791H398.488V358.612Z" fill="#ACF1F4"/>
<path d="M398.488 358.437H369.845V358.616H398.488V358.437Z" fill="#ABF1F4"/>
<path d="M398.488 358.258H369.845V358.437H398.488V358.258Z" fill="#AAF1F3"/>
<path d="M398.488 358.082H369.845V358.261H398.488V358.082Z" fill="#A9F0F3"/>
<path d="M398.488 357.904H369.845V358.083H398.488V357.904Z" fill="#A8F0F3"/>
<path d="M398.488 357.725H369.845V357.904H398.488V357.725Z" fill="#A7F0F3"/>
<path d="M398.488 357.549H369.845V357.728H398.488V357.549Z" fill="#A6F0F3"/>
<path d="M398.488 357.37H369.845V357.549H398.488V357.37Z" fill="#A5EFF3"/>
<path d="M398.488 357.194H369.845V357.373H398.488V357.194Z" fill="#A4EFF2"/>
<path d="M398.488 357.015H369.845V357.194H398.488V357.015Z" fill="#A3EFF2"/>
<path d="M398.488 356.836H369.845V357.015H398.488V356.836Z" fill="#A2EFF2"/>
<path d="M398.488 356.661H369.845V356.84H398.488V356.661Z" fill="#A0EFF2"/>
<path d="M398.488 356.482H369.845V356.661H398.488V356.482Z" fill="#9FEEF2"/>
<path d="M398.488 356.306H369.845V356.485H398.488V356.306Z" fill="#9EEEF2"/>
<path d="M398.488 356.127H369.845V356.306H398.488V356.127Z" fill="#9DEEF1"/>
<path d="M398.488 355.948H369.845V356.127H398.488V355.948Z" fill="#9CEEF1"/>
<path d="M398.488 355.773H369.845V355.952H398.488V355.773Z" fill="#9BEDF1"/>
<path d="M398.488 355.594H369.845V355.773H398.488V355.594Z" fill="#9AEDF1"/>
<path d="M398.488 355.418H369.845V355.597H398.488V355.418Z" fill="#99EDF1"/>
<path d="M398.488 355.239H369.845V355.418H398.488V355.239Z" fill="#98EDF1"/>
<path d="M398.488 355.06H369.845V355.239H398.488V355.06Z" fill="#97ECF0"/>
<path d="M398.488 354.885H369.845V355.064H398.488V354.885Z" fill="#96ECF0"/>
<path d="M398.488 354.706H369.845V354.885H398.488V354.706Z" fill="#95ECF0"/>
<path d="M398.488 354.527H369.845V354.706H398.488V354.527Z" fill="#94ECF0"/>
<path d="M398.488 354.351H369.845V354.53H398.488V354.351Z" fill="#93ECF0"/>
<path d="M398.488 354.172H369.845V354.351H398.488V354.172Z" fill="#92EBF0"/>
<path d="M398.488 353.997H369.845V354.176H398.488V353.997Z" fill="#91EBEF"/>
<path d="M398.488 353.818H369.845V353.997H398.488V353.818Z" fill="#90EBEF"/>
<path d="M398.488 353.639H369.845V353.818H398.488V353.639Z" fill="#8FEBEF"/>
<path d="M398.488 353.463H369.845V353.642H398.488V353.463Z" fill="#8DEAEF"/>
<path d="M398.488 353.284H369.845V353.463H398.488V353.284Z" fill="#8CEAEF"/>
<path d="M398.488 353.108H369.845V353.287H398.488V353.108Z" fill="#8BEAEE"/>
<path d="M398.488 352.93H369.845V353.109H398.488V352.93Z" fill="#8AEAEE"/>
<path d="M398.488 352.751H369.845V352.93H398.488V352.751Z" fill="#89E9EE"/>
<path d="M398.488 352.575H369.845V352.754H398.488V352.575Z" fill="#88E9EE"/>
<path d="M398.488 352.396H369.845V352.575H398.488V352.396Z" fill="#87E9EE"/>
<path d="M398.488 352.22H369.845V352.399H398.488V352.22Z" fill="#86E9EE"/>
<path d="M398.488 352.042H369.845V352.22H398.488V352.042Z" fill="#85E8ED"/>
<path d="M398.488 351.863H369.845V352.042H398.488V351.863Z" fill="#84E8ED"/>
<path d="M398.488 351.687H369.845V351.866H398.488V351.687Z" fill="#82E8ED"/>
<path d="M398.488 351.508H369.845V351.687H398.488V351.508Z" fill="#81E8ED"/>
<path d="M398.488 351.332H369.845V351.511H398.488V351.332Z" fill="#80E7ED"/>
<path d="M398.488 351.154H369.845V351.333H398.488V351.154Z" fill="#7FE7ED"/>
<path d="M398.488 350.975H369.845V351.154H398.488V350.975Z" fill="#7EE7EC"/>
<path d="M398.488 350.799H369.845V350.978H398.488V350.799Z" fill="#7DE7EC"/>
<path d="M398.488 350.62H369.845V350.799H398.488V350.62Z" fill="#7CE6EC"/>
<path d="M398.488 350.444H369.845V350.623H398.488V350.444Z" fill="#7BE6EC"/>
<path d="M398.488 350.265H369.845V350.444H398.488V350.265Z" fill="#79E6EC"/>
<path d="M398.488 350.086H369.845V350.265H398.488V350.086Z" fill="#78E6EB"/>
<path d="M398.488 349.911H369.845V350.09H398.488V349.911Z" fill="#77E5EB"/>
<path d="M398.488 349.732H369.845V349.911H398.488V349.732Z" fill="#76E5EB"/>
<path d="M398.488 349.556H369.845V349.735H398.488V349.556Z" fill="#75E5EB"/>
<path d="M398.488 349.377H369.845V349.556H398.488V349.377Z" fill="#74E5EB"/>
<path d="M398.488 349.198H369.845V349.377H398.488V349.198Z" fill="#72E4EA"/>
<path d="M398.488 349.023H369.845V349.202H398.488V349.023Z" fill="#71E4EA"/>
<path d="M398.488 348.844H369.845V349.023H398.488V348.844Z" fill="#70E4EA"/>
<path d="M398.488 348.668H369.845V348.847H398.488V348.668Z" fill="#6FE4EA"/>
<path d="M398.488 348.489H369.845V348.668H398.488V348.489Z" fill="#6EE3EA"/>
<path d="M398.488 348.31H369.845V348.489H398.488V348.31Z" fill="#6DE3EA"/>
<path d="M398.488 348.135H369.845V348.313H398.488V348.135Z" fill="#6BE3E9"/>
<path d="M398.488 347.956H369.845V348.135H398.488V347.956Z" fill="#6AE3E9"/>
<path d="M398.488 347.78H369.845V347.959H398.488V347.78Z" fill="#69E2E9"/>
<path d="M398.488 347.601H369.845V347.78H398.488V347.601Z" fill="#68E2E9"/>
<path d="M398.488 347.422H369.845V347.601H398.488V347.422Z" fill="#67E2E9"/>
<path d="M398.488 347.247H369.845V347.426H398.488V347.247Z" fill="#66E2E8"/>
<path d="M398.488 347.068H369.845V347.247H398.488V347.068Z" fill="#64E1E8"/>
<path d="M398.488 346.892H369.845V347.071H398.488V346.892Z" fill="#63E1E8"/>
<path d="M398.488 346.713H369.845V346.892H398.488V346.713Z" fill="#62E1E8"/>
<path d="M398.488 346.534H369.845V346.713H398.488V346.534Z" fill="#61E0E8"/>
<path d="M398.488 346.358H369.845V346.537H398.488V346.358Z" fill="#60E0E7"/>
<path d="M398.488 346.179H369.845V346.358H398.488V346.179Z" fill="#5EE0E7"/>
<path d="M398.488 346.004H369.845V346.183H398.488V346.004Z" fill="#5DE0E7"/>
<path d="M398.488 345.825H369.845V346.004H398.488V345.825Z" fill="#5CDFE7"/>
<path d="M398.488 345.646H369.845V345.825H398.488V345.646Z" fill="#5BDFE7"/>
<path d="M398.488 345.47H369.845V345.649H398.488V345.47Z" fill="#59DFE6"/>
<path d="M398.488 345.292H369.845V345.47H398.488V345.292Z" fill="#58DFE6"/>
<path d="M398.488 345.116H369.845V345.295H398.488V345.116Z" fill="#57DEE6"/>
<path d="M398.488 344.937H369.845V345.116H398.488V344.937Z" fill="#56DEE6"/>
<path d="M398.488 344.758H369.845V344.937H398.488V344.758Z" fill="#55DEE6"/>
<path d="M398.488 344.582H369.845V344.761H398.488V344.582Z" fill="#53DEE5"/>
<path d="M398.488 344.404H369.845V344.583H398.488V344.404Z" fill="#52DDE5"/>
<path d="M398.488 344.229H369.845V344.408H398.488V344.229Z" fill="#51DDE5"/>
<path d="M398.489 344.172H369.845V344.225H398.489V344.172Z" fill="#50DDE5"/>
<path d="M377.363 378.555C376.999 378.555 376.701 378.256 376.701 377.892V358.361C376.701 357.996 376.999 357.698 377.363 357.698C377.728 357.698 378.026 357.996 378.026 358.361V377.892C378.026 378.26 377.728 378.555 377.363 378.555Z" fill="#0DCEDA"/>
<path d="M377.363 378.555C377.304 378.555 377.248 378.548 377.188 378.532L362.866 374.625C362.578 374.545 362.379 374.283 362.379 373.985V354.454C362.379 354.249 362.475 354.053 362.641 353.927C362.806 353.801 363.018 353.762 363.217 353.815L377.363 357.672L391.51 353.815C391.709 353.762 391.924 353.801 392.086 353.927C392.252 354.053 392.348 354.249 392.348 354.454V373.985C392.348 374.283 392.149 374.545 391.861 374.625L377.539 378.532C377.479 378.548 377.42 378.555 377.363 378.555ZM363.704 373.481L377.363 377.206L391.023 373.481V355.326L377.539 359.004C377.423 359.034 377.304 359.034 377.191 359.004L363.708 355.326V373.481H363.704Z" fill="#0DCEDA"/>
<path d="M391.685 382.461H363.042C362.677 382.461 362.379 382.163 362.379 381.799V379.194C362.379 378.829 362.677 378.531 363.042 378.531C363.406 378.531 363.704 378.829 363.704 379.194V381.136H391.023V379.194C391.023 378.829 391.321 378.531 391.685 378.531C392.05 378.531 392.348 378.829 392.348 379.194V381.799C392.348 382.166 392.05 382.461 391.685 382.461Z" fill="#45E5C2"/>
<path d="M458.201 374.83L461.479 372.189C463.235 370.28 464.971 368.348 467.029 366.754C467.092 366.705 467.158 366.661 467.228 366.622C467.483 366.161 467.838 365.916 468.212 365.836L458.536 340.036L449.92 317.834L443.624 316.509C443.624 316.509 434.346 322.805 437.991 339.373C441.636 355.942 444.284 367.871 458.201 374.83Z" fill="black"/>
<path d="M483.717 336.722C483.717 340.384 481.046 343.35 477.752 343.35C476.728 343.35 475.764 343.061 474.922 342.554C473.136 350.444 466.847 356.273 459.361 356.273C450.484 356.273 443.29 348.075 443.29 337.965C443.29 327.855 450.484 319.657 459.361 319.657C466.171 319.657 471.993 324.481 474.332 331.294C475.3 330.539 476.48 330.095 477.752 330.095C481.046 330.095 483.717 333.061 483.717 336.722Z" fill="#FFD3CA"/>
<path d="M448.757 400.511L441.136 413.766L414.964 421.553L421.916 428.678L443.826 424.297C447.8 423.502 451.229 421.02 453.227 417.494L460.349 404.918L451.74 399.186L448.757 400.511Z" fill="#D68F83"/>
<path d="M462.198 355.988L465.989 364.392C465.989 364.392 471.291 367.043 475.93 361.741L476.592 343.184L470.296 341.527L462.198 355.988Z" fill="#FFD3CA"/>
<path d="M465.823 364.226C465.823 364.226 459.113 365.896 448.26 400.345C448.26 400.345 458.984 405.154 462.629 405.485L469.392 408.944C470.3 408.822 488.028 432.816 484.708 456.678L526.792 452.039C526.792 452.039 512.212 375.824 497.3 362.901C497.3 362.901 486.033 357.267 481.063 360.581L475.761 361.575C475.764 361.575 472.119 366.214 465.823 364.226Z" fill="#FBB03B"/>
<path d="M615.129 307.002H377.403V243.465C377.403 240.833 379.537 238.699 382.168 238.699H610.36C612.991 238.699 615.125 240.833 615.125 243.465V307.002H615.129Z" fill="#9EEBF0"/>
<path d="M443.621 316.509C443.621 316.509 448.923 325.124 457.87 327.113C466.817 329.101 474.77 331.42 475.101 348.983C475.101 348.983 477.421 338.379 474.439 331.42C474.439 331.42 479.237 327.335 482.889 333.906C486.202 339.87 477.895 344.41 476.261 342.853L475.101 385.765L495.978 371.848C495.978 371.848 497.147 384.99 500.285 390.073C504.795 397.38 511.552 402.996 516.523 407.304C516.523 407.304 526.132 367.871 502.936 328.107C479.74 288.342 450.249 293.975 443.621 316.509Z" fill="black"/>
<path d="M447.985 338.339C448.944 338.339 449.722 337.198 449.722 335.791C449.722 334.384 448.944 333.243 447.985 333.243C447.026 333.243 446.249 334.384 446.249 335.791C446.249 337.198 447.026 338.339 447.985 338.339Z" fill="#B55445"/>
<path d="M461.177 338.339C462.136 338.339 462.914 337.198 462.914 335.791C462.914 334.384 462.136 333.243 461.177 333.243C460.218 333.243 459.441 334.384 459.441 335.791C459.441 337.198 460.218 338.339 461.177 338.339Z" fill="#B55445"/>
<path d="M454.722 343.847C454.692 343.847 454.659 343.843 454.626 343.84C454.344 343.8 451.852 343.396 451.425 341.689C451.057 340.211 452.774 336.371 453.122 335.619C453.274 335.287 453.668 335.141 454 335.294C454.331 335.446 454.477 335.841 454.324 336.172C453.416 338.144 452.538 340.689 452.707 341.368C452.873 342.037 454.195 342.438 454.811 342.531C455.173 342.584 455.425 342.919 455.372 343.283C455.332 343.611 455.047 343.847 454.722 343.847Z" fill="#E2765A"/>
<path d="M549.66 488.158H480.072V494.123H549.66V488.158Z" fill="#59302F"/>
<path d="M549.66 377.149H543.364V580.624H549.66V377.149Z" fill="#59302F"/>
<path d="M486.368 488.158H480.072V580.624H486.368V488.158Z" fill="#59302F"/>
<path d="M543.364 377.149H542.837C537.263 377.149 532.906 381.961 533.459 387.505L534.579 398.781C536.014 413.252 535.812 427.842 533.973 442.27C533.012 449.806 535.948 457.311 541.767 462.196L543.367 463.538V377.149H543.364Z" fill="#09A9BA"/>
<path d="M434.011 481.531C403.542 508.15 366.458 540.737 342.583 567.356H354.181C354.181 567.356 448.777 495.571 469.395 493.192L434.011 481.531Z" fill="#3F87A0"/>
<path d="M475.598 400.842L472.616 412.44C472.616 412.44 438.154 401.174 435.834 400.842C433.514 400.511 426.556 398.191 425.893 398.191C425.23 398.191 410.65 400.18 409.656 402.499C408.662 404.819 406.342 411.115 407.999 411.446C409.656 411.778 422.579 404.819 425.23 404.819C427.881 404.819 464.995 424.701 473.942 425.695C482.889 426.689 487.528 416.085 489.185 403.493C489.185 403.493 483.551 403.162 475.598 400.842Z" fill="#FFD3CA"/>
<path d="M484.38 456.678L452.697 467.474C444.112 470.4 436.845 476.285 432.199 484.076C416.923 509.681 402.713 537.662 389.276 567.356H401.981C416.426 542.221 434.724 520.083 453.247 500.243C455.981 496.552 460.137 494.176 464.703 493.689L512.139 489.232C512.377 489.205 512.612 489.176 512.851 489.143C523.916 487.572 531.318 476.892 529.317 465.897L526.795 452.036L484.38 456.678Z" fill="#5CA8C8"/>
<path d="M214.226 434.841L204.892 580.624H198.917L208.275 434.457L214.226 434.841Z" fill="#5C3132"/>
<path d="M430.85 580.624H424.875L415.541 434.841L421.492 434.457L430.85 580.624Z" fill="#5C3132"/>
<path d="M436.434 442.098H189.162C185.192 442.098 181.971 438.88 181.971 434.907V428.741C181.971 424.771 185.189 421.55 189.162 421.55H436.434C440.404 421.55 443.625 424.767 443.625 428.741V434.907C443.621 438.88 440.404 442.098 436.434 442.098Z" fill="#805251"/>
<path d="M379.166 421.566H370.402L321.014 372.179L326.717 372.238C328.735 372.258 330.667 373.07 332.095 374.498L373.52 415.92L379.166 421.566Z" fill="#999999"/>
<path d="M435.668 415.92V421.553H379.153L373.52 415.92H435.668Z" fill="#4D4D4D"/>
<path d="M462.198 355.988C462.198 355.988 467.529 354.155 470.515 350.732C470.515 350.732 466.89 358.533 464.212 360.452L462.198 355.988Z" fill="#E2765A"/>
<path d="M458.745 351.521C457.966 351.521 457.433 351.389 457.383 351.375C457.028 351.283 456.816 350.921 456.906 350.567C456.999 350.212 457.356 349.997 457.711 350.09C457.817 350.116 460.087 350.656 461.933 349.043C462.208 348.801 462.628 348.831 462.867 349.106C463.106 349.381 463.079 349.801 462.804 350.04C461.409 351.259 459.838 351.521 458.745 351.521Z" fill="#E2765A"/>
<path d="M481.059 337.034C481.029 337.034 480.996 337.03 480.966 337.02C480.791 336.971 480.688 336.785 480.741 336.61C480.761 336.537 481.228 334.82 479.962 333.472C478.743 332.173 477.073 333.097 477 333.137C476.841 333.226 476.639 333.17 476.549 333.011C476.46 332.852 476.513 332.65 476.672 332.56C477.424 332.129 479.18 331.672 480.446 333.017C481.977 334.648 481.404 336.709 481.381 336.795C481.334 336.941 481.205 337.034 481.059 337.034Z" fill="#2B1506"/>
<path d="M342.583 567.356C342.583 567.356 339.008 569.997 331.515 571.055C324.023 572.112 312.78 575.783 314.221 580.624H352.362L353.419 567.356H342.583Z" fill="#59302F"/>
<path d="M389.392 567.356C389.392 567.356 385.817 569.997 378.325 571.055C370.832 572.112 359.589 575.783 361.03 580.624H399.171L400.228 567.356H389.392Z" fill="#59302F"/>
<path d="M445.58 345.663C447.73 345.663 449.473 344.553 449.473 343.184C449.473 341.815 447.73 340.705 445.58 340.705C443.429 340.705 441.686 341.815 441.686 343.184C441.686 344.553 443.429 345.663 445.58 345.663Z" fill="#FF8483"/>
<path d="M462.914 345.169C465.064 345.169 466.807 344.059 466.807 342.69C466.807 341.321 465.064 340.211 462.914 340.211C460.763 340.211 459.02 341.321 459.02 342.69C459.02 344.059 460.763 345.169 462.914 345.169Z" fill="#FF8483"/>
<path d="M474.435 389.947C474.316 385.795 475.804 381.776 477.269 377.872C478.399 374.86 479.532 371.848 480.662 368.836C481.222 367.341 481.818 365.797 482.978 364.674C484.99 362.728 488.389 362.573 490.878 363.898C493.367 365.224 494.994 367.762 495.709 370.43C496.425 373.097 496.332 375.904 496.077 378.647C495.305 386.952 493.145 395.693 490.961 403.752C485.821 403.537 480.675 402.145 475.708 400.863C474.893 400.65 474.024 400.392 473.504 399.746C472.805 398.881 472.971 397.648 473.17 396.565C474.101 391.515 475.032 386.468 475.966 381.418" fill="#FAB03A"/>
<path d="M470.913 409.899C470.87 409.899 470.83 409.892 470.787 409.882C463.308 407.917 457.884 401.661 456.571 398.052C456.213 397.061 456.194 396.329 456.515 395.875C457.39 394.639 462.808 381.142 464.819 376.046C464.919 375.791 465.21 375.665 465.465 375.768C465.72 375.867 465.846 376.159 465.744 376.414C465.445 377.166 458.45 394.868 457.323 396.455C457.274 396.528 457.204 396.896 457.502 397.718C458.742 401.127 463.901 407.052 471.036 408.924C471.301 408.994 471.46 409.266 471.39 409.531C471.334 409.75 471.132 409.899 470.913 409.899Z" fill="#E2765A"/>
<path d="M491.822 404.395L491.441 404.378C480.41 403.914 472.825 399.663 472.752 399.62L472.457 399.451L474.651 384.198C474.69 383.926 474.946 383.737 475.214 383.777C475.486 383.817 475.675 384.069 475.635 384.34L473.537 398.914C474.995 399.67 481.729 402.897 491.1 403.368L495.792 388.482C495.875 388.221 496.153 388.075 496.415 388.158C496.677 388.241 496.823 388.519 496.74 388.781L491.822 404.395Z" fill="#E2765A"/>
<path d="M259.73 421.553H230.928C229.775 421.553 228.84 420.619 228.84 419.465V412.241C228.84 411.088 229.775 410.154 230.928 410.154H259.73C262.878 410.154 265.43 412.705 265.43 415.853C265.43 419.001 262.878 421.553 259.73 421.553Z" fill="#0DCEDA"/>
<path d="M259.263 419.465H216.145V412.241H259.263C261.258 412.241 262.875 413.859 262.875 415.853C262.872 417.848 261.255 419.465 259.263 419.465Z" fill="white"/>
<path d="M258.584 419.466H214.227V421.553H258.584V419.466Z" fill="#0DCEDA"/>
<path d="M258.584 410.154H214.227V412.241H258.584V410.154Z" fill="#0DCEDA"/>
<path d="M219.926 409.822H248.729C249.882 409.822 250.817 408.888 250.817 407.735V400.511C250.817 399.358 249.882 398.423 248.729 398.423H219.926C216.778 398.423 214.227 400.975 214.227 404.123C214.227 407.271 216.778 409.822 219.926 409.822Z" fill="#F15A24"/>
<path d="M220.397 407.735H263.515V400.511H220.397C218.402 400.511 216.785 402.128 216.785 404.123C216.785 406.118 218.402 407.735 220.397 407.735Z" fill="white"/>
<path d="M221.073 409.824L265.431 409.824L265.431 407.736L221.073 407.736L221.073 409.824Z" fill="#F15A24"/>
<path d="M221.073 400.513L265.431 400.513L265.431 398.426L221.073 398.426L221.073 400.513Z" fill="#F15A24"/>
<path d="M219.926 398.182H248.729C249.882 398.182 250.817 397.247 250.817 396.094V388.87C250.817 387.717 249.882 386.782 248.729 386.782H219.926C216.778 386.782 214.227 389.334 214.227 392.482C214.227 395.63 216.778 398.182 219.926 398.182Z" fill="#42210B"/>
<path d="M220.397 396.094H263.515V388.87H220.397C218.402 388.87 216.785 390.487 216.785 392.482C216.785 394.477 218.402 396.094 220.397 396.094Z" fill="white"/>
<path d="M221.073 398.182L265.431 398.182L265.431 396.094L221.073 396.094L221.073 398.182Z" fill="#42210B"/>
<path d="M221.073 388.872L265.431 388.872L265.431 386.784L221.073 386.784L221.073 388.872Z" fill="#42210B"/>
<path d="M169.167 116.881H95.5429C94.4593 116.881 93.5845 116.003 93.5845 114.923V108.521C93.5845 107.437 94.4626 106.562 95.5429 106.562H169.167C170.25 106.562 171.125 107.44 171.125 108.521V114.923C171.125 116.003 170.247 116.881 169.167 116.881Z" fill="#3CC2D1"/>
<path d="M169.498 90.3052H67.3961C66.3126 90.3052 65.4377 89.4271 65.4377 88.3468V81.9447C65.4377 80.8612 66.3159 79.9863 67.3961 79.9863H169.498C170.582 79.9863 171.456 80.8645 171.456 81.9447V88.3468C171.456 89.4271 170.578 90.3052 169.498 90.3052Z" fill="#3CC2D1"/>
<path d="M555.237 57.2178H315.831C314.748 57.2178 313.873 56.3397 313.873 55.2594V48.8573C313.873 47.7738 314.751 46.8989 315.831 46.8989H555.237C556.32 46.8989 557.195 47.7771 557.195 48.8573V55.2594C557.195 56.3397 556.317 57.2178 555.237 57.2178Z" fill="#3CC2D1"/>
<path d="M439.34 93.2178H333.748C332.665 93.2178 331.79 92.3397 331.79 91.2594V83.7704C331.79 82.6868 332.668 81.812 333.748 81.812H439.343C440.427 81.812 441.301 82.6902 441.301 83.7704V91.2594C441.301 92.3397 440.423 93.2178 439.34 93.2178Z" fill="#3CC2D1"/>
<path d="M439.34 226.949H333.748C332.665 226.949 331.79 226.071 331.79 224.991V217.502C331.79 216.418 332.668 215.543 333.748 215.543H439.343C440.427 215.543 441.301 216.422 441.301 217.502V224.991C441.301 226.074 440.423 226.949 439.34 226.949Z" fill="#3CC2D1"/>
<path d="M138.266 128.917H95.5429C94.4593 128.917 93.5845 128.038 93.5845 126.958V120.556C93.5845 119.472 94.4626 118.598 95.5429 118.598H138.263C139.347 118.598 140.222 119.476 140.222 120.556V126.958C140.225 128.042 139.347 128.917 138.266 128.917Z" fill="#C5EDF1"/>
<path d="M152.34 150.704H109.62C108.536 150.704 107.661 149.826 107.661 148.745V142.343C107.661 141.26 108.539 140.385 109.62 140.385H152.34C153.423 140.385 154.298 141.263 154.298 142.343V148.745C154.302 149.826 153.423 150.704 152.34 150.704Z" fill="#C5EDF1"/>
<path d="M237.926 173.502H109.62C108.536 173.502 107.661 172.624 107.661 171.544V165.142C107.661 164.058 108.539 163.183 109.62 163.183H237.926C239.01 163.183 239.885 164.062 239.885 165.142V171.544C239.888 172.627 239.01 173.502 237.926 173.502Z" fill="#C5EDF1"/>
<path d="M237.926 242.537H109.62C108.536 242.537 107.661 241.659 107.661 240.578V234.176C107.661 233.093 108.539 232.218 109.62 232.218H237.926C239.01 232.218 239.885 233.096 239.885 234.176V240.578C239.888 241.662 239.01 242.537 237.926 242.537Z" fill="#D8F3F6"/>
<path d="M167.242 185.8H109.62C108.536 185.8 107.661 184.921 107.661 183.841V177.439C107.661 176.356 108.539 175.481 109.62 175.481H167.238C168.322 175.481 169.197 176.359 169.197 177.439V183.841C169.2 184.921 168.322 185.8 167.242 185.8Z" fill="#C5EDF1"/>
<path d="M237.926 264.854H109.62C108.536 264.854 107.661 263.976 107.661 262.896V256.494C107.661 255.41 108.539 254.536 109.62 254.536H237.926C239.01 254.536 239.885 255.414 239.885 256.494V262.896C239.888 263.976 239.01 264.854 237.926 264.854Z" fill="#D8F3F6"/>
<path d="M167.242 277.149H109.62C108.536 277.149 107.661 276.27 107.661 275.19V268.788C107.661 267.704 108.539 266.83 109.62 266.83H167.238C168.322 266.83 169.197 267.708 169.197 268.788V275.19C169.2 276.27 168.322 277.149 167.242 277.149Z" fill="#D8F3F6"/>
<path d="M237.926 208.061H109.62C108.536 208.061 107.661 207.183 107.661 206.102V199.7C107.661 198.617 108.539 197.742 109.62 197.742H237.926C239.01 197.742 239.885 198.62 239.885 199.7V206.102C239.888 207.183 239.01 208.061 237.926 208.061Z" fill="#0DCEDA"/>
<path d="M187.75 220.358H109.62C108.536 220.358 107.661 219.48 107.661 218.4V211.997C107.661 210.914 108.539 210.039 109.62 210.039H187.75C188.834 210.039 189.708 210.917 189.708 211.997V218.4C189.708 219.48 188.83 220.358 187.75 220.358Z" fill="#0DCEDA"/>
<path d="M610.659 205.715H382.467C379.836 205.715 377.702 203.581 377.702 200.949V118.657C377.702 116.026 379.836 113.892 382.467 113.892H610.659C613.29 113.892 615.424 116.026 615.424 118.657V200.946C615.424 203.581 613.29 205.715 610.659 205.715Z" fill="#9EEBF0"/>
<path d="M78.7391 127.15C84.2697 127.15 88.7531 122.667 88.7531 117.136C88.7531 111.605 84.2697 107.122 78.7391 107.122C73.2085 107.122 68.7251 111.605 68.7251 117.136C68.7251 122.667 73.2085 127.15 78.7391 127.15Z" fill="#3CC2D1"/>
<path d="M98.5881 150.73C101.452 150.73 103.774 148.408 103.774 145.544C103.774 142.68 101.452 140.358 98.5881 140.358C95.7239 140.358 93.4021 142.68 93.4021 145.544C93.4021 148.408 95.7239 150.73 98.5881 150.73Z" fill="#80D7E1"/>
<path d="M98.5881 173.042C101.452 173.042 103.774 170.72 103.774 167.856C103.774 164.992 101.452 162.67 98.5881 162.67C95.7239 162.67 93.4021 164.992 93.4021 167.856C93.4021 170.72 95.7239 173.042 98.5881 173.042Z" fill="#80D7E1"/>
<path d="M98.5881 207.696C101.452 207.696 103.774 205.375 103.774 202.51C103.774 199.646 101.452 197.324 98.5881 197.324C95.7239 197.324 93.4021 199.646 93.4021 202.51C93.4021 205.375 95.7239 207.696 98.5881 207.696Z" fill="#0DCEDA"/>
<path d="M98.5881 241.97C101.452 241.97 103.774 239.648 103.774 236.784C103.774 233.92 101.452 231.598 98.5881 231.598C95.7239 231.598 93.4021 233.92 93.4021 236.784C93.4021 239.648 95.7239 241.97 98.5881 241.97Z" fill="#80D7E1"/>
<path d="M98.5881 264.364C101.452 264.364 103.774 262.042 103.774 259.178C103.774 256.314 101.452 253.992 98.5881 253.992C95.7239 253.992 93.4021 256.314 93.4021 259.178C93.4021 262.042 95.7239 264.364 98.5881 264.364Z" fill="#80D7E1"/>
<path d="M694.539 280.511L717.589 273.317L710.409 250.223L687.359 257.417L694.539 280.511Z" fill="#64A7F4"/>
<path d="M2.77847 306.737L15.7727 328.284L35.8508 316.808L22.8566 295.261L2.77847 306.737Z" fill="#EAE6FA"/>
<path d="M270.586 173.07L285.675 178.358L291.693 162.547L276.603 157.259L270.586 173.07Z" fill="#FF7D7D"/>
<path d="M537.781 526L548.062 506.471L526.011 507.31L537.781 526Z" fill="#FFBFBE"/>
<path d="M479.259 186.825L478.189 185.94C480.376 183.329 483.353 183.563 485.912 183.749C488.377 183.935 490.703 184.122 492.471 182.071C494.239 180.02 493.681 177.736 493.076 175.313C492.471 172.796 491.773 169.906 494.006 167.296C496.193 164.686 499.17 164.919 501.728 165.105C504.194 165.292 506.52 165.478 508.288 163.427C510.055 161.377 509.497 159.093 508.892 156.669C508.288 154.152 507.59 151.262 509.823 148.652C512.009 146.042 514.987 146.275 517.545 146.462C520.011 146.648 522.337 146.834 524.104 144.784L525.174 145.669C522.988 148.279 520.011 148.046 517.452 147.86C514.987 147.673 512.661 147.487 510.893 149.538C509.125 151.589 509.683 153.872 510.288 156.296C510.893 158.813 511.591 161.703 509.358 164.313C507.171 166.923 504.194 166.69 501.635 166.504C499.17 166.317 496.844 166.131 495.076 168.181C493.308 170.232 493.867 172.516 494.471 174.94C495.076 177.457 495.774 180.346 493.541 182.957C491.355 185.567 488.377 185.334 485.819 185.147C483.353 184.914 481.027 184.728 479.259 186.825Z" fill="#FFB5A9"/>
<path d="M199.349 180.347C196.558 178.389 196.512 175.406 196.512 172.842C196.465 170.372 196.465 167.995 194.232 166.457C192.046 164.872 189.813 165.618 187.44 166.41C184.975 167.249 182.184 168.182 179.392 166.177C176.601 164.22 176.555 161.237 176.555 158.673C176.508 156.203 176.508 153.826 174.275 152.288C172.089 150.703 169.856 151.449 167.483 152.241C165.018 153.08 162.226 154.012 159.435 152.008C156.644 150.051 156.598 147.068 156.598 144.504C156.551 142.034 156.551 139.657 154.318 138.119L155.109 137C157.9 138.958 157.947 141.941 157.947 144.504C157.993 146.974 157.993 149.351 160.226 150.89C162.413 152.474 164.646 151.728 167.018 150.936C169.484 150.097 172.275 149.165 175.066 151.169C177.857 153.127 177.904 156.11 177.904 158.673C177.95 161.144 177.95 163.521 180.183 165.059C182.416 166.597 184.603 165.898 186.975 165.105C189.441 164.266 192.232 163.334 195.023 165.338C197.814 167.296 197.861 170.279 197.861 172.842C197.907 175.313 197.907 177.69 200.14 179.228L199.349 180.347Z" fill="#64A7F4"/>
<path d="M717.394 462.425C714.277 461.027 713.719 458.137 713.161 455.574C712.649 453.15 712.184 450.82 709.718 449.701C707.253 448.582 705.206 449.748 703.066 450.959C700.787 452.218 698.228 453.663 695.158 452.264C692.041 450.866 691.483 447.976 690.925 445.413C690.413 442.989 689.948 440.659 687.482 439.54C685.016 438.421 682.97 439.587 680.83 440.799C678.55 442.057 675.992 443.502 672.921 442.104C669.805 440.705 669.246 437.816 668.688 435.252C668.176 432.828 667.711 430.498 665.246 429.379L665.804 428.121C668.921 429.519 669.479 432.409 670.037 434.972C670.549 437.396 671.014 439.727 673.48 440.845C675.945 441.964 677.992 440.799 680.132 439.587C682.411 438.328 684.97 436.883 688.04 438.282C691.157 439.68 691.715 442.57 692.274 445.133C692.785 447.557 693.25 449.887 695.716 451.006C698.182 452.125 700.228 450.959 702.368 449.748C704.648 448.489 707.206 447.044 710.277 448.442C713.394 449.841 713.952 452.731 714.51 455.294C715.022 457.718 715.487 460.048 717.952 461.167L717.394 462.425Z" fill="#64A7F4"/>
<path d="M386.964 170.652H357.052V140.682H386.964V170.652ZM359.378 168.321H384.638V143.013H359.378V168.321Z" fill="#0DCEDA"/>
<path d="M373.473 158.673L385.661 189.062L391.011 176.198L403.804 170.885L373.473 158.673Z" fill="#FAD5B1"/>
<path d="M69.8377 382.444L47.6477 370.698L48.5781 395.821L69.8377 382.444Z" fill="#FAD5B1"/>
</svg>
