<svg width="36" height="36" viewBox="0 0 36 36" fill="none" xmlns="http://www.w3.org/2000/svg">
<path d="M1.5 18.0401C1.5 8.90526 8.8873 1.5 18 1.5C27.1127 1.5 34.5 8.90526 34.5 18.0401C34.5 26.6217 27.9805 33.6769 19.6356 34.5C19.6802 34.4921 19.7248 34.4837 19.7694 34.4748V22.7881H24.059L24.7009 17.7956H19.7694V14.6081C19.7694 13.1626 20.1696 12.1778 22.2376 12.1778L24.8746 12.1765V7.71135C24.4185 7.65031 22.8532 7.51459 21.0318 7.51459C17.2296 7.51459 14.6262 9.841 14.6262 14.1139V17.7956H10.3255V22.7881H14.6262V34.2342C7.13161 32.6732 1.5 26.0159 1.5 18.0401Z" fill="#1A1A1A"/>
</svg>
