<svg width="36" height="36" viewBox="0 0 36 36" fill="none" xmlns="http://www.w3.org/2000/svg">
<path d="M18.2323 14.7326V20.266C18.2323 20.8188 18.679 21.2667 19.2319 21.266C21.1426 21.2635 25.2992 21.2584 27.2779 21.2584C25.8602 25.4953 23.6565 27.8021 18.2323 27.8021C12.7428 27.8021 8.45818 23.4135 8.45818 17.9994C8.45818 12.5865 12.7428 8.19792 18.2323 8.19792C21.1344 8.19792 23.009 9.20415 24.7283 10.6062C26.1043 9.24913 25.9894 9.05508 29.4907 5.79351C26.5181 3.12565 22.5678 1.5 18.2323 1.5C8.99212 1.5 1.5 8.88674 1.5 17.9994C1.5 27.112 8.99212 34.5 18.2323 34.5C32.0442 34.5 35.4202 22.6398 34.3014 14.7326H18.2323Z" fill="#1A1A1A"/>
<mask id="mask0" mask-type="alpha" maskUnits="userSpaceOnUse" x="1" y="1" width="34" height="34">
<path d="M18.2323 14.7326V20.266C18.2323 20.8188 18.679 21.2667 19.2319 21.266C21.1426 21.2635 25.2992 21.2584 27.2779 21.2584C25.8602 25.4953 23.6565 27.8021 18.2323 27.8021C12.7428 27.8021 8.45818 23.4135 8.45818 17.9994C8.45818 12.5865 12.7428 8.19792 18.2323 8.19792C21.1344 8.19792 23.009 9.20415 24.7283 10.6062C26.1043 9.24913 25.9894 9.05508 29.4907 5.79351C26.5181 3.12565 22.5678 1.5 18.2323 1.5C8.99212 1.5 1.5 8.88674 1.5 17.9994C1.5 27.112 8.99212 34.5 18.2323 34.5C32.0442 34.5 35.4202 22.6398 34.3014 14.7326H18.2323Z" fill="white"/>
</mask>
<g mask="url(#mask0)">
</g>
</svg>
