<svg width="1200" height="531" viewBox="0 0 1200 531" fill="none" xmlns="http://www.w3.org/2000/svg">
<g clip-path="url(#clip0)">
<path d="M1078.94 186.106L1108.83 176.779L1099.52 146.84L1069.64 156.167L1078.94 186.106Z" fill="#64A7F4"/>
<path d="M182.158 221.002L197.937 248.038L225.032 232.263L209.253 205.228L182.158 221.002Z" fill="#EAE6FA"/>
<path d="M529.338 46.3797L549.37 53.6768L556.701 33.6209L536.669 26.3238L529.338 46.3797Z" fill="#FF7D7D"/>
<path d="M875.726 504.353L889.054 479.036L860.468 480.124L875.726 504.353Z" fill="#FFBFBE"/>
<path d="M1027.82 361.936C1028.85 359.458 1030.05 357.102 1031.32 354.745C1033.37 350.939 1035.72 347.253 1038.38 343.809L1041.03 340.485C1041.09 340.425 1041.09 340.425 1041.15 340.365C1041.27 340.183 1041.45 340.002 1041.63 339.821C1041.75 339.639 1041.93 339.458 1042.05 339.337C1043.56 337.585 1045.19 335.893 1046.88 334.262C1050.08 331.18 1053.57 328.28 1057.31 325.621C1059.36 324.171 1061.53 322.842 1063.7 321.573C1072.27 316.618 1083.3 320.002 1087.65 329.126C1091.57 337.404 1087.77 347.313 1079.75 351.785C1078.6 352.449 1077.39 353.053 1076.25 353.658C1075.34 354.141 1074.38 354.564 1073.41 354.987C1072.87 355.229 1072.27 355.531 1071.67 355.772C1069.13 356.86 1066.6 357.827 1064.01 358.612H1063.95C1056.53 360.969 1048.99 362.238 1041.45 362.54C1039.28 362.6 1037.11 362.6 1034.94 362.54C1032.59 362.419 1030.17 362.238 1027.82 361.936Z" fill="#0DCEDA"/>
<path d="M500.311 151.119L499.769 151.058C498.924 150.998 498.02 150.937 497.176 150.817C489.939 149.91 482.943 147.252 477.033 143.143C473.475 140.665 470.278 137.644 467.564 134.14C464.971 130.816 463.825 126.526 464.489 122.357C465.152 118.128 467.444 114.442 470.942 112.025C477.696 107.372 487.345 109.366 492.532 116.436C492.592 116.557 492.713 116.677 492.773 116.798C494.884 119.759 496.633 122.901 497.959 126.285C498.14 126.768 498.321 127.251 498.502 127.795C498.623 128.037 498.683 128.339 498.743 128.581C499.95 132.206 500.734 136.013 500.975 139.82C501.095 141.693 501.095 143.626 500.975 145.499C500.854 147.191 500.673 148.943 500.372 150.635L500.311 151.119ZM479.083 110.756C476.43 110.756 473.836 111.481 471.545 113.052C468.288 115.288 466.177 118.671 465.574 122.538C464.971 126.406 466.057 130.333 468.409 133.354C471.062 136.738 474.198 139.699 477.636 142.116C483.425 146.164 490.18 148.762 497.236 149.608C497.899 149.669 498.563 149.729 499.226 149.789C499.467 148.339 499.648 146.829 499.708 145.378C499.829 143.566 499.829 141.693 499.708 139.88C499.467 136.134 498.743 132.448 497.537 128.943C497.477 128.702 497.356 128.46 497.296 128.218C497.115 127.735 496.934 127.251 496.753 126.768C495.427 123.505 493.738 120.424 491.687 117.523L491.507 117.221C488.431 113.052 483.727 110.756 479.083 110.756Z" fill="#64A7F4"/>
<path d="M799.859 64.6529L798.472 63.5049C801.307 60.1212 805.166 60.4233 808.483 60.665C811.68 60.9067 814.695 61.1484 816.987 58.4898C819.278 55.8311 818.555 52.8704 817.771 49.7284C816.987 46.4655 816.082 42.7193 818.977 39.3356C821.811 35.9519 825.671 36.254 828.988 36.4957C832.184 36.7374 835.199 36.9791 837.491 34.3204C839.783 31.6618 839.059 28.7011 838.275 25.5591C837.491 22.2962 836.587 18.55 839.481 15.1663C842.316 11.7826 846.175 12.0847 849.492 12.3264C852.689 12.5681 855.704 12.8097 857.996 10.1511L859.383 11.2992C856.548 14.6829 852.689 14.3808 849.372 14.1391C846.175 13.8974 843.16 13.6557 840.868 16.3143C838.577 18.9729 839.3 21.9337 840.084 25.0757C840.868 28.3385 841.773 32.0848 838.878 35.4685C836.044 38.8522 832.184 38.5501 828.867 38.3084C825.671 38.0667 822.656 37.825 820.364 40.4836C818.072 43.1422 818.796 46.103 819.58 49.245C820.364 52.5079 821.268 56.2541 818.374 59.6378C815.539 63.0215 811.68 62.7194 808.363 62.4777C805.166 62.1756 802.151 61.9339 799.859 64.6529Z" fill="#FFB5A9"/>
<path d="M436.989 56.2541C433.37 53.7163 433.31 49.8492 433.31 46.5259C433.25 43.3235 433.249 40.2419 430.355 38.2479C427.52 36.1936 424.626 37.1603 421.55 38.1875C418.354 39.2751 414.735 40.4836 411.117 37.8854C407.498 35.3476 407.438 31.4805 407.438 28.1573C407.378 24.9548 407.378 21.8732 404.483 19.8793C401.648 17.8249 398.754 18.7916 395.678 19.8188C392.482 20.9065 388.863 22.1149 385.245 19.5167C381.626 16.9789 381.566 13.1119 381.566 9.78858C381.506 6.58614 381.506 3.50455 378.611 1.51058L379.636 0.0604248C383.255 2.5982 383.315 6.46529 383.315 9.78858C383.375 12.991 383.375 16.0726 386.27 18.0666C389.104 20.121 391.999 19.1542 395.075 18.127C398.271 17.0394 401.89 15.8309 405.508 18.4291C409.126 20.9669 409.187 24.834 409.187 28.1573C409.247 31.3597 409.247 34.4413 412.142 36.4352C415.037 38.4292 417.871 37.5229 420.947 36.4957C424.143 35.4081 427.762 34.1996 431.38 36.7978C434.998 39.3356 435.059 43.2027 435.059 46.5259C435.119 49.7284 435.119 52.81 438.014 54.8039L436.989 56.2541Z" fill="#64A7F4"/>
<path d="M1108.57 421.936C1104.53 420.123 1103.81 416.377 1103.09 413.054C1102.42 409.912 1101.82 406.891 1098.62 405.44C1095.43 403.99 1092.77 405.501 1090 407.072C1087.04 408.703 1083.73 410.576 1079.75 408.764C1075.71 406.951 1074.98 403.205 1074.26 399.881C1073.6 396.739 1072.99 393.718 1069.8 392.268C1066.6 390.818 1063.95 392.329 1061.17 393.9C1058.22 395.531 1054.9 397.404 1050.92 395.591C1046.88 393.779 1046.16 390.032 1045.43 386.709C1044.77 383.567 1044.17 380.546 1040.97 379.096L1041.69 377.464C1045.73 379.277 1046.46 383.023 1047.18 386.347C1047.84 389.489 1048.45 392.51 1051.64 393.96C1054.84 395.41 1057.49 393.9 1060.27 392.329C1063.22 390.697 1066.54 388.824 1070.52 390.637C1074.56 392.449 1075.28 396.196 1076.01 399.519C1076.67 402.661 1077.27 405.682 1080.47 407.132C1083.67 408.582 1086.32 407.072 1089.09 405.501C1092.05 403.869 1095.37 401.996 1099.35 403.809C1103.39 405.622 1104.11 409.368 1104.83 412.691C1105.5 415.833 1106.1 418.854 1109.3 420.305L1108.57 421.936Z" fill="#64A7F4"/>
<path d="M592.401 528.764C535.23 493.115 488.009 440.969 458.699 376.618C474.922 353.476 484.149 318.129 505.799 318.129C538.004 318.129 551.814 374.443 610.795 374.443C615.499 374.443 620.143 374.02 624.666 373.174C625.932 427.616 614.534 480.728 592.401 528.764Z" fill="#45E5C2"/>
<path d="M437.773 405.803C402.071 412.087 364.016 403.749 333.32 379.64C328.194 375.591 324.213 370.637 321.379 365.138C374.028 363.99 396.522 396.196 427.822 396.196C430.958 396.196 433.853 395.712 436.627 394.927C437.17 398.552 437.531 402.177 437.773 405.803Z" fill="#45E5C2"/>
<path d="M524.917 521.332C480.651 533.659 432.104 532.269 386.089 514.263C362.388 505.018 351.231 477.344 362.569 453.96C372.821 432.691 398.874 424.413 420.706 433.296C465.514 451.483 501.216 482.903 524.917 521.332Z" fill="#45E5C2"/>
<path d="M762.046 305.984C723.269 305.984 688.532 348.22 646.799 366.347V528.825H690.763C763.494 528.825 827.963 493.417 868.007 438.855C822.052 381.392 792.622 305.984 762.046 305.984Z" fill="#45E5C2"/>
<path d="M593.004 531L591.557 530.094C556.458 508.22 525.761 480.607 500.312 448.16C474.017 414.564 454.237 376.8 441.451 335.772C440.909 334.322 440.486 332.872 440.064 331.422C439.642 329.972 439.22 328.522 438.858 327.011C427.52 280.666 454.418 233.597 500.07 219.941C545.723 206.225 594.03 230.757 609.951 275.712C610.494 277.162 610.916 278.612 611.338 280.062L609.89 280.485L611.338 280.062C611.76 281.452 612.182 282.962 612.544 284.413C624.364 325.742 628.526 368.22 624.967 410.758C621.53 451.906 611.036 491.846 593.668 529.429L593.004 531ZM525.822 219.155C517.62 219.155 509.237 220.364 500.975 222.841C456.83 236.074 430.837 281.512 441.813 326.346C442.175 327.796 442.597 329.186 443.019 330.576C443.442 331.966 443.864 333.416 444.346 334.745V334.806C457.011 375.47 476.671 412.993 502.724 446.287C527.571 478.069 557.483 505.078 591.738 526.65C608.503 489.791 618.695 450.758 622.073 410.516C625.57 368.341 621.409 326.225 609.71 285.258V285.198C609.348 283.808 608.926 282.358 608.503 280.968C608.081 279.579 607.659 278.128 607.177 276.799C594.633 241.391 561.463 219.155 525.822 219.155Z" fill="#414042"/>
<path d="M414.856 409.307C385.184 409.307 356.056 399.398 332.415 380.788C322.585 373.053 316.313 361.452 315.228 348.945C314.142 336.256 318.183 324.05 326.686 314.564C334.767 305.561 346.105 300.425 358.589 300.123C370.771 299.881 382.712 304.11 392.24 312.147C406.292 324.05 417.57 338.431 425.711 354.866C433.611 370.818 438.134 387.918 439.341 405.742L439.401 407.072L438.074 407.313C430.355 408.643 422.575 409.307 414.856 409.307ZM359.674 303.144C359.312 303.144 359.011 303.144 358.649 303.144C346.949 303.385 336.396 308.159 328.917 316.558C320.957 325.44 317.157 336.86 318.183 348.703C319.208 360.365 325.058 371.241 334.225 378.431C362.991 401.029 400.02 410.516 436.144 404.534C434.878 387.615 430.415 371.362 422.937 356.195C414.976 340.123 404 326.105 390.25 314.443C381.626 307.132 370.771 303.144 359.674 303.144Z" fill="#414042"/>
<path d="M465.936 531C438.677 531 411.599 525.864 385.546 515.713C373.786 511.121 364.378 501.695 359.795 489.912C355.091 477.948 355.634 464.957 361.242 453.356C371.615 431.906 398.03 422.48 421.309 431.966C465.092 449.731 501.397 480.426 526.184 520.607L527.269 522.299L525.339 522.843C505.739 528.221 485.777 531 465.936 531ZM402.613 431.241C386.33 431.241 371.073 439.882 363.956 454.625C358.709 465.501 358.227 477.586 362.629 488.764C366.911 499.761 375.716 508.583 386.692 512.873C430.475 529.973 477.395 532.631 522.565 520.426C498.08 481.574 462.74 451.966 420.163 434.685C414.373 432.329 408.403 431.241 402.613 431.241Z" fill="#414042"/>
<path d="M690.763 530.275H645.291V233.415C645.291 197.705 659.162 164.17 684.31 138.974C709.519 113.717 742.989 99.8193 778.631 99.8193C814.273 99.8193 847.743 113.717 872.892 139.034C898.1 164.231 912.031 197.765 912.031 233.476V308.703C912.031 338.612 906.182 367.676 894.663 394.987C883.506 421.392 867.585 445.078 847.261 465.441C826.937 485.803 803.297 501.755 776.942 512.933C749.563 524.414 720.615 530.275 690.763 530.275ZM648.306 527.254H690.763C720.193 527.254 748.779 521.453 775.676 510.093C801.668 499.096 825.008 483.326 845.03 463.265C865.052 443.205 880.792 419.821 891.828 393.779C903.226 366.83 909.016 338.189 909.016 308.642V233.415C909.016 198.491 895.447 165.741 870.781 141.149C846.236 116.436 813.489 102.84 778.691 102.84C743.834 102.84 711.147 116.436 686.481 141.088C661.876 165.741 648.306 198.551 648.306 233.415V527.254ZM778.631 278.974C753.543 278.974 733.159 258.551 733.159 233.415C733.159 208.279 753.543 187.856 778.631 187.856C803.719 187.856 824.103 208.279 824.103 233.415C824.103 258.491 803.719 278.974 778.631 278.974ZM778.631 190.877C755.232 190.877 736.174 209.971 736.174 233.415C736.174 256.859 755.232 275.953 778.631 275.953C802.03 275.953 821.088 256.859 821.088 233.415C821.088 209.971 802.03 190.877 778.631 190.877Z" fill="#414042"/>
<path d="M633.893 169.608L630.094 167.373L629.913 167.191C620.022 155.832 590.17 127.01 526.787 104.895L518.344 101.934H687.506L683.948 104.653C662.298 121.209 645.231 143.143 634.556 167.977L633.893 169.608ZM632.023 165.076L632.445 165.318C642.758 141.934 658.619 121.209 678.641 105.076H535.893C552.96 111.481 569.545 119.276 584.26 127.735C604.463 139.336 620.565 151.904 632.023 165.076Z" fill="#414042"/>
<path d="M1200 528.946H0V530.154H1200V528.946Z" fill="#231F20"/>
<path d="M906.302 530.308H893.638V528.495H906.302V530.308ZM880.973 530.308H868.308V528.495H880.973V530.308ZM855.644 530.308H842.979V528.495H855.644V530.308ZM830.315 530.308H817.65V528.495H830.315V530.308ZM804.985 530.308H792.321V528.495H804.985V530.308ZM779.656 530.308H766.992V528.495H779.656V530.308ZM754.327 530.308H741.663V528.495H754.327V530.308ZM728.998 530.308H716.333V528.495H728.998V530.308ZM703.669 530.308H691.004V528.495H703.669V530.308ZM678.34 530.308H665.675V528.495H678.34V530.308ZM653.01 530.308H645.894V522.936H647.703V528.495H653.01V530.308ZM911.428 520.942H909.619V508.253H911.428V520.942ZM647.703 510.247H645.894V497.558H647.703V510.247ZM911.428 495.564H909.619V482.875H911.428V495.564ZM647.703 484.869H645.894V472.18H647.703V484.869ZM911.428 470.186H909.619V457.498H911.428V470.186ZM647.703 459.492H645.894V446.803H647.703V459.492ZM911.428 444.809H909.619V432.12H911.428V444.809ZM647.703 434.114H645.894V421.425H647.703V434.114ZM911.428 419.431H909.619V406.742H911.428V419.431ZM647.703 408.736H645.894V396.047H647.703V408.736ZM911.428 394.053H909.619V381.364H911.428V394.053ZM647.703 383.358H645.894V370.669H647.703V383.358ZM911.428 368.675H909.619V355.986H911.428V368.675ZM647.703 357.98H645.894V345.291H647.703V357.98ZM911.428 343.297H909.619V330.609H911.428V343.297ZM647.703 332.603H645.894V319.914H647.703V332.603ZM911.428 317.92H909.619V305.231H911.428V317.92ZM647.703 307.225H645.894V294.536H647.703V307.225ZM911.428 292.542H909.619V279.853H911.428V292.542ZM647.703 281.847H645.894V269.158H647.703V281.847ZM911.428 267.164H909.619V254.475H911.428V267.164ZM647.703 256.469H645.894V243.78H647.703V256.469ZM911.428 241.786H909.619V229.097H911.428V241.786ZM647.703 231.091H645.894V218.402H647.703V231.091ZM911.428 216.409H909.619V203.72H911.428V216.409ZM647.703 205.714H645.894V193.025H647.703V205.714ZM911.428 191.031H909.619V178.342H911.428V191.031ZM647.703 180.336H645.894V167.647H647.703V180.336ZM911.428 165.653H909.619V152.964H911.428V165.653ZM647.703 154.958H645.894V142.269H647.703V154.958ZM911.428 140.275H909.619V127.586H911.428V140.275ZM647.703 129.58H645.894V116.891H647.703V129.58ZM911.428 114.897H909.619V102.813H897.859V101H910.524V102.208H911.428V114.897ZM647.703 104.202H645.894V101.06H657.232V102.873H647.703V104.202ZM885.195 102.873H872.53V101.06H885.195V102.873ZM859.865 102.873H847.201V101.06H859.865V102.873ZM834.536 102.873H821.872V101.06H834.536V102.873ZM809.207 102.873H796.542V101.06H809.207V102.873ZM783.878 102.873H771.213V101.06H783.878V102.873ZM758.549 102.873H745.884V101.06H758.549V102.873ZM733.219 102.873H720.555V101.06H733.219V102.873ZM707.89 102.873H695.226V101.06H707.89V102.873ZM682.561 102.873H669.896V101.06H682.561V102.873Z" fill="#58595B"/>
<path d="M613.388 530.308H600.724V528.495H613.388V530.308ZM588.059 530.308H575.394V528.495H588.059V530.308ZM562.73 530.308H550.065V528.495H562.73V530.308ZM537.401 530.308H524.736V528.495H537.401V530.308ZM512.072 530.308H499.407V528.495H512.072V530.308ZM486.742 530.308H474.078V528.495H486.742V530.308ZM461.413 530.308H448.749V528.495H461.413V530.308ZM625.631 528.072H623.821V515.383H625.631V528.072ZM438.677 527.71H436.868V515.021H438.677V527.71ZM625.631 502.694H623.821V490.005H625.631V502.694ZM438.677 502.332H436.868V489.643H438.677V502.332ZM625.631 477.316H623.821V464.628H625.631V477.316ZM438.677 476.954H436.868V464.265H438.677V476.954ZM625.631 451.939H623.821V439.25H625.631V451.939ZM438.677 451.576H436.868V438.887H438.677V451.576ZM625.631 426.561H623.821V413.872H625.631V426.561ZM438.677 426.198H436.868V413.509H438.677V426.198ZM625.631 401.183H623.821V388.494H625.631V401.183ZM438.677 400.821H436.868V388.132H438.677V400.821ZM625.631 375.805H623.821V363.116H625.631V375.805ZM438.677 375.443H436.868V362.754H438.677V375.443ZM625.631 350.427H623.821V337.739H625.631V350.427ZM438.677 350.065H436.868V337.376H438.677V350.065ZM625.631 325.05H623.821V312.361H625.631V325.05ZM438.677 324.687H436.868V311.998H438.677V324.687ZM625.631 299.672H623.821V286.983H625.631V299.672ZM438.677 299.309H436.868V286.62H438.677V299.309ZM625.631 274.294H623.821V261.605H625.631V274.294ZM438.677 273.932H436.868V261.243H438.677V273.932ZM625.631 248.916H623.821V236.227H625.631V248.916ZM438.677 248.554H436.868V235.865H438.677V248.554ZM625.631 223.539H623.821V221.061H612.061V219.248H625.631V223.539ZM438.677 223.176H436.868V219.248H447.422V221.061H438.677V223.176ZM599.397 221.061H586.732V219.248H599.397V221.061ZM574.068 221.061H561.403V219.248H574.068V221.061ZM548.739 221.061H536.074V219.248H548.739V221.061ZM523.409 221.061H510.745V219.248H523.409V221.061ZM498.08 221.061H485.416V219.248H498.08V221.061ZM472.751 221.061H460.086V219.248H472.751V221.061Z" fill="#58595B"/>
<path d="M525.822 530.307H523.168V528.495H524.012V518.465H525.822V530.307ZM510.504 530.307H497.839V528.495H510.504V530.307ZM485.174 530.307H472.51V528.495H485.174V530.307ZM459.845 530.307H447.181V528.495H459.845V530.307ZM434.516 530.307H421.851V528.495H434.516V530.307ZM409.187 530.307H396.522V528.495H409.187V530.307ZM383.858 530.307H371.193V528.495H383.858V530.307ZM358.529 530.307H357.262V517.075H359.071V529.401H358.529V530.307ZM525.822 505.776H524.012V493.087H525.822V505.776ZM359.071 504.386H357.262V491.697H359.071V504.386ZM525.822 480.398H524.012V467.709H525.822V480.398ZM359.071 479.008H357.262V466.319H359.071V479.008ZM525.822 455.02H524.012V442.331H525.822V455.02ZM359.071 453.63H357.262V440.941H359.071V453.63ZM524.917 431.334H512.252V429.521H524.917V431.334ZM499.588 431.334H486.923V429.521H499.588V431.334ZM474.259 431.334H461.594V429.521H474.259V431.334ZM448.93 431.334H436.265V429.521H448.93V431.334ZM423.6 431.334H410.936V429.521H423.6V431.334ZM398.271 431.334H385.607V429.521H398.271V431.334ZM372.942 431.334H360.277V429.521H372.942V431.334Z" fill="#58595B"/>
<path d="M683.948 530.308H674.661V528.495H682.139V525.111H683.948V530.308ZM661.996 530.308H649.332V528.495H661.996V530.308ZM636.667 530.308H624.002V528.495H636.667V530.308ZM611.338 530.308H598.673V528.495H611.338V530.308ZM586.009 530.308H573.344V528.495H586.009V530.308ZM560.679 530.308H548.015V528.495H560.679V530.308ZM535.35 530.308H524.012V527.166H525.822V528.495H535.35V530.308ZM525.822 514.537H524.012V501.848H525.822V514.537ZM683.948 512.422H682.139V499.733H683.948V512.422ZM525.822 489.159H524.012V476.47H525.822V489.159ZM683.948 487.045H682.139V474.356H683.948V487.045ZM525.822 463.782H524.012V451.093H525.822V463.782ZM683.948 461.667H682.139V448.978H683.948V461.667ZM525.822 438.404H524.012V425.715H525.822V438.404ZM683.948 436.289H682.139V423.6H683.948V436.289ZM525.822 413.026H524.012V400.337H525.822V413.026ZM683.948 410.911H682.139V398.222H683.948V410.911ZM525.822 387.648H524.012V374.959H525.822V387.648ZM683.948 385.533H682.139V372.844H683.948V385.533ZM525.822 362.27H524.012V349.582H525.822V362.27ZM683.948 360.156H682.139V347.467H683.948V360.156ZM525.822 336.893H524.012V324.204H525.822V336.893ZM683.948 334.778H682.139V322.089H683.948V334.778ZM525.822 311.515H524.012V298.826H525.822V311.515ZM683.948 309.4H682.139V296.711H683.948V309.4ZM525.822 286.137H524.012V273.448H525.822V286.137ZM683.948 284.022H682.139V271.333H683.948V284.022ZM525.822 260.759H524.012V248.07H525.822V260.759ZM683.948 258.644H682.139V245.956H683.948V258.644ZM525.822 235.381H524.012V222.693H525.822V235.381ZM683.948 233.267H682.139V220.578H683.948V233.267ZM525.822 210.004H524.012V197.315H525.822V210.004ZM683.948 207.889H682.139V195.2H683.948V207.889ZM525.822 184.626H524.012V171.937H525.822V184.626ZM683.948 182.511H682.139V169.822H683.948V182.511ZM525.822 159.248H524.012V146.559H525.822V159.248ZM683.948 157.133H682.139V144.444H683.948V157.133ZM525.822 133.87H524.012V121.181H525.822V133.87ZM683.948 131.755H682.139V119.067H683.948V131.755ZM525.822 108.492H524.012V101.06H531.068V102.873H525.822V108.492ZM683.948 106.378H682.139V102.873H670.379V101.06H683.948V106.378ZM657.714 102.873H645.05V101.06H657.714V102.873ZM632.385 102.873H619.721V101.06H632.385V102.873ZM607.056 102.873H594.391V101.06H607.056V102.873ZM581.727 102.873H569.062V101.06H581.727V102.873ZM556.398 102.873H543.733V101.06H556.398V102.873Z" fill="#58595B"/>
<path d="M433.37 530.308H420.706V528.495H433.37V530.308ZM408.041 530.308H395.376V528.495H408.041V530.308ZM382.712 530.308H370.047V528.495H382.712V530.308ZM357.383 530.308H344.718V528.495H357.383V530.308ZM332.053 530.308H319.389V528.495H332.053V530.308ZM315.529 521.486H313.72V508.797H315.529V521.486ZM438.677 521.184H436.868V508.495H438.677V521.184ZM315.529 496.108H313.72V483.419H315.529V496.108ZM438.677 495.806H436.868V483.117H438.677V495.806ZM315.529 470.73H313.72V458.041H315.529V470.73ZM438.677 470.428H436.868V457.739H438.677V470.428ZM315.529 445.352H313.72V432.664H315.529V445.352ZM438.677 445.05H436.868V432.361H438.677V445.05ZM315.529 419.975H313.72V407.286H315.529V419.975ZM438.677 419.673H436.868V406.984H438.677V419.673ZM315.529 394.597H313.72V381.908H315.529V394.597ZM438.677 394.295H436.868V381.606H438.677V394.295ZM315.529 369.219H313.72V356.53H315.529V369.219ZM438.677 368.917H436.868V356.228H438.677V368.917ZM315.529 343.841H313.72V331.152H315.529V343.841ZM438.677 343.539H436.868V330.85H438.677V343.539ZM315.529 318.463H313.72V305.775H315.529V318.463ZM438.677 318.161H436.868V305.472H438.677V318.161ZM437.773 303.176H425.108V301.364H437.773V303.176ZM412.444 303.176H399.779V301.364H412.444V303.176ZM387.114 303.176H374.45V301.364H387.114V303.176ZM361.785 303.176H349.121V301.364H361.785V303.176ZM336.456 303.176H323.791V301.364H336.456V303.176Z" fill="#58595B"/>
<path d="M358.167 430.697H345.502V428.885H358.167V430.697ZM332.838 430.697H320.173V428.885H332.838V430.697ZM307.508 430.697H294.844V428.885H307.508V430.697Z" fill="#58595B"/>
<path d="M964.077 430.697H955.513V428.885H964.077V430.697ZM942.849 430.697H930.184V428.885H942.849V430.697ZM917.52 430.697H904.855V428.885H917.52V430.697ZM892.19 430.697H879.526V428.885H892.19V430.697ZM866.861 430.697H854.197V428.885H866.861V430.697ZM841.532 430.697H828.867V428.885H841.532V430.697ZM816.203 430.697H803.538V428.885H816.203V430.697ZM790.874 430.697H778.209V428.885H790.874V430.697ZM765.544 430.697H752.88V428.885H765.544V430.697ZM740.215 430.697H727.551V428.885H740.215V430.697ZM714.886 430.697H702.221V428.885H714.886V430.697ZM689.557 430.697H676.892V428.885H689.557V430.697ZM664.228 430.697H651.563V428.885H664.228V430.697ZM638.898 430.697H626.234V428.885H638.898V430.697ZM613.569 430.697H600.905V428.885H613.569V430.697ZM588.24 430.697H575.575V428.885H588.24V430.697ZM562.911 430.697H550.246V428.885H562.911V430.697ZM537.582 430.697H524.917V428.885H537.582V430.697Z" fill="#58595B"/>
<path d="M594.09 406.709H581.425V404.897H594.09V406.709ZM568.761 406.709H556.096V404.897H568.761V406.709ZM543.432 406.709H530.767V404.897H543.432V406.709ZM518.102 406.709H505.438V404.897H518.102V406.709ZM492.773 406.709H480.109V404.897H492.773V406.709ZM467.444 406.709H454.779V404.897H467.444V406.709ZM442.115 406.709H429.45V404.897H442.115V406.709ZM416.786 406.709H404.121V404.897H416.786V406.709ZM391.456 406.709H378.792V404.897H391.456V406.709ZM366.127 406.709H353.463V404.897H366.127V406.709ZM340.798 406.709H328.133V404.897H340.798V406.709ZM315.469 406.709H302.804V404.897H315.469V406.709Z" fill="#58595B"/>
<path d="M496.573 302.54H488.431V300.727H496.573V302.54ZM475.767 302.54H463.102V300.727H475.767V302.54ZM450.437 302.54H437.773V300.727H450.437V302.54Z" fill="#58595B"/>
<path d="M850.397 190.273H837.732V188.46H850.397V190.273ZM825.068 190.273H812.403V188.46H825.068V190.273ZM799.739 190.273H787.074V188.46H799.739V190.273ZM774.409 190.273H761.745V188.46H774.409V190.273ZM749.08 190.273H736.416V188.46H749.08V190.273ZM723.751 190.273H711.086V188.46H723.751V190.273Z" fill="#58595B"/>
<path d="M429.088 220.424H416.424V218.612H429.088V220.424ZM403.759 220.424H391.095V218.612H403.759V220.424Z" fill="#58595B"/>
<path d="M662.72 220.424H650.055V218.612H662.72V220.424ZM637.391 220.424H624.726V218.612H637.391V220.424Z" fill="#58595B"/>
<path d="M850.397 278.37H837.732V276.558H850.397V278.37ZM825.068 278.37H812.403V276.558H825.068V278.37ZM799.739 278.37H787.074V276.558H799.739V278.37ZM774.409 278.37H761.745V276.558H774.409V278.37ZM749.08 278.37H736.416V276.558H749.08V278.37ZM723.751 278.37H711.086V276.558H723.751V278.37Z" fill="#58595B"/>
<path d="M735.571 306.104H733.762V293.416H735.571V306.104ZM735.571 280.727H733.762V268.038H735.571V280.727ZM735.571 255.349H733.762V242.66H735.571V255.349ZM735.571 229.971H733.762V217.282H735.571V229.971ZM735.571 204.593H733.762V191.904H735.571V204.593ZM735.571 179.216H733.762V166.527H735.571V179.216Z" fill="#58595B"/>
<path d="M823.5 306.104H821.691V293.416H823.5V306.104ZM823.5 280.727H821.691V268.038H823.5V280.727ZM823.5 255.349H821.691V242.66H823.5V255.349ZM823.5 229.971H821.691V217.282H823.5V229.971ZM823.5 204.593H821.691V191.904H823.5V204.593ZM823.5 179.216H821.691V166.527H823.5V179.216Z" fill="#58595B"/>
<path d="M758.488 168.4H745.824V166.587H758.488V168.4ZM733.159 168.4H720.495V166.587H733.159V168.4ZM707.83 168.4H695.165V166.587H707.83V168.4ZM682.501 168.4H669.836V166.587H682.501V168.4ZM657.172 168.4H644.507V166.587H657.172V168.4ZM631.842 168.4H619.178V166.587H631.842V168.4ZM606.513 168.4H593.849V166.587H606.513V168.4ZM581.184 168.4H568.52V166.587H581.184V168.4ZM555.855 168.4H543.19V166.587H555.855V168.4ZM530.526 168.4H517.861V166.587H530.526V168.4ZM505.197 168.4H492.532V166.587H505.197V168.4ZM479.867 168.4H467.203V166.587H479.867V168.4Z" fill="#58595B"/>
<path d="M1014.43 112.387C1011 121.934 1000.92 131.058 1000.92 131.058L998.693 137.644C998.693 137.644 984.039 144.291 980.963 142.418C978.129 140.665 989.647 132.69 989.708 132.508C990.009 132.146 990.25 131.844 990.371 131.542C990.371 131.542 998.09 130.031 999.779 125.983C1001.53 121.934 1004.78 106.405 990.311 111.36C990.311 111.36 967.876 104.109 950.749 86.8887C950.749 86.8887 943.874 100.544 942.185 111.481C941.884 111.118 932.898 99.9401 932.235 94.3208C931.511 88.7014 937.059 71.8433 946.346 74.9249C946.346 74.9249 947.914 48.5803 974.329 61.0879C974.329 61.0879 987.356 54.7435 1004.3 66.949C1021.37 79.0941 1017.87 102.84 1014.43 112.387Z" fill="#231F20"/>
<path d="M999.899 126.043C998.211 130.091 990.491 131.602 990.491 131.602C990.311 131.844 990.069 132.206 989.828 132.569C988.019 134.744 984.28 138.309 984.28 138.309C984.28 138.309 984.642 150.152 985.184 151.602C985.727 153.052 990.13 156.859 990.13 156.859L974.329 165.318L967.092 155.288C967.333 155.348 969.625 154.744 969.625 154.744L969.203 145.681C967.092 146.224 957.383 144.653 954.307 142.478C951.231 140.303 943.813 132.146 942.969 127.07C942.667 125.137 941.642 118.007 942.306 111.541C943.994 100.605 950.869 86.9491 950.869 86.9491C967.997 104.17 990.431 111.421 990.431 111.421C1004.91 106.405 1001.59 121.995 999.899 126.043Z" fill="#FFB5A9"/>
<path d="M953.756 108.829C953.817 106.561 952.814 104.693 951.516 104.658C950.217 104.623 949.115 106.433 949.054 108.701C948.993 110.97 949.995 112.837 951.294 112.872C952.592 112.907 953.695 111.097 953.756 108.829Z" fill="#231F20"/>
<path d="M975.091 111.626C975.568 109.407 974.925 107.387 973.655 107.113C972.385 106.839 970.969 108.415 970.492 110.633C970.016 112.852 970.659 114.872 971.928 115.146C973.198 115.42 974.614 113.844 975.091 111.626Z" fill="#231F20"/>
<path d="M959.976 124.109C957.262 122.72 956.78 119.517 956.78 119.396V119.276L961.062 111.3L961.604 111.602L957.443 119.396C957.564 119.94 958.107 122.478 960.278 123.566L959.976 124.109Z" fill="#231F20"/>
<path d="M962.147 136.134C958.106 136.134 954.789 134.442 954.729 134.381L955.031 133.838C955.031 133.838 957.202 134.925 960.036 135.348C963.836 135.892 967.092 135.046 969.685 132.75L970.108 133.233C967.514 135.409 964.68 136.134 962.147 136.134Z" fill="#231F20"/>
<path d="M974.751 128.883C977.449 128.883 979.636 126.692 979.636 123.989C979.636 121.286 977.449 119.094 974.751 119.094C972.053 119.094 969.866 121.286 969.866 123.989C969.866 126.692 972.053 128.883 974.751 128.883Z" fill="#FF9985"/>
<path d="M945.502 126.164C948.2 126.164 950.387 123.973 950.387 121.27C950.387 118.567 948.2 116.375 945.502 116.375C942.804 116.375 940.617 118.567 940.617 121.27C940.617 123.973 942.804 126.164 945.502 126.164Z" fill="#FF9985"/>
<path d="M1047.36 450.214L1030.96 460.546C1030.96 460.546 978.37 404.897 972.339 397.464C966.61 390.395 965.585 369.851 965.524 367.978V367.857C964.68 370.757 963.112 381.936 961.182 396.619C956.237 435.289 949.301 498.311 949.301 498.311L934.285 498.613C920.897 469.066 933.742 282.842 933.742 282.842L996.884 291.724C1000.68 300.304 1001.35 348.763 1001.47 374.624C1001.53 385.319 1005.27 395.652 1012.08 403.93C1026.68 421.332 1047.36 450.214 1047.36 450.214Z" fill="#414042"/>
<path d="M936.938 498.492L938.627 503.93L945.683 502.843L945.743 498.311L936.938 498.492Z" fill="#FFB5A9"/>
<path d="M1035.54 457.646L1039.88 461.332L1046.34 456.015L1044.59 451.725L1035.54 457.646Z" fill="#FFB5A9"/>
<path d="M946.949 502.118L936.034 503.568L933.26 510.275C932.838 511.242 932.054 512.027 931.028 512.39L925.359 514.384C921.62 515.713 918.846 518.915 918.183 522.843L917.7 525.502L952.92 515.955L946.949 502.118Z" fill="#414042"/>
<path d="M917.64 525.441L918.364 527.496L953.463 518.372L952.86 515.955L917.64 525.441Z" fill="#231F20"/>
<path d="M1047.48 455.35L1038.07 461.09L1038.2 468.341C1038.2 469.429 1037.77 470.456 1036.99 471.181L1032.59 475.29C1029.69 478.009 1028.49 482.057 1029.39 485.924L1030.05 488.522L1058.46 465.622L1047.48 455.35Z" fill="#414042"/>
<path d="M1030.05 488.523L1031.5 490.094L1059.97 467.556L1058.46 465.562L1030.05 488.523Z" fill="#231F20"/>
<path d="M961.182 396.558C959.614 390.153 961.001 334.443 961.061 332.691L965.464 367.797C964.68 370.757 963.052 381.936 961.182 396.558Z" fill="#231F20"/>
<path d="M967.092 155.288C967.092 155.288 940.798 161.934 932.777 165.318C932.777 165.318 907.086 161.874 905.277 160.907C903.468 159.94 866.378 107.191 866.378 107.191L852.146 115.529C852.146 115.529 888.511 178.611 890.502 180.545C892.492 182.478 929.34 200.001 929.34 200.001L928.616 281.996L1001.05 292.207L1001.89 263.385C1001.89 263.385 1019.14 270.455 1022.45 251.603C1025.17 235.953 1020.83 197.161 1018.35 190.273C1015.88 183.385 1010.88 165.56 990.069 156.859C990.069 156.859 976.5 165.197 967.092 155.288Z" fill="#64A7F4"/>
<path d="M1001.65 292.932L928.013 282.539L928.736 200.364C923.61 197.947 892.009 182.78 890.019 180.907C888.029 178.974 855.282 122.236 851.603 115.771L851.302 115.227L866.499 106.345L866.801 106.828C881.455 127.674 903.89 159.215 905.518 160.363C906.724 161.028 922.706 163.324 932.596 164.653C940.738 161.33 965.765 154.925 966.851 154.684L967.213 154.623L967.454 154.865C976.44 164.351 989.587 156.436 989.707 156.375L989.949 156.194L990.25 156.315C1009.97 164.593 1015.64 180.847 1018.35 188.702C1018.53 189.185 1018.72 189.669 1018.84 190.152C1021.31 196.92 1025.71 236.013 1022.94 251.784C1021.91 257.645 1019.44 261.633 1015.7 263.748C1010.57 266.588 1004.54 265.017 1002.37 264.352L1001.65 292.932ZM929.219 281.512L1000.44 291.542L1001.29 262.539L1002.07 262.841C1002.13 262.841 1009.43 265.802 1015.16 262.6C1018.59 260.666 1020.83 256.92 1021.79 251.482C1024.57 235.832 1020.16 197.161 1017.75 190.454C1017.57 190.031 1017.45 189.548 1017.27 189.004C1014.61 181.391 1009.13 165.56 990.13 157.463C988.14 158.551 975.776 164.895 966.851 155.892C963.775 156.678 940.376 162.72 932.958 165.802L932.837 165.862H932.656C930.003 165.499 906.785 162.357 904.975 161.391C903.166 160.424 873.073 117.705 866.198 107.916L852.99 115.65C867.585 140.968 889.537 178.611 890.924 180.001C892.311 181.391 914.866 192.388 929.641 199.397L930.003 199.578V199.941L929.219 281.512Z" fill="#231F20"/>
<path d="M997.666 210.004L996.468 210.142L999.106 233.254L1000.3 233.116L997.666 210.004Z" fill="#231F20"/>
<path d="M1001.71 263.989C996.1 262.358 985.727 253.717 970.771 238.189C959.675 226.648 950.086 215.469 950.025 215.349L949.784 215.047L956.177 202.901L956.72 203.264C994.412 226.164 1002.61 235.711 1002.98 236.134L1002.07 236.92C1002.01 236.799 993.688 227.192 956.659 204.654L951.292 214.926C954.729 218.914 989.768 259.337 1002.13 262.902L1001.71 263.989Z" fill="#231F20"/>
<path d="M864.931 107.976C864.931 107.976 860.589 92.6289 858.599 90.8162C856.609 89.0035 844.004 93.1727 844.306 101.33C844.608 109.427 855.342 113.656 855.342 113.656L864.931 107.976Z" fill="#FFB5A9"/>
<path d="M941.16 218.732C942.728 217.403 943.391 215.409 943.09 213.475L971.736 189.064C973.545 189.669 975.656 189.306 977.224 187.977C978.913 186.527 979.576 184.351 979.093 182.357L975.354 185.56C975.294 185.62 975.294 185.62 975.234 185.681C974.088 186.648 972.399 186.527 971.434 185.379C970.469 184.231 970.59 182.539 971.736 181.572C971.796 181.512 971.796 181.512 971.857 181.451L975.596 178.249C973.666 177.463 971.434 177.765 969.746 179.215C968.178 180.545 967.514 182.539 967.816 184.472L939.17 208.883C937.361 208.279 935.25 208.581 933.682 209.971C931.269 212.025 930.968 215.651 933.018 218.068C935.069 220.485 938.748 220.787 941.16 218.732ZM935.672 212.327C936.818 211.361 938.506 211.482 939.471 212.63C940.436 213.778 940.316 215.469 939.17 216.436C938.024 217.403 936.335 217.282 935.37 216.134C934.405 214.986 934.586 213.294 935.672 212.327Z" fill="#231F20"/>
<path d="M955.453 204.895C955.453 204.895 948.156 194.261 946.949 193.838C945.683 193.415 936.938 201.935 941.1 206.587C945.201 211.24 950.869 213.053 950.869 213.053L955.453 204.895Z" fill="#FFB5A9"/>
<path d="M967.213 155.832L966.971 154.623L969.022 154.2L968.66 146.224C959.915 146.647 953.101 144.291 948.457 139.155C943.632 133.838 942.064 126.587 941.582 121.39C941.099 115.771 941.703 111.481 941.763 111.3L942.969 111.481C942.969 111.662 940.557 128.641 949.362 138.309C953.885 143.203 960.518 145.439 969.203 144.955L969.806 144.895L970.228 155.107L967.213 155.832Z" fill="#231F20"/>
<path d="M987.898 110.454L989.587 117.644C989.587 117.644 988.381 114.381 993.205 110.635C998.03 106.828 994.472 101.269 994.472 101.269L989.104 103.263L987.898 110.454Z" fill="#231F20"/>
<path d="M215.238 409.67L162.047 529.429H316.977L375.596 410.274C377.103 407.193 374.872 403.507 371.434 403.507H224.766C220.665 403.507 216.926 405.924 215.238 409.67Z" fill="#989898"/>
<path d="M317.338 530.033H161.142L214.695 409.428C216.444 405.44 220.364 402.903 224.706 402.903H371.374C373.183 402.903 374.872 403.809 375.837 405.38C376.802 406.951 376.922 408.824 376.078 410.516L317.338 530.033ZM163.011 528.825H316.615L375.113 409.972C375.716 408.703 375.656 407.253 374.932 406.045C374.209 404.836 372.882 404.111 371.495 404.111H224.766C220.907 404.111 217.409 406.407 215.841 409.912L163.011 528.825Z" fill="#231F20"/>
<path d="M170.61 510.154H102.764C100.292 510.154 97.9396 511.483 96.6731 513.598L87.3857 529.369H162.046L170.61 510.154Z" fill="#989898"/>
<path d="M162.469 530.033H86.3605L96.1906 513.356C97.5777 511.06 100.111 509.61 102.764 509.61H171.575L162.469 530.033ZM88.4712 528.825H161.685L169.706 510.758H102.764C100.472 510.758 98.3617 511.967 97.2158 513.961L88.4712 528.825Z" fill="#231F20"/>
<path d="M287.002 471.61C293.078 465.522 294.357 456.934 289.859 452.427C285.361 447.92 276.788 449.201 270.712 455.289C264.636 461.377 263.357 469.966 267.855 474.473C272.353 478.98 280.926 477.698 287.002 471.61Z" fill="white"/>
<path d="M385.064 281.331H314.625V286.044H385.064V281.331Z" fill="#84E6EC"/>
<path d="M355.453 270.757H314.625V275.47H355.453V270.757Z" fill="#84E6EC"/>
<path d="M391.878 206.708H314.625V223.868H391.878V206.708Z" fill="#84E6EC"/>
<path d="M414.434 260.243H314.625V264.956H414.434V260.243Z" fill="#84E6EC"/>
<path d="M376.922 249.669H314.625V254.382H376.922V249.669Z" fill="#84E6EC"/>
<path d="M414.434 239.095H314.625V243.808H414.434V239.095Z" fill="#84E6EC"/>
<path d="M385.064 162.562H314.625V167.275H385.064V162.562Z" fill="#84E6EC"/>
<path d="M355.453 152.049H314.625V156.762H355.453V152.049Z" fill="#84E6EC"/>
<path d="M391.878 88H314.625V105.16H391.878V88Z" fill="#84E6EC"/>
<path d="M414.434 141.475H314.625V146.188H414.434V141.475Z" fill="#84E6EC"/>
<path d="M376.922 130.901H314.625V135.614H376.922V130.901Z" fill="#84E6EC"/>
<path d="M414.434 120.387H314.625V125.1H414.434V120.387Z" fill="#84E6EC"/>
<path d="M680.209 43.686H641.431V4.83386H680.209V43.686ZM644.447 40.6649H677.194V7.85503H644.447V40.6649Z" fill="#0DCEDA"/>
<path d="M662.72 28.1573L678.52 67.5532L685.456 50.8764L702.04 43.9882L662.72 28.1573Z" fill="#FAD5B1"/>
<path d="M269.092 318.25L240.326 303.023L241.532 335.591L269.092 318.25Z" fill="#FAD5B1"/>
</g>
<defs>
<clipPath id="clip0">
<rect width="1200" height="531" fill="white"/>
</clipPath>
</defs>
</svg>
