<svg width="215" height="42" viewBox="0 0 215 42" fill="none" xmlns="http://www.w3.org/2000/svg">
<path d="M65.3623 16.4348H71.225V19.5103H71.5133C72.5705 17.5881 74.8772 15.8581 78.241 15.8581C81.6049 15.8581 84.1998 17.2998 85.6415 19.6064H86.0259C87.7559 17.0114 90.1586 15.8581 93.4264 15.8581C98.9046 15.8581 102.557 19.6064 102.557 24.8924V41.3272H96.4058V26.9108C96.4058 23.5469 94.868 21.5286 91.8886 21.5286C89.1014 21.5286 87.0831 23.643 87.0831 27.0069V41.3272H80.9321V26.5263C80.9321 23.4508 79.106 21.5286 76.3188 21.5286C73.5316 21.5286 71.5133 23.8352 71.5133 27.0069V41.3272H65.3623V16.4348Z" fill="#16161D"/>
<path d="M106.209 29.0252C106.209 21.1441 111.495 15.762 118.799 15.762C126.776 15.762 131.198 21.7208 131.198 28.7368V30.659H112.264C112.456 34.4073 115.051 37.0023 118.992 37.0023C122.067 37.0023 124.374 35.5606 125.239 33.5423H131.005C129.756 38.6361 125.335 41.9039 118.895 41.9039C111.399 42 106.209 36.4256 106.209 29.0252ZM125.239 26.3341C124.95 22.9702 122.355 20.7597 118.703 20.7597C115.243 20.7597 112.552 23.2586 112.168 26.3341H125.239Z" fill="#16161D"/>
<path d="M135.138 34.3112V5.76657H141.289V33.7345C141.289 35.1762 141.962 35.9451 143.308 35.9451H144.269V41.3272H141.962C137.541 41.3272 135.138 38.7322 135.138 34.3112Z" fill="#16161D"/>
<path d="M147.824 34.3112V5.76657H153.975V33.7345C153.975 35.1762 154.648 35.9451 155.994 35.9451H156.955V41.3272H154.648C150.323 41.3272 147.824 38.7322 147.824 34.3112Z" fill="#16161D"/>
<path d="M158.877 28.9291C158.877 21.5286 164.259 15.8581 172.14 15.8581C179.925 15.8581 185.404 21.5286 185.404 28.9291C185.404 36.3295 179.925 42 172.14 42C164.355 42 158.877 36.3295 158.877 28.9291ZM179.156 28.9291C179.156 24.6041 176.177 21.4325 172.14 21.4325C168.008 21.4325 165.124 24.6041 165.124 28.9291C165.124 33.3501 168.104 36.4256 172.14 36.4256C176.177 36.4256 179.156 33.254 179.156 28.9291Z" fill="#16161D"/>
<path d="M189.44 16.4348H195.303V20.4714H195.687C196.456 18.5492 198.763 16.3387 202.223 16.3387H204.529V22.2014H201.934C197.994 22.2014 195.591 25.0847 195.591 29.5058V41.3273H189.44V16.4348Z" fill="#16161D"/>
<path d="M206.74 9.51487C206.74 7.40045 208.278 5.9588 210.488 5.9588C212.699 5.9588 214.237 7.40045 214.237 9.51487C214.237 11.7254 212.699 13.0709 210.488 13.0709C208.278 13.0709 206.74 11.7254 206.74 9.51487ZM207.509 16.4348H213.66V41.3272H207.509V16.4348Z" fill="#16161D"/>
<path d="M27.5912 17.2037C27.5912 17.2998 27.6873 17.492 27.6873 17.5881C29.9939 25.6613 29.1289 33.9268 25.8612 41.0389C19.2296 36.9062 13.9436 30.4668 11.4447 22.4897C11.3486 22.3936 11.3486 22.2014 11.3486 22.1053C11.3486 22.0092 11.2525 21.8169 11.2525 21.7208C10.1953 17.3959 12.6941 12.8787 17.0191 11.6293C21.344 10.2837 25.9573 12.6865 27.3989 16.9153C27.495 16.9153 27.495 17.1075 27.5912 17.2037Z" fill="#45E5C2"/>
<path d="M7.21589 21.1441C9.90696 23.4508 11.4447 26.7185 11.733 29.9863C8.27309 30.5629 4.62092 29.794 1.64151 27.4874C-0.280682 25.9496 -0.569012 23.1625 1.06486 21.3364C2.69872 19.6064 5.3898 19.6064 7.21589 21.1441Z" fill="#A4FCD6"/>
<path d="M9.33039 32.389C13.6553 34.119 17.1153 37.1945 19.3258 40.8467C15.097 42 10.3876 41.9039 5.96654 40.1739C3.65991 39.3089 2.6027 36.6179 3.65991 34.4073C4.71711 32.389 7.21597 31.524 9.33039 32.389Z" fill="#A4FCD6"/>
<path d="M52.7719 3.74828C50.4653 1.44165 47.2937 0 43.8337 0C36.8177 0 31.1472 5.67048 31.1472 12.6865V41.0389H35.376C47.1014 41.0389 56.5202 31.524 56.5202 19.8947V12.6865C56.5202 9.22654 55.0786 6.05492 52.7719 3.74828ZM43.8337 16.9153C41.5271 16.9153 39.6049 14.9931 39.6049 12.6865C39.6049 10.3799 41.5271 8.45767 43.8337 8.45767C46.1404 8.45767 48.0625 10.3799 48.0625 12.6865C48.0625 14.9931 46.1404 16.9153 43.8337 16.9153Z" fill="#0DCEDA"/>
<path d="M34.6071 0.57666C32.4927 2.21053 30.8588 4.22883 29.8016 6.72769L29.6094 6.63158C27.2066 3.9405 24.1311 1.82609 20.6711 0.57666H34.6071Z" fill="#0DCEDA"/>
</svg>
