<svg width="110" height="347" viewBox="0 0 110 347" fill="none" xmlns="http://www.w3.org/2000/svg">
<path d="M54.7138 33.5133V47.6292L47.5078 50.2835L56.305 69.7382L71.3426 70.4211L75.7025 53.8831L73.5697 50.8856L71.8775 49.7688L72.1433 39.6562L72.6782 33.5133L61.6068 24.2317L54.7138 33.5133Z" fill="#FFD3CA"/>
<path d="M72.1435 39.6562L72.0224 44.3088C72.0224 44.3088 67.1242 43.1515 62.5086 35.3434C57.8931 27.5319 70.6229 33.1231 70.6229 33.1231L72.1435 39.6562Z" fill="#E2765A"/>
<path d="M81.0821 16.067C81.0821 16.067 80.1603 39.7504 77.8559 41.3618C75.5514 42.9732 61.6408 37.7555 60.0361 33.6075C58.4314 29.4562 56.4668 21.6178 56.4668 21.6178L57.7822 9.14363L70.697 4.23874L80.3689 10.0553L81.0821 16.067Z" fill="#FFD3CA"/>
<path d="M56.3286 316.332L58.771 341.129C58.771 341.129 70.4646 336.849 70.6127 336.799C70.7573 336.745 69.341 311.575 69.341 311.575L56.5675 314.259L56.3286 316.332Z" fill="#FDE6E1"/>
<path d="M57.3614 332.506C57.3614 332.506 64.5909 335.127 70.468 331.951C70.468 331.951 73.3275 335.685 77.5394 336.637C81.7479 337.589 93.6636 341.643 93.6636 343.628C93.6636 345.613 93.6636 346.249 93.6636 346.249H56.3286L57.3614 332.506Z" fill="black"/>
<path d="M37.335 316.332L34.8926 341.129C34.8926 341.129 23.1989 336.849 23.0509 336.799C22.9062 336.745 24.3225 311.575 24.3225 311.575L37.0961 314.259L37.335 316.332Z" fill="#FDE6E1"/>
<path d="M36.3022 332.506C36.3022 332.506 29.0727 335.127 23.1956 331.951C23.1956 331.951 20.3361 335.685 16.1242 336.637C11.9157 337.589 0 341.64 0 343.628C0 345.613 0 346.249 0 346.249H37.335L36.3022 332.506Z" fill="black"/>
<path d="M81.0823 16.067C81.0823 16.067 86.4514 15.549 86.7744 13.8534C87.0973 12.1579 85.4388 11.697 85.4388 11.697C85.4388 11.697 87.5616 6.60376 78.3843 5.70217C78.3843 5.70217 80.8165 4.0874 80.0293 2.25731C79.2388 0.423869 69.8932 -2.3078 61.4897 3.54577C61.4897 3.54577 62.2298 0.45751 58.3913 1.88726C54.5528 3.31701 44.3865 13.221 49.3519 23.818C48.6387 25.2006 48.9516 26.886 50.129 27.9626L54.7177 33.5066C54.7177 33.5066 64.8571 23.4109 66.3407 20.7701C67.8243 18.1292 68.0463 15.7575 68.0463 15.7575L70.4752 12.9317C70.4752 12.9317 74.3978 14.7046 79.9217 13.1974C79.9149 13.2075 80.5676 13.4195 81.0823 16.067Z" fill="#B55445"/>
<path d="M85.0757 153.636L86.0479 208.195C86.2969 222.23 85.651 236.269 84.1102 250.223L75.7033 326.35H55.7103L55.0644 194.867L42.5902 326.35H18.668L19.3879 254.492C19.7209 221.204 23.4585 188.034 30.5366 155.506L30.9436 153.633L59.939 146.945L85.0757 153.636Z" fill="#5771AB"/>
<path d="M60.2638 31.7563C62.1844 31.1261 63.0359 28.4657 62.1658 25.8143C61.2957 23.163 59.0334 21.5245 57.1128 22.1548C55.1922 22.7851 54.3406 25.4454 55.2108 28.0968C56.0809 30.7482 58.3432 32.3866 60.2638 31.7563Z" fill="#FFD3CA"/>
<path d="M73.5698 50.8856L96.9336 62.5726L85.0717 153.636C85.0717 153.636 51.6525 161.064 30.943 153.636L25.187 59.629L47.5079 50.2834C47.5079 50.2834 58.1352 58.0176 73.5698 50.8856Z" fill="#97B2D3"/>
<path d="M20.9551 85.5092L21.5236 91.2854L32.4772 93.9699L33.0726 89.462L20.9551 85.5092Z" fill="#EAA69B"/>
<path d="M32.4771 92.3921L57.8391 101.603C57.8391 101.603 81.5966 122.269 93.2701 119.958L102.78 107.181L90.3904 92.705L86.7941 99.9446L84.16 99.228L54.8182 91.2853C46.1926 91.4132 36.0161 91.6453 32.4771 92.3921Z" fill="#FFD3CA"/>
<path d="M57.8394 101.603C57.8394 101.603 76.9106 98.0842 81.9937 98.7335L74.6263 93.9733L57.8394 96.9842V101.603Z" fill="#EAA69B"/>
<path d="M10.1528 103.672C10.1528 106.212 27.5352 111.45 45.0926 106.212C50.7275 104.53 54.7308 102.956 57.8426 101.607C64.4262 98.7504 66.993 96.89 72.4799 97.1087C80.3856 97.4148 84.2442 99.6822 84.4023 99.7764C84.3922 99.7394 84.3048 99.5443 84.1635 99.2348C83.4032 97.5662 80.9877 92.594 78.9693 91.7429C76.5437 90.7135 71.1073 90.6193 68.1974 90.9927C66.9493 91.1542 61.3211 91.1946 54.8216 91.2921C47.9521 91.393 40.107 91.5579 35.4039 91.9986C34.1996 92.1096 33.2038 92.2442 32.4805 92.3956L33.0759 89.4688C33.0759 89.4688 26.6 90.0171 24.2048 90.0171C21.8061 90.0171 22.2838 87.2485 22.2838 87.2485C21.278 87.1576 21.0055 86.2661 20.955 85.5159L18.5766 85.7581C18.58 85.7514 10.1528 101.136 10.1528 103.672Z" fill="#FFD3CA"/>
<path d="M24.2011 90.0137C24.2011 90.0137 21.2642 93.25 32.4768 92.3922L37.8829 90.0137L33.0723 87.0937L24.2011 90.0137Z" fill="#FFD3CA"/>
<path d="M77.3656 22.8871C77.968 21.9736 77.9195 20.8789 77.2572 20.4422C76.5949 20.0055 75.5697 20.392 74.9673 21.3056C74.3648 22.2191 74.4134 23.3137 75.0756 23.7505C75.7379 24.1872 76.7632 23.8007 77.3656 22.8871Z" fill="#B55445"/>
<path d="M79.0568 30.8389C78.8012 30.7918 78.6094 30.5597 78.6027 30.2771C78.5959 29.9474 78.8449 29.6682 79.1578 29.6514C79.8575 29.6177 80.2175 29.2813 80.352 29.066C80.0022 28.7901 79.5749 27.8112 79.2923 23.9424C79.2688 23.6128 79.5009 23.3201 79.8138 23.2898C80.1266 23.2562 80.3991 23.4984 80.4227 23.8281C80.5471 25.5337 80.823 27.5622 81.0518 28.0669C81.3814 28.2149 81.5766 28.5715 81.5429 28.9987C81.4857 29.7254 80.7153 30.7783 79.1847 30.849C79.1376 30.849 79.0972 30.8456 79.0568 30.8389Z" fill="#E2765A"/>
<path d="M79.2282 36.5982C79.2248 36.5982 79.2214 36.5982 79.2214 36.6016C76.3283 37.2004 75.2013 35.9792 75.1542 35.9288C75.0163 35.774 75.0196 35.5352 75.1643 35.3939C75.3056 35.2559 75.531 35.2627 75.6689 35.414C75.6925 35.4376 76.6243 36.3661 79.0667 35.8615C79.2584 35.8211 79.4502 35.9557 79.4939 36.1609C79.5343 36.3594 79.4165 36.5545 79.2282 36.5982Z" fill="#E2765A"/>
<path d="M79.3358 19.4177C79.3829 19.4211 79.4334 19.4143 79.4805 19.3942C79.6756 19.3235 79.7799 19.0981 79.7126 18.8895C79.6924 18.8256 79.1777 17.2815 77.7581 16.7163C76.7455 16.3126 75.5613 16.5145 74.2358 17.3151C74.0542 17.4228 73.9903 17.665 74.0945 17.8568C74.1955 18.0485 74.4242 18.1124 74.6025 18.0048C75.7228 17.3286 76.6916 17.1436 77.4856 17.4598C78.5789 17.8904 79.0028 19.1452 79.0062 19.1553C79.0533 19.3101 79.1878 19.411 79.3358 19.4177Z" fill="#B55445"/>
<path d="M33.0722 91.2585C33.0722 91.2585 27.222 97.2331 12.2517 98.3332C11.1853 98.4106 10.3308 97.4552 10.536 96.4056C12.0196 88.8498 17.6377 62.7913 25.1834 59.629C34.0209 55.9285 37.8796 70.4211 37.8796 70.4211L33.0722 91.2585Z" fill="#97B2D3"/>
<path d="M20.9549 85.5092C21.0054 86.2594 21.2779 87.1509 22.2838 87.2417C22.2838 87.2417 21.8027 90.0104 24.2047 90.0104C26.5999 90.0104 33.0759 89.462 33.0759 89.462L32.4804 92.3888C36.0195 91.642 46.1959 91.4099 54.8215 91.2854C54.8215 91.2854 43.3903 80.9273 41.2305 80.0829C39.0741 79.2351 32.2786 79.0804 31.3164 79.003C30.3577 78.9256 22.526 79.0804 21.7253 79.003C21.7253 79.003 21.0054 81.6976 25.7219 82.3133C30.4384 82.9323 34.6738 83.0063 34.6738 83.0063L34.4215 84.1333L21.002 84.4697C21.0054 84.4697 20.9179 84.9508 20.9549 85.5092Z" fill="#FFD3CA"/>
<path d="M35.4043 91.9952C40.1073 91.5545 47.9525 91.3896 54.822 91.2887C54.822 91.2853 41.712 88.7286 35.4043 91.9952Z" fill="#EAA69B"/>
<path d="M84.4023 93.9699C84.4023 93.9699 92.4324 100.678 102.784 107.181L108.607 92.5805C111.265 85.9128 110.06 78.3267 105.465 72.813L96.9336 62.5726L84.3989 72.4631V93.9699H84.4023Z" fill="#97B2D3"/>
</svg>
