<svg width="196" height="236" viewBox="0 0 196 236" fill="none" xmlns="http://www.w3.org/2000/svg">
<path d="M140.451 167.379H58.436V75.1121C58.436 63.0577 68.2075 53.2863 80.2619 53.2863H118.626C130.68 53.2863 140.451 63.0577 140.451 75.1121V167.379Z" fill="#1D71D4"/>
<path d="M67.2678 183.014C67.2678 183.014 60.0303 184.511 54.8493 192.495C49.6682 200.479 38.9787 211.196 32.9102 206.63L51.74 162.768L70.8422 169.528L67.2678 183.014Z" fill="#59302F"/>
<path d="M90.4307 41.9113C90.4307 41.9113 90.495 48.6623 87.1593 53.7668C86.4921 54.7859 86.8257 56.1508 87.9121 56.7047C89.8952 57.7176 92.8759 59.3028 95.37 60.885C98.2283 62.6967 101.898 62.4978 104.6 60.4627C106.47 59.058 108.71 57.6105 110.99 56.6802C112 56.267 112.508 55.1347 112.128 54.1126C111.247 51.7317 109.955 47.3157 109.98 41.9113C110.02 33.7189 100.205 32.3326 100.205 32.3326L90.4307 41.9113Z" fill="#FFD3CA"/>
<path d="M52.4352 142.193C52.4352 142.193 15.2345 132.483 5.7048 140.489C-3.82489 148.494 -0.351474 162.266 8.31522 166.636C38.1713 181.686 133.401 197.606 133.401 197.606L138.588 182.984C138.588 182.984 170.268 179.957 183.993 173.059C197.716 166.161 200.415 142.089 186.337 139.718C169.711 136.917 146.594 144.479 146.594 144.479L76.0697 148.292L52.4352 142.193Z" fill="#020000"/>
<path d="M90.4316 41.9112C90.4316 41.9112 95.4658 51.2512 100.206 51.2512C104.947 51.2512 109.981 41.9112 109.981 41.9112L107.107 37.4983L90.4316 41.9112Z" fill="#E2765A"/>
<path d="M62.4296 62.5344C62.4296 62.5344 49.6683 76.8963 48.2911 93.7217C47.5108 103.251 44.2914 124.275 58.4359 143.739C87.4351 148.464 75.6653 78.91 75.6653 78.91L62.4296 62.5344Z" fill="#1D71D4"/>
<path d="M137.621 64.3645C137.621 64.3645 147.815 80.8013 150.882 92.9934C157.476 119.205 140.397 144.813 140.397 144.813L132.293 93.3729L137.621 64.3645Z" fill="#1D71D4"/>
<path d="M100.21 46.7984C108.211 46.7984 114.697 38.4488 114.697 28.1491C114.697 17.8493 108.211 9.49976 100.21 9.49976C92.2088 9.49976 85.7227 17.8493 85.7227 28.1491C85.7227 38.4488 92.2088 46.7984 100.21 46.7984Z" fill="#FFD3CA"/>
<path d="M85.2767 34.5178C87.1809 34.1627 88.3544 31.8894 87.8977 29.4403C87.4411 26.9911 85.5273 25.2935 83.6231 25.6485C81.7189 26.0036 80.5455 28.2768 81.0021 30.726C81.4587 33.1752 83.3726 34.8728 85.2767 34.5178Z" fill="#FFD3CA"/>
<path d="M119.437 30.7265C119.894 28.2773 118.721 26.0041 116.816 25.6491C114.912 25.294 112.998 26.9917 112.542 29.4408C112.085 31.89 113.258 34.1632 115.163 34.5183C117.067 34.8733 118.981 33.1757 119.437 30.7265Z" fill="#FFD3CA"/>
<path d="M94.4899 30.0865C95.2183 30.0865 95.8089 29.2192 95.8089 28.1493C95.8089 27.0795 95.2183 26.2122 94.4899 26.2122C93.7614 26.2122 93.1709 27.0795 93.1709 28.1493C93.1709 29.2192 93.7614 30.0865 94.4899 30.0865Z" fill="#B55445"/>
<path d="M105.795 30.0865C106.523 30.0865 107.114 29.2192 107.114 28.1493C107.114 27.0795 106.523 26.2122 105.795 26.2122C105.066 26.2122 104.476 27.0795 104.476 28.1493C104.476 29.2192 105.066 30.0865 105.795 30.0865Z" fill="#B55445"/>
<path d="M87.6529 23.6933L86.7654 32.3324C86.7654 32.3324 86.1381 27.1269 85.7953 26.2119C85.4526 25.2969 83.9714 21.2634 83.5858 19.7639C83.3899 19.005 83.0288 16.1467 83.1512 13.7658C83.2828 11.1492 85.1343 8.93972 87.6835 8.33685L88.4516 8.15628C88.4516 8.15628 93.8958 0.334226 100.206 0.0312591C106.516 -0.271708 117.699 1.54302 120.618 9.19983C120.618 9.19983 117.396 11.4063 116.588 12.4192C115.78 13.4322 114.693 26.215 114.693 26.215C114.693 26.215 113.834 31.2736 113.561 31.9989L113.485 23.4913C113.485 23.4913 111.753 20.63 111.716 20.48C111.649 20.2046 111.612 19.6384 111.59 19.1794C111.569 18.7357 111.324 18.3409 110.935 18.1267C109.185 17.1596 104.142 14.589 100.206 14.7144C96.7174 14.8246 93.1828 16.4037 91.4782 17.279C90.8203 17.6187 90.3765 18.2552 90.2786 18.9897L90.2266 19.3691C90.098 20.3331 89.7002 21.239 89.079 21.9857L87.6529 23.6933Z" fill="black"/>
<path d="M97.2588 25.0278C97.1486 25.0278 97.0415 24.9788 96.968 24.8839C96.2703 23.975 95.496 23.5007 94.6667 23.4793C93.1886 23.4395 91.888 24.8839 91.8757 24.8992C91.7442 25.0522 91.5116 25.0675 91.3616 24.939C91.2086 24.8074 91.1902 24.5779 91.3218 24.4249C91.383 24.3545 92.8183 22.7203 94.682 22.7509C95.7409 22.7785 96.7048 23.3477 97.5464 24.4402C97.6688 24.5993 97.6382 24.8288 97.4791 24.9513C97.4148 25.0033 97.3383 25.0278 97.2588 25.0278Z" fill="#B55445"/>
<path d="M108.622 25.0278C108.512 25.0278 108.405 24.9788 108.331 24.8839C107.634 23.975 106.859 23.5007 106.03 23.4793C104.518 23.4395 103.251 24.8839 103.239 24.8992C103.107 25.0522 102.875 25.0675 102.725 24.939C102.572 24.8074 102.554 24.5779 102.685 24.4249C102.746 24.3545 104.172 22.7203 106.045 22.7509C107.104 22.7785 108.068 23.3477 108.91 24.4402C109.032 24.5993 109.002 24.8288 108.842 24.9513C108.778 25.0033 108.702 25.0278 108.622 25.0278Z" fill="#B55445"/>
<path d="M99.4446 36.2406C99.2824 36.2406 99.1233 36.1579 99.0315 36.0111L98.8785 35.7693C98.3521 34.9461 97.6329 33.8199 97.9298 32.8651C98.1991 32.0082 99.7109 29.0336 99.7751 28.9051C99.8975 28.6633 100.191 28.5715 100.427 28.6909C100.666 28.8133 100.761 29.104 100.638 29.3427C100.21 30.1812 99.059 32.504 98.857 33.1527C98.6918 33.6761 99.3191 34.6584 99.6955 35.2429L99.8547 35.4939C99.9985 35.7203 99.9281 36.0202 99.6986 36.1641C99.6221 36.2191 99.5334 36.2406 99.4446 36.2406Z" fill="#E2765A"/>
<path d="M99.9731 41.4122C97.635 41.4122 96.1753 40.2983 96.0835 40.2279C95.8723 40.0627 95.8356 39.7597 96.0008 39.5486C96.163 39.3374 96.4691 39.3007 96.6802 39.4629C96.7996 39.5547 99.6426 41.6846 103.792 39.3527C104.028 39.2211 104.325 39.3037 104.453 39.5394C104.585 39.7719 104.502 40.0688 104.27 40.2004C102.648 41.1093 101.191 41.4122 99.9731 41.4122Z" fill="#E2765A"/>
<path d="M67.0265 109.479C65.1689 104.185 66.9286 90.6338 67.002 90.0585L67.966 90.187C67.9477 90.3247 66.1604 104.081 67.9415 109.158L67.0265 109.479Z" fill="#052749"/>
<path d="M132.721 108.117L131.865 107.655C134.242 103.245 131.837 88.2804 131.812 88.1304L132.77 87.9744C132.877 88.6017 135.258 103.417 132.721 108.117Z" fill="#052749"/>
<path d="M138.385 183.424C98.0266 165.206 67.0229 152.812 48.1196 145.621L48.4654 144.712C67.381 151.91 98.4061 164.313 138.786 182.537L138.385 183.424Z" fill="#333333"/>
<path d="M101.586 167.046L101.075 166.219C118.914 155.218 134.897 149.232 145.477 145.272L145.819 146.181C135.274 150.128 119.342 156.093 101.586 167.046Z" fill="#333333"/>
<path d="M136.357 153.626H63.3691V106.302C63.3691 104.616 64.734 103.251 66.4202 103.251H133.309C134.995 103.251 136.36 104.616 136.36 106.302V153.626H136.357Z" fill="white"/>
<path d="M136.36 149.697H63.3691V153.626H136.36V149.697Z" fill="#CCCCCC"/>
<path d="M88.4551 8.1532C88.4551 8.1532 91.0808 18.4541 111.272 16.621L108.622 9.49973L88.4551 8.1532Z" fill="black"/>
<path d="M133.795 196.48C133.795 196.48 138.921 201.804 138.686 211.319C138.45 220.833 141.21 235.715 148.797 235.376L158.045 188.547L138.465 183.333L133.795 196.48Z" fill="#59302F"/>
<path d="M91.1747 35.7538C93.1201 35.7538 94.6971 34.7509 94.6971 33.5137C94.6971 32.2765 93.1201 31.2736 91.1747 31.2736C89.2293 31.2736 87.6523 32.2765 87.6523 33.5137C87.6523 34.7509 89.2293 35.7538 91.1747 35.7538Z" fill="#FFAD9F"/>
<path d="M108.888 35.7538C110.833 35.7538 112.41 34.7509 112.41 33.5137C112.41 32.2765 110.833 31.2736 108.888 31.2736C106.942 31.2736 105.365 32.2765 105.365 33.5137C105.365 34.7509 106.942 35.7538 108.888 35.7538Z" fill="#FFAD9F"/>
<path d="M82.6547 31.0168C82.4558 31.0168 82.2936 30.8576 82.2905 30.6587C82.263 29.1133 82.6241 28.0728 83.3555 27.5586C84.2032 26.9711 85.1978 27.3414 85.2376 27.3567C85.4242 27.4301 85.5191 27.6413 85.4457 27.828C85.3722 28.0146 85.1611 28.1064 84.9774 28.036C84.9591 28.0299 84.292 27.7912 83.7686 28.1584C83.2576 28.5196 82.9975 29.3795 83.0189 30.6434C83.0219 30.8454 82.8628 31.0106 82.6608 31.0137C82.6578 31.0168 82.6547 31.0168 82.6547 31.0168Z" fill="#B55445"/>
<path d="M117.909 29.9426C117.903 29.9426 117.897 29.9426 117.888 29.9426C117.686 29.9304 117.533 29.759 117.545 29.5601C117.594 28.6818 117.426 28.1034 117.043 27.8463C116.517 27.4913 115.62 27.782 115.317 27.9228C115.134 28.0085 114.916 27.9289 114.834 27.7484C114.748 27.5678 114.828 27.3505 115.008 27.2649C115.066 27.2373 116.471 26.5855 117.45 27.2434C118.059 27.6535 118.338 28.4492 118.274 29.6029C118.261 29.7926 118.102 29.9426 117.909 29.9426Z" fill="#B55445"/>
</svg>
