<svg width="245" height="289" viewBox="0 0 245 289" fill="none" xmlns="http://www.w3.org/2000/svg">
<path d="M245 118H0V123H245V118Z" fill="#805251"/>
<path d="M11.1079 123.326H7.97412V287.027H11.1079V123.326Z" fill="#4D4D4D"/>
<path d="M39.2563 213.957H36.1226V287.023H39.2563V213.957Z" fill="#4D4D4D"/>
<path d="M137.126 258.612L132.5 276.543C132.5 276.543 141.753 276.543 141.867 276.543C141.982 276.543 147.418 258.612 147.418 258.612L137.817 257.223L137.126 258.612Z" fill="#FDE6E1"/>
<path d="M130.412 273.989C130.412 273.989 138.117 276.783 144.384 273.398C144.384 273.398 147.433 277.378 151.919 278.394C156.405 279.41 169.107 283.73 169.107 285.844C169.107 287.958 169.107 288.638 169.107 288.638H129.311L130.412 273.989Z" fill="black"/>
<path d="M173.837 260.922L182.196 277.444C182.196 277.444 189.147 271.336 189.236 271.258C189.325 271.181 181.572 254.126 181.572 254.126L173.445 259.422L173.837 260.922Z" fill="#FDE6E1"/>
<path d="M178.944 276.905C178.944 276.905 186.575 273.919 189.047 267.237C189.047 267.237 193.966 268.213 198.005 266.014C202.048 263.815 214.439 258.675 215.835 260.264C217.232 261.853 217.679 262.363 217.679 262.363L187.783 288.634L178.944 276.905Z" fill="black"/>
<path d="M225.998 112.107H99.8838V117.587H225.998V112.107Z" fill="#6595FC"/>
<path d="M142.175 222.408L121.362 197.819C121.362 197.819 159.295 181.633 159.92 181.426C160.545 181.219 169.58 201.658 169.107 201.917C168.634 202.176 142.175 222.408 142.175 222.408Z" fill="#1E3E72"/>
<path d="M158.379 244.965L175.093 266.901L186.32 261.184L171.232 220.778L164.074 214.481L158.379 244.965Z" fill="#1E3E72"/>
<path d="M93.9897 160.946L179.133 159.031C186.272 158.873 191.56 165.613 189.705 172.509C186.601 184.064 182.041 199.785 178.438 206.991C172.385 219.101 147.049 265.309 145.933 269.928L132.866 268.176L146.251 202.372C146.251 202.372 90.1649 202.054 70.7232 202.054C51.2852 202.054 44.5928 172.897 44.5928 161.899L93.9897 160.946Z" fill="#4C6AA6"/>
<path d="M91.7504 67.1887H50.8049C42.0024 67.1887 35.1436 74.8272 36.0934 83.5817L44.5929 161.903L102.149 160.765L106.525 82.813C106.998 74.3283 100.246 67.1887 91.7504 67.1887Z" fill="#7ACAB5"/>
<path d="M105.117 113.504L135.36 132.979C137.766 134.527 140.722 134.945 143.461 134.12C150.035 132.143 162.607 128.263 170.578 125.185C181.764 120.869 188.726 117.258 189.339 117.258C189.957 117.258 197.532 116.29 199.469 113.733C201.405 111.179 202.022 110.296 202.022 110.296C202.022 110.296 205.81 115.052 206.867 115.229C207.129 115.274 207.366 115.296 207.58 115.303C208.075 115.322 208.4 114.797 208.168 114.361L207.041 112.236C207.041 112.236 209.701 113.445 209.86 112.332C209.978 111.497 205.607 107.82 203.426 106.046C202.661 105.422 201.701 105.082 200.714 105.082H196.549C195.119 105.082 193.748 105.647 192.739 106.66C190.637 108.762 187.148 112.24 186.904 112.395C186.553 112.617 178.224 115.255 177.3 115.322C176.431 115.381 145.755 119.675 142.064 120.192C141.835 120.226 141.609 120.141 141.45 119.974L106.536 82.3068L105.117 113.504Z" fill="#FFD3CA"/>
<path d="M66.5327 46.3131C66.5327 46.3131 75.4092 63.1421 95.2684 61.0579C95.2684 61.0579 101.684 48.7003 99.3926 28.8447C97.1014 8.98915 87.9367 14.8205 87.9367 14.8205L69.6073 19.6801L66.5327 46.3131Z" fill="#FFD3CA"/>
<path d="M65.343 49.0441H72.7782C75.5387 49.0441 78.2253 48.2274 80.4277 46.716L85.2651 43.4011C85.2651 43.4011 95.8562 33.7967 97.9811 20.8996C97.9811 20.8996 99.2634 26.0067 99.5036 28.8337C99.5036 28.8337 105.11 21.1546 103.761 13.5568C101.115 -1.38388 63.0555 -7.8509 58.0445 14.7061C58.0445 14.7061 53.5915 14.7652 52.3313 16.4577C51.0712 18.1502 49.0091 30.4708 52.3313 38.7449C53.0667 40.5815 53.8539 42.1077 54.6336 43.3753C56.7954 46.8896 60.9084 49.0441 65.343 49.0441Z" fill="black"/>
<path d="M86.5476 45.539C89.0128 44.9142 90.3181 41.6731 89.4631 38.2998C88.6081 34.9265 85.9166 32.6984 83.4514 33.3232C80.9862 33.948 79.6809 37.1891 80.5359 40.5624C81.3909 43.9358 84.0824 46.1638 86.5476 45.539Z" fill="#FFD3CA"/>
<path d="M81.2668 48.8445H63.0557V67.1849H81.2668V48.8445Z" fill="#FFD3CA"/>
<path d="M104.037 73.7444L126.872 104.235L112.36 122.306L96.447 116.135L92.0605 85.932L104.037 73.7444Z" fill="#7ACAB5"/>
<path d="M83.6828 213.957H32.2275L6.37055 116.841C5.22866 112.547 8.46587 108.334 12.9078 108.334H42.0057C49.9989 108.334 56.9907 113.707 59.049 121.43L83.6828 213.957Z" fill="#0DCEDA"/>
</svg>
