<svg width="173" height="379" viewBox="0 0 173 379" fill="none" xmlns="http://www.w3.org/2000/svg">
<path d="M30.0215 346.888L32.6542 373.509C32.6542 373.509 45.2588 368.914 45.4202 368.859C45.5755 368.803 44.048 341.78 44.048 341.78L30.2761 344.662L30.0215 346.888Z" fill="#FDE6E1"/>
<path d="M31.1329 364.252C31.1329 364.252 38.9254 367.066 45.2588 363.652C45.2588 363.652 48.3386 367.659 52.8775 368.686C57.4164 369.712 70.2569 374.059 70.2569 376.193C70.2569 378.326 70.2569 379.006 70.2569 379.006H30.0215L31.1329 364.252Z" fill="black"/>
<path d="M91.2881 346.888L93.9208 373.509C93.9208 373.509 106.525 368.914 106.687 368.859C106.842 368.803 105.315 341.78 105.315 341.78L91.5427 344.662L91.2881 346.888Z" fill="#FDE6E1"/>
<path d="M92.3989 364.252C92.3989 364.252 100.191 367.066 106.525 363.652C106.525 363.652 109.605 367.659 114.143 368.686C118.682 369.712 131.523 374.059 131.523 376.193C131.523 378.326 131.523 379.006 131.523 379.006H91.2812L92.3989 364.252Z" fill="black"/>
<path d="M34.4734 179.062C34.4734 179.062 22.2165 272.158 29.6923 353.523H50.1392L69.3876 239.718L83.7556 353.523H107.661C107.661 353.523 104.084 210.413 94.6589 179.062H34.4734Z" fill="#1B1464"/>
<path d="M94.6587 72.9679L100.328 120.422C100.359 120.669 100.644 120.799 100.849 120.657L134.938 97.474L139.067 112.995L94.6587 144.501L83.7554 120.966L94.6587 72.9679Z" fill="#677680"/>
<path d="M48.0096 56.7604L24.1105 66.407C22.2353 67.1614 21.099 69.0783 21.3474 71.0819L34.4736 179.068C47.9413 185.703 65.1158 188.61 94.6591 179.068V72.9679C94.6591 69.8822 92.5169 67.2047 89.4931 66.5183L70.7414 62.2701L48.0096 56.7604Z" fill="#9AB1BF"/>
<path d="M71.9581 64.1933C71.8711 76.369 60.8685 73.7595 56.3296 69.7586C51.7845 65.7577 48.0093 56.7604 48.0093 56.7604C56.4538 50.2923 53.2001 35.4514 53.2001 35.4514L59.9868 32.9717L61.9985 35.7544L70.7349 47.8435C70.7349 47.8435 70.3561 53.9963 70.1574 57.7065C70.0891 59.0299 70.0394 60.044 70.0394 60.3655C70.0394 61.5837 71.9581 64.1933 71.9581 64.1933Z" fill="#FFD3CA"/>
<path d="M70.7349 47.8434C70.7349 47.8434 70.3561 53.9962 70.1574 57.7065C62.4518 53.7922 57.1616 41.1712 57.1616 41.1712C57.1616 41.1712 59.459 38.3576 61.9986 35.7543L70.7349 47.8434Z" fill="#B55445"/>
<path d="M57.2174 28.1237C57.2174 28.1237 54.5413 24.0362 51.9086 26.7138C49.2697 29.3851 49.4932 35.4885 53.2001 35.4514C53.2001 35.4514 59.1423 44.5723 61.8308 46.6253C64.5132 48.6783 70.3622 51.2569 73.3364 50.4902C76.3106 49.7234 79.9989 39.2172 80.3342 38.2155H81.9672C81.9672 38.2155 80.9613 33.5406 81.3897 31.2464C81.8182 28.9523 83.9293 22.1255 83.7368 19.5468C83.5443 16.9682 79.2786 7.94619 79.0365 7.61227C78.7943 7.27835 62.2531 8.37905 61.9178 8.37905C61.5825 8.37905 52.3743 14.637 52.3743 14.637L57.2174 28.1237Z" fill="#FFD3CA"/>
<path d="M57.2178 28.1236C57.2178 28.1236 60.5397 26.4726 61.3035 25.2791C62.0734 24.0857 60.6826 18.0689 60.6826 18.0689C60.6826 18.0689 79.2542 18.9594 83.2467 17.4877C83.2467 17.4877 83.4081 17.8339 83.7434 19.553C83.7434 19.553 89.3068 17.5 89.8781 11.576C90.4493 5.65202 86.1836 -2.84441 76.9816 1.92942C76.9816 1.92942 57.758 -5.37355 54.9267 8.42232C54.9267 8.42232 52.1946 5.46032 48.9845 7.1794C48.9845 7.1794 51.2881 5.55308 53.8773 9.09016C53.8773 9.09016 49.8475 9.70854 47.3577 12.2439C44.8616 14.773 42.5518 25.3286 50.2263 31.4381C50.2263 31.4381 51.0708 22.3233 57.2178 28.1236Z" fill="black"/>
<path d="M76.5479 28.9216C76.6156 28.0602 76.1634 27.3224 75.5378 27.2736C74.9122 27.2247 74.3501 27.8835 74.2824 28.7448C74.2146 29.6062 74.6668 30.344 75.2924 30.3928C75.918 30.4416 76.4801 29.7829 76.5479 28.9216Z" fill="#B55445"/>
<path d="M76.9692 25.9098C77.0002 25.8913 77.0313 25.8727 77.0623 25.8418C77.1679 25.7181 77.1555 25.5203 77.0313 25.4028C76.994 25.3657 76.044 24.4938 74.8394 24.6484C73.9826 24.7535 73.2375 25.3471 72.6228 26.4107C72.542 26.5529 72.5855 26.7446 72.7283 26.8374C72.8711 26.9301 73.0574 26.8869 73.1381 26.7446C73.6597 25.848 74.262 25.3533 74.9326 25.2667C75.8577 25.1492 76.6339 25.8542 76.6401 25.8604C76.7332 25.9408 76.8636 25.9593 76.9692 25.9098Z" fill="#B55445"/>
<path d="M75.938 32.1431H71.219C69.6171 32.1431 68.3131 30.8445 68.3131 29.2491V26.6086H60.2412V25.9903H68.3069V24.2774C68.3069 23.9249 68.5988 23.6343 68.9527 23.6343H78.1981C78.5521 23.6343 78.8439 23.9249 78.8439 24.2774V29.2491C78.8439 30.8445 77.54 32.1431 75.938 32.1431ZM68.9278 26.6086V29.2491C68.9278 30.5044 69.9524 31.5247 71.2128 31.5247H75.9318C77.1923 31.5247 78.2168 30.5044 78.2168 29.2491V24.2774L68.9465 24.2526L68.9278 26.6086Z" fill="#2B1506"/>
<path d="M85.8788 32.1431H82.7121C81.4392 32.1431 80.4085 31.1537 80.3588 29.886L80.2843 27.7032H78.5396V27.0848H80.2781V24.2774C80.2781 23.9249 80.57 23.6343 80.9239 23.6343H88.5984C88.9523 23.6343 89.2442 23.9249 89.2442 24.2774V28.7977C89.2318 30.6466 87.7291 32.1431 85.8788 32.1431ZM80.8928 27.3878L80.9798 29.8613C81.0108 30.795 81.7745 31.5247 82.7121 31.5247H85.8788C87.3876 31.5247 88.617 30.3003 88.617 28.7977V24.2774L80.9177 24.2526L80.8928 27.3878Z" fill="#2B1506"/>
<path d="M71.7533 43.9786C71.7595 43.9786 71.7595 43.9848 71.7657 43.9848C75.485 45.5183 77.3105 44.1765 77.385 44.1208C77.6085 43.9477 77.6644 43.6323 77.5092 43.4097C77.3539 43.1871 77.0497 43.1438 76.8324 43.3107C76.7951 43.3355 75.3111 44.3372 72.1693 43.0387C71.9209 42.9335 71.6291 43.0634 71.5235 43.3293C71.4056 43.5828 71.5111 43.8735 71.7533 43.9786Z" fill="#E2765A"/>
<path d="M69.611 38.0114C71.7234 38.0114 73.4358 36.8818 73.4358 35.4884C73.4358 34.095 71.7234 32.9655 69.611 32.9655C67.4986 32.9655 65.7861 34.095 65.7861 35.4884C65.7861 36.8818 67.4986 38.0114 69.611 38.0114Z" fill="#FFAD9F"/>
<path d="M21.8438 125.82C21.8438 125.82 58.273 120.273 72.9204 119.575C72.9204 119.575 77.0371 112.092 82.9482 111.61C88.8594 111.128 91.9702 106.756 92.7525 106.886C93.5349 107.016 94.7891 111.561 87.4809 114.702L112.274 111.826C112.274 111.826 110.591 122.475 98.1172 124.478C85.643 126.482 75.373 125.53 75.373 125.53C75.373 125.53 54.0011 132.931 49.4497 134.947C44.8922 136.963 17.8575 150.475 9.18945 141.397C9.18945 141.397 14.9516 127.576 21.8438 125.82Z" fill="#FFD3CA"/>
<path d="M21.9618 68.2374L0.484316 131.596C0.161439 132.542 0 133.531 0 134.527V140.878C0 143.153 0.850657 145.342 2.38432 147.024C4.75623 149.627 8.41343 150.654 11.7974 149.658L71.4738 132.158L69.3937 117.33L25.8985 123.13L35.74 108.091L21.9618 68.2374Z" fill="#9AB1BF"/>
<path d="M155.651 116.483H99.123L114.603 77.3769C114.987 76.4061 115.925 75.7692 116.968 75.7692H171.919C172.677 75.7692 173.198 76.5298 172.919 77.2347L158.017 114.881C157.638 115.846 156.701 116.483 155.651 116.483Z" fill="#CCCCCC"/>
<path d="M100.427 113.193C99.4771 113.193 90.2378 113.193 90.2378 113.193L87.7666 116.477H99.1294L100.427 113.193Z" fill="#808080"/>
<path d="M30.3317 144.551L30.1516 143.957L71.126 131.942L69.1266 117.682L25.2588 123.532L31.0644 114.671L31.5859 115.005L26.5193 122.741L69.6544 116.99L71.8152 132.387L30.3317 144.551Z" fill="#677680"/>
</svg>
