<svg width="244" height="311" viewBox="0 0 244 311" fill="none" xmlns="http://www.w3.org/2000/svg">
<path d="M132.482 222.337L121.904 307.313L124.005 307.574L134.582 222.598L132.482 222.337Z" fill="#282856"/>
<path d="M176.497 311C176.359 310.333 162.958 244.284 160.576 235.282C158.342 226.847 155.188 224.889 155.156 224.873L156.188 223.026C156.585 223.243 160.158 225.434 162.619 234.742C165.017 243.802 178.016 307.862 178.571 310.582L176.497 311Z" fill="#282856"/>
<path d="M236.744 299.056L220.844 242.686C217.992 232.567 213.212 223.28 206.639 215.083L208.29 213.76C215.044 222.184 219.955 231.721 222.882 242.114L238.781 298.484L236.744 299.056Z" fill="#282856"/>
<path d="M52.8162 268.944L49.4448 303.178C49.4448 303.178 33.2967 297.273 33.0956 297.198C32.8944 297.124 34.8527 262.372 34.8527 262.372L52.4934 266.076L52.8162 268.944Z" fill="#FDE6E1"/>
<path d="M51.3872 291.277C51.3872 291.277 41.4051 294.896 33.2914 290.509C33.2914 290.509 29.343 295.664 23.5316 296.981C17.7201 298.299 1.25977 303.888 1.25977 306.629C1.25977 309.37 1.25977 310.249 1.25977 310.249H52.8109L51.3872 291.277Z" fill="black"/>
<path d="M80.8201 268.944L77.4487 303.178C77.4487 303.178 61.3006 297.273 61.0995 297.198C60.8983 297.124 62.8566 262.372 62.8566 262.372L80.4973 266.076L80.8201 268.944Z" fill="#FDE6E1"/>
<path d="M79.3965 291.277C79.3965 291.277 69.4144 294.896 61.3006 290.509C61.3006 290.509 57.3523 295.664 51.5408 296.981C45.7294 298.299 29.269 303.888 29.269 306.629C29.269 309.37 29.269 310.249 29.269 310.249H80.8202L79.3965 291.277Z" fill="black"/>
<path d="M168.494 106.004C168.494 106.004 213.964 103.972 234.674 106.713C239.84 107.396 243.751 111.746 243.91 116.953C244.63 140.492 242.264 208.43 192.221 220.549C131.487 235.256 102.07 208.393 102.07 208.393L168.494 106.004Z" fill="#F58F86"/>
<path d="M158.157 218.284C182.387 218.284 202.028 213.576 202.028 207.769C202.028 201.962 182.387 197.254 158.157 197.254C133.928 197.254 114.286 201.962 114.286 207.769C114.286 213.576 133.928 218.284 158.157 218.284Z" fill="#9B4642"/>
<path d="M151.001 61.7523V47.7391L145.015 46.6648L136.891 51.8404V72.3998H151.001V62.8636C151.081 62.4244 151.065 62.0645 151.001 61.7523Z" fill="#FFD3CA"/>
<path d="M126.888 35.8532C126.888 35.8532 128.333 58.0373 143.232 58.0373C156.776 58.0373 158.644 38.1923 158.644 38.1923L160.327 22.1258L148.63 7.80566L126.882 21.7977V35.8532H126.888Z" fill="#FDE6E1"/>
<path d="M163.291 38.1576C164.047 35.8649 163.335 33.5692 161.7 33.0301C160.064 32.4909 158.126 33.9124 157.37 36.2051C156.614 38.4978 157.326 40.7935 158.961 41.3327C160.596 41.8718 162.535 40.4503 163.291 38.1576Z" fill="#FDE6E1"/>
<path d="M126.285 41.341C127.92 40.8019 128.632 38.5062 127.876 36.2135C127.12 33.9208 125.181 32.4992 123.546 33.0384C121.911 33.5776 121.198 35.8733 121.955 38.166C122.711 40.4587 124.649 41.8802 126.285 41.341Z" fill="#FDE6E1"/>
<path d="M127.1 37.1868L128.947 29.4128C128.947 29.4128 147.413 24.7347 151.187 20.1413C151.187 20.1413 153.638 25.6238 156.48 28.6614L158.75 37.1815C158.75 37.1815 159.195 33.567 161.698 33.0273L164.848 16.9343C164.848 16.9343 163.281 12.1768 159.946 11.2719C159.946 11.2719 161.243 9.98591 162.789 10.3722C162.789 10.3722 161.233 9.42496 159.38 10.7903C159.38 10.7903 160.402 9.18153 158.793 7.23407C158.793 7.23407 159.428 9.52551 158.549 10.2558C158.549 10.2558 157.713 0.793716 149.784 0.111048C141.856 -0.571619 139.569 2.3231 139.569 2.3231C139.569 2.3231 127.984 -0.571619 122.262 11.9281C116.541 24.4278 123.331 27.2484 123.331 27.2484L124.909 32.9267C124.914 32.9214 126.83 34.7789 127.1 37.1868Z" fill="black"/>
<path d="M136.886 62.8635C140.384 64.467 145.852 65.1285 150.996 62.8635L180.281 76.4322C182.345 77.39 183.557 79.5704 183.271 81.83L177.931 189.374H108.041L105.204 84.1215C104.5 81.7242 105.59 79.1682 107.808 78.0145L136.886 62.8635Z" fill="#0DCEDA"/>
<path d="M102.07 165.116C102.07 165.116 46.163 180.478 42.5586 186.532C38.9543 192.586 31.9097 279.036 31.9097 279.036H52.3078L71.4675 218.284L155.685 214.421L102.07 165.116Z" fill="#11103F"/>
<path d="M177.873 177.112C177.873 177.112 187.934 203.371 171.289 214.072C154.643 224.772 95.4545 198.603 95.4545 198.603L80.4125 279.036H59.935C59.935 279.036 57.3786 156.458 73.0821 156.458C88.7856 156.458 165.71 165.666 177.873 177.112Z" fill="#1B1464"/>
<path d="M105.193 81.2427L83.583 112.471L96.7248 127.786L112.704 112.169L105.193 81.2427Z" fill="#0DCEDA"/>
<path d="M150.312 157.29L125.735 132.717L123.464 134.988L148.041 159.562L150.312 157.29Z" fill="#29ABE2"/>
<path d="M150.312 157.291L141.94 148.921L139.668 151.192L148.04 159.563L150.312 157.291Z" fill="#FBB03B"/>
<path d="M44.3689 77.8717L46.92 99.6324L31.19 96.6054L7.11342 100.749L0 39.9598L18.5881 45.6434L45.6709 44.4633L44.3689 77.8717Z" fill="white"/>
<path d="M77.5966 98.1718C71.3723 94.7532 56.685 83.9205 55.6688 83.2855C54.6526 82.6504 52.7737 76.2683 51.8898 75.9931C51.0059 75.7179 42.2676 72.7809 40.0288 70.59C40.0288 70.59 38.0652 71.5425 39.3513 73.1142C40.6375 74.686 42.8393 76.9033 44.3689 77.8717C44.3689 77.8717 45.4221 88.3922 45.5968 88.3711C45.7714 88.3499 49.3228 89.2601 51.3341 89.4665C51.3341 89.4665 79.195 123.827 83.0005 127.484L86.7107 108.407L77.5966 98.1718Z" fill="#FDE6E1"/>
<path d="M77.5965 98.1718C77.5965 98.1718 98.9526 114.233 100.027 118.853C101.101 123.467 96.6979 137.364 83.0003 127.489L75.4053 108.957L77.5965 98.1718Z" fill="#FDE6E1"/>
<path d="M180.89 86.8152C180.89 86.8152 210.423 124.161 210.338 130.564C210.254 136.967 207.713 142.238 190.3 147.334C172.882 152.425 149.446 154.098 149.446 154.098C149.446 154.098 140.787 158.416 138.325 157.283C135.864 156.151 129.301 144.852 129.82 144.339C129.82 144.339 135.637 147.054 137.362 145.985C139.088 144.916 138.77 143.461 136.743 143.582L135.991 142.736C135.991 142.736 138.611 140.502 140.474 141.386C142.337 142.27 148.387 145.646 148.387 145.646C148.387 145.646 188.209 134.009 189.167 130.86L177.539 104.512L180.89 86.8152Z" fill="#FDE6E1"/>
<path d="M182.652 78.6284L205.363 117.419L185.902 128.294L173.035 112.169L182.652 78.6284Z" fill="#0DCEDA"/>
<path d="M125.734 132.718L123.463 134.994L122.399 132.39L121.992 131.384C121.96 131.321 122.029 131.252 122.098 131.279L123.209 131.718L125.734 132.718Z" fill="#FFE4D2"/>
<path d="M123.209 131.718C122.96 132.263 122.627 132.379 122.399 132.39L121.992 131.384C121.96 131.321 122.029 131.252 122.098 131.279L123.209 131.718Z" fill="black"/>
<path d="M7.76953 50.1627L19.3871 52.3695H40.5262V56.8677H19.9746L7.76953 54.5709V50.1627Z" fill="#29ABE2"/>
<path d="M7.76953 59.5084L19.3871 61.7152H40.5262V66.2134H19.9746L7.76953 63.9219V59.5084Z" fill="#29ABE2"/>
<path d="M149.599 39.0072C150.373 39.0072 151.001 38.1922 151.001 37.1868C151.001 36.1814 150.373 35.3663 149.599 35.3663C148.824 35.3663 148.196 36.1814 148.196 37.1868C148.196 38.1922 148.824 39.0072 149.599 39.0072Z" fill="#B55445"/>
<path d="M135.425 38.277C136.2 38.277 136.828 37.462 136.828 36.4566C136.828 35.4512 136.2 34.6361 135.425 34.6361C134.65 34.6361 134.022 35.4512 134.022 36.4566C134.022 37.462 134.65 38.277 135.425 38.277Z" fill="#B55445"/>
<path d="M153.446 34.1916C153.494 34.1916 153.542 34.181 153.584 34.1651C153.769 34.091 153.859 33.8741 153.785 33.6888C153.759 33.6306 153.177 32.2335 151.763 31.7837C150.752 31.4609 149.609 31.7096 148.36 32.514C148.191 32.6251 148.143 32.8474 148.249 33.0167C148.36 33.1861 148.582 33.2337 148.752 33.1279C149.81 32.4505 150.747 32.2282 151.536 32.4823C152.626 32.8209 153.108 33.9587 153.108 33.9693C153.166 34.1069 153.304 34.1916 153.446 34.1916Z" fill="#B55445"/>
<path d="M137.542 32.9215C137.59 32.9215 137.637 32.9109 137.68 32.895C137.865 32.8157 137.955 32.604 137.875 32.4188C137.849 32.3605 137.267 30.974 136.007 30.593C135.261 30.3655 134.451 30.5401 133.61 31.1063C133.44 31.2175 133.398 31.445 133.509 31.6144C133.62 31.7837 133.848 31.8261 134.017 31.7149C134.668 31.2757 135.266 31.1381 135.79 31.2969C136.722 31.5773 137.198 32.6939 137.198 32.7045C137.261 32.8368 137.399 32.9215 137.542 32.9215Z" fill="#B55445"/>
<path d="M141.893 45.6276C142.157 45.6276 142.401 45.4424 142.459 45.1725C142.528 44.8603 142.332 44.548 142.02 44.4793C141.321 44.3205 141.019 43.9342 140.929 43.7066C141.337 43.5055 141.956 42.6535 142.983 39.0179C143.073 38.711 142.893 38.3882 142.581 38.2982C142.268 38.2082 141.951 38.3882 141.861 38.7004C141.406 40.2986 140.739 42.1825 140.411 42.6218C140.051 42.7011 139.781 43.0081 139.733 43.4209C139.654 44.1247 140.225 45.2678 141.755 45.6117C141.808 45.6223 141.85 45.6276 141.893 45.6276Z" fill="#E2765A"/>
<path d="M138.897 51.6922C138.902 51.6922 138.908 51.6975 138.913 51.6975C144.825 52.9358 147.095 50.6073 147.191 50.5068C147.466 50.2104 147.455 49.75 147.159 49.4749C146.868 49.1997 146.407 49.2103 146.132 49.5013C146.084 49.5436 144.206 51.3165 139.214 50.2686C138.818 50.184 138.431 50.438 138.352 50.8349C138.267 51.2212 138.511 51.6022 138.897 51.6922Z" fill="#E2765A"/>
<path d="M130.09 46.9558C132.262 46.9558 134.023 45.8351 134.023 44.4527C134.023 43.0703 132.262 41.9496 130.09 41.9496C127.918 41.9496 126.158 43.0703 126.158 44.4527C126.158 45.8351 127.918 46.9558 130.09 46.9558Z" fill="#FFAD9F"/>
<path d="M153.198 46.9558C155.37 46.9558 157.131 45.8351 157.131 44.4527C157.131 43.0703 155.37 41.9496 153.198 41.9496C151.026 41.9496 149.266 43.0703 149.266 44.4527C149.266 45.8351 151.026 46.9558 153.198 46.9558Z" fill="#FFAD9F"/>
<path d="M87.7959 106.385C87.7959 106.385 99.4822 125.267 95.3698 129.955L106.135 118.588L98.1432 106.385H87.7959Z" fill="#0DCEDA"/>
<path d="M185.901 128.294C185.901 128.294 206.839 126.341 205.368 117.413C203.897 108.486 185.901 117.413 185.901 117.413V128.294Z" fill="#0DCEDA"/>
</svg>
