<svg width="94" height="325" viewBox="0 0 94 325" fill="none" xmlns="http://www.w3.org/2000/svg">
<path d="M51.3583 37.9513L50.9096 52.7271L62.2635 58.3507L47.2649 71.4639L29.3835 69.6755L25.9551 59.2934L36.0111 53.7117L36.5341 45.9316L42.048 42.6065L51.3583 37.9513Z" fill="#FFD3CA"/>
<path d="M36.4897 46.6418C36.4897 46.6418 38.7302 50.5222 51.1332 45.4442L51.3592 37.9481L42.9786 40.3726L36.4897 46.6418Z" fill="#B55445"/>
<path d="M39.8463 47.2293C47.2383 47.2293 53.2307 38.9721 53.2307 28.7862C53.2307 18.6004 47.2383 10.3431 39.8463 10.3431C32.4543 10.3431 26.4619 18.6004 26.4619 28.7862C26.4619 38.9721 32.4543 47.2293 39.8463 47.2293Z" fill="#FFD3CA"/>
<path d="M49.5186 18.543C49.5186 18.543 45.8157 19.9666 43.9627 17.8295C42.1097 15.6924 38.7297 16.4123 36.4118 16.5479C29.0255 16.9773 25.836 12.9839 25.6229 10.7758C25.4099 8.56762 27.9311 3.20546 30.9657 1.51707C35.595 -1.05908 45.0506 -0.539327 46.0256 4.50969C46.0256 4.50969 49.2248 4.08356 50.7582 4.65173C52.2917 5.22313 54.0736 7.00191 54.9291 7.07293C55.7846 7.14395 62.0507 6.93088 61.6956 10.9178C61.6956 10.9178 66.538 11.2729 67.5355 14.4786C68.5331 17.6842 58.4189 38.4808 56.2818 40.0497C54.1447 41.6154 51.2263 41.9738 51.2263 41.9738L51.3555 37.9481L52.1883 35.7335C52.1916 35.7367 49.3055 30.9363 49.5186 18.543Z" fill="#2A2C6A"/>
<path d="M53.0561 36.1209C55.3097 36.1209 57.1367 34.294 57.1367 32.0404C57.1367 29.7868 55.3097 27.9598 53.0561 27.9598C50.8025 27.9598 48.9756 29.7868 48.9756 32.0404C48.9756 34.294 50.8025 36.1209 53.0561 36.1209Z" fill="#FFD3CA"/>
<path d="M22.6074 144.749C22.6074 144.749 25.8841 287.283 32.36 306.705H48.9307C48.9307 306.705 49.1761 252.092 48.9307 245.054C48.6854 238.017 52.2333 184.812 52.2333 184.812L72.8942 306.705L91.192 304.735C91.192 304.735 78.492 180.941 68.5134 149.239L52.23 132.736L22.6074 144.749Z" fill="black"/>
<path d="M13.1653 67.1349C13.1653 67.1349 8.69094 103.54 15.1313 104.247C21.5717 104.954 29.0258 104.247 29.0258 104.247V78.8083L13.1653 67.1349Z" fill="#6D2011"/>
<path d="M32.7217 306.705C32.7217 306.705 29.7323 311.783 22.6495 313.219C15.5699 314.656 5.01989 319.224 6.55655 324.783L42.7842 323.692L42.7229 306.705H32.7217Z" fill="#002123"/>
<path d="M76.5419 306.314L75.4314 315.744L73.5881 320.532C73.0457 321.936 74.0852 323.447 75.5896 323.447H91.0562C92.7414 323.447 93.768 321.597 92.877 320.167L90.12 315.744L89.1612 304.952L76.5419 306.314Z" fill="#002123"/>
<path d="M39.8458 28.5119C40.6071 28.5119 41.2242 27.6606 41.2242 26.6104C41.2242 25.5603 40.6071 24.709 39.8458 24.709C39.0845 24.709 38.4673 25.5603 38.4673 26.6104C38.4673 27.6606 39.0845 28.5119 39.8458 28.5119Z" fill="#B55445"/>
<path d="M30.4034 27.6241C31.1647 27.6241 31.7819 26.7728 31.7819 25.7226C31.7819 24.6725 31.1647 23.8212 30.4034 23.8212C29.6421 23.8212 29.0249 24.6725 29.0249 25.7226C29.0249 26.7728 29.6421 27.6241 30.4034 27.6241Z" fill="#B55445"/>
<path d="M43.6258 24.1666C43.671 24.1666 43.7162 24.1569 43.7614 24.1376C43.9454 24.0569 44.0326 23.8373 43.9583 23.6436C43.9357 23.5823 43.3611 22.1296 41.9697 21.6647C40.9786 21.3322 39.8519 21.5872 38.6252 22.4234C38.4573 22.5364 38.4089 22.772 38.5155 22.9496C38.622 23.1271 38.8447 23.1788 39.0126 23.0658C40.0489 22.3588 40.9689 22.1328 41.747 22.3911C42.8155 22.7462 43.2901 23.9245 43.2933 23.9374C43.3514 24.0795 43.4837 24.1666 43.6258 24.1666Z" fill="#B55445"/>
<path d="M32.3074 22.2619C32.3526 22.2619 32.4011 22.2522 32.443 22.2329C32.627 22.1521 32.7142 21.9294 32.6367 21.7357C32.6141 21.6744 32.0395 20.2313 30.7998 19.8342C30.0638 19.5986 29.2729 19.7794 28.4464 20.3669C28.2818 20.4831 28.2398 20.7188 28.3496 20.8931C28.4593 21.0674 28.6853 21.1126 28.8467 20.9964C29.4859 20.5412 30.0734 20.396 30.59 20.5574C31.5036 20.8479 31.9717 22.0101 31.9749 22.023C32.033 22.1715 32.1686 22.2619 32.3074 22.2619Z" fill="#B55445"/>
<path d="M34.5581 33.3091C34.8067 33.3091 35.0295 33.1283 35.0876 32.8604C35.1522 32.5505 34.9714 32.2438 34.6776 32.1728C34.0255 32.0178 33.7446 31.6336 33.6574 31.4077C34.0384 31.2107 34.6163 30.3649 35.5783 26.7686C35.659 26.462 35.4911 26.1456 35.2038 26.0584C34.9133 25.9713 34.6163 26.1488 34.5323 26.4555C34.1094 28.0406 33.4831 29.9033 33.1797 30.3391C32.8439 30.4198 32.5921 30.72 32.5502 31.13C32.4759 31.8241 33.0118 32.9572 34.4387 33.2994C34.4774 33.3059 34.5162 33.3091 34.5581 33.3091Z" fill="#E2765A"/>
<path d="M34.1223 40.1046C34.1255 40.1078 34.1287 40.1078 34.1352 40.111C38.2835 41.8285 40.3141 40.3273 40.398 40.2628C40.6466 40.0723 40.7079 39.7139 40.5368 39.4621C40.3657 39.2136 40.0268 39.1619 39.7782 39.3492C39.7395 39.3782 38.0801 40.4952 34.5775 39.0457C34.2998 38.9295 33.977 39.0747 33.8543 39.3685C33.7317 39.6591 33.8543 39.9851 34.1223 40.1046Z" fill="#E2765A"/>
<path d="M43.3841 34.7328C45.1296 34.7328 46.5446 33.9422 46.5446 32.9669C46.5446 31.9917 45.1296 31.201 43.3841 31.201C41.6386 31.201 40.2236 31.9917 40.2236 32.9669C40.2236 33.9422 41.6386 34.7328 43.3841 34.7328Z" fill="#FF8483"/>
<path d="M27.9854 34.1903C29.6007 34.1903 30.9102 33.3246 30.9102 32.2566C30.9102 31.1886 29.6007 30.3229 27.9854 30.3229C26.37 30.3229 25.0605 31.1886 25.0605 32.2566C25.0605 33.3246 26.37 34.1903 27.9854 34.1903Z" fill="#FF8483"/>
<path d="M55.7173 55.1063C55.7173 55.1063 80.7138 66.586 81.1689 67.6514C81.6241 68.7167 70.2154 151.941 70.2154 151.941H20.6163C20.6163 151.941 10.6668 74.0272 13.1687 67.1348C15.9514 59.4709 32.5448 55.1063 32.5448 55.1063C32.5448 55.1063 40.7639 64.4715 55.7173 55.1063Z" fill="#E2765A"/>
<path d="M81.1678 67.6514C81.1678 67.6514 92.7025 112.867 92.8736 118.839C93.0447 124.808 81.7845 126.002 79.5666 126.345C77.3488 126.687 55.7226 123.956 51.3548 123.617C46.9869 123.274 34.0674 123.103 34.0674 123.103L33.7188 114.232C33.7188 114.232 69.5041 113.209 76.3254 113.38C76.3254 113.38 69.291 93.9327 67.6059 84.8935L81.1678 67.6514Z" fill="#FFD3CA"/>
<path d="M33.7225 114.232L17.9879 112.279L0 111.407C0 111.407 0.387365 113.864 2.03055 114.038C3.67374 114.213 13.9267 114.984 13.9267 114.984C13.9267 114.984 14.3044 124.992 15.8604 125.525C17.4197 126.057 34.0711 123.1 34.0711 123.1L33.7225 114.232Z" fill="#FFD3CA"/>
<path d="M81.169 67.6514L90.1016 98.1198C90.1016 98.1198 77.4404 104.88 70.2865 104.199L64.5596 83.0405L81.169 67.6514Z" fill="#E2765A"/>
<path d="M73.133 104.137C73.133 104.137 71.2477 104.308 70.2856 104.195L65.4497 90.5818" stroke="#6D2011" stroke-width="0.369544" stroke-miterlimit="10"/>
<path d="M55.6805 33.0444C55.674 33.0444 55.6675 33.0444 55.6611 33.0444C55.4835 33.0347 55.348 32.883 55.3577 32.7054C55.4319 31.3819 55.1543 30.4876 54.5377 30.0453C53.5498 29.3384 51.9647 29.9646 51.9486 29.9711C51.7839 30.0389 51.5935 29.9582 51.5289 29.7935C51.4611 29.6289 51.5418 29.4384 51.7065 29.3739C51.7839 29.3416 53.6402 28.6088 54.9121 29.5224C55.7224 30.1002 56.0872 31.1849 56.0001 32.741C55.9904 32.912 55.8483 33.0444 55.6805 33.0444Z" fill="#B55445"/>
</svg>
