<svg width="36" height="36" viewBox="0 0 36 36" fill="none" xmlns="http://www.w3.org/2000/svg">
<path d="M30.0938 4.75902C31.8187 4.40477 33.5196 3.49173 33.5196 3.49173C34.2779 3.13566 34.5614 3.41389 34.1525 4.13127C34.1525 4.13127 33.1317 6.24768 31.572 7.2307C33.0993 7.03894 34.4779 6.47922 34.4779 6.47922C35.2725 6.20897 35.4866 6.85085 34.9667 7.5C34.9667 7.5 33.6182 9.37871 32.143 10.5C32.1558 10.8391 32.1617 10.7793 32.1617 11.1254C32.1617 23.1348 26.1012 33.75 10.6756 33.75C4.87844 33.75 1.77488 31.4498 1.77488 31.4498C0.277624 30.6878 0.447592 29.7983 2.11106 29.5495C2.11106 29.5495 7.69569 29.0176 10.2795 26.884C-4.49989 19.5 1.52821 5.20387 1.52821 5.20387C1.58615 4.37994 2.15593 4.17007 2.76615 4.74832C2.76615 4.74832 9.41802 11.6805 17.2279 12.0126C17.0982 11.4302 17.0333 10.8257 17.0333 10.202C17.0333 5.81067 20.4152 2.25 24.5823 2.25C26.7562 2.25 28.7199 3.21485 30.0938 4.75902Z" fill="#1A1A1A"/>
<mask id="mask0" mask-type="alpha" maskUnits="userSpaceOnUse" x="0" y="2" width="36" height="32">
<path d="M30.0938 4.75902C31.8187 4.40477 33.5196 3.49173 33.5196 3.49173C34.2779 3.13566 34.5614 3.41389 34.1525 4.13127C34.1525 4.13127 33.1317 6.24768 31.572 7.2307C33.0993 7.03894 34.4779 6.47922 34.4779 6.47922C35.2725 6.20897 35.4866 6.85085 34.9667 7.5C34.9667 7.5 33.6182 9.37871 32.143 10.5C32.1558 10.8391 32.1617 10.7793 32.1617 11.1254C32.1617 23.1348 26.1012 33.75 10.6756 33.75C4.87844 33.75 1.77488 31.4498 1.77488 31.4498C0.277624 30.6878 0.447592 29.7983 2.11106 29.5495C2.11106 29.5495 7.69569 29.0176 10.2795 26.884C-4.49989 19.5 1.52821 5.20387 1.52821 5.20387C1.58615 4.37994 2.15593 4.17007 2.76615 4.74832C2.76615 4.74832 9.41802 11.6805 17.2279 12.0126C17.0982 11.4302 17.0333 10.8257 17.0333 10.202C17.0333 5.81067 20.4152 2.25 24.5823 2.25C26.7562 2.25 28.7199 3.21485 30.0938 4.75902Z" fill="white"/>
</mask>
<g mask="url(#mask0)">
</g>
</svg>
